<svg width="39" height="39" viewBox="0 0 39 39" fill="none" xmlns="http://www.w3.org/2000/svg">
<path fill-rule="evenodd" clip-rule="evenodd" d="M14.453 0.0344731C11.002 0.10095 8.66788 0.3305 6.85004 0.782224C5.06153 1.22664 3.64359 1.96012 2.74709 2.90464C1.51636 4.2013 0.744501 6.2651 0.370269 9.25997C0.13734 11.1239 0.052928 12.9328 0.0211517 16.741L9.7474e-05 19.2672H0.259149C0.903351 19.2672 4.02003 19.138 5.38794 19.0545C8.64813 18.8557 10.7199 18.5065 12.3573 17.88C13.789 17.3322 15.1412 16.4223 16.0417 15.4008C17.9818 13.2 18.7467 10.6601 19.0653 5.36103C19.1455 4.02669 19.2779 0.836256 19.2779 0.237543V0L17.4828 0.00536103C16.4954 0.00828524 15.132 0.0214116 14.453 0.0344731ZM19.7329 0.251806C19.7331 0.923982 19.8648 4.1381 19.9463 5.45851C20.2736 10.7661 21.0561 13.2838 23.0728 15.5185C23.7229 16.2389 24.7236 16.9697 25.7599 17.4808C27.676 18.4259 29.9007 18.8471 34.2401 19.0863C35.5524 19.1587 38.2532 19.2665 38.7644 19.267L39 19.2672L38.9994 17.7808C38.9974 12.8711 38.813 9.79796 38.3948 7.7004C37.8146 4.79085 36.7959 3.01586 35.1064 1.97078C33.2718 0.835931 30.8507 0.302362 26.6046 0.0971484C25.6022 0.0486717 22.9556 0.00103972 21.2355 0.000487367L19.7328 0L19.7329 0.251806ZM0.0211192 22.2434C0.052928 26.0568 0.137242 27.8647 0.370269 29.7294C0.802141 33.1855 1.76641 35.4128 3.35955 36.6339C5.17015 38.0218 7.78884 38.6754 12.406 38.8918C13.4531 38.9409 16.0526 38.9878 17.7752 38.9886L19.2779 38.9893L19.2777 38.7375C19.2772 38.2237 19.1705 35.5234 19.0975 34.1807C18.8638 29.8776 18.4145 27.556 17.4458 25.6452C16.5105 23.8003 15.1311 22.4375 13.2508 21.5007C10.9674 20.3631 8.05634 19.952 0.744501 19.7344L0 19.7122L0.0211192 22.2434ZM37.5054 19.757C31.6512 19.9756 29.5731 20.2025 27.3791 20.8626C25.4835 21.433 23.8523 22.496 22.6845 23.9221C21.1289 25.8217 20.3801 28.1775 20.0433 32.2312C19.9257 33.6463 19.7328 37.7015 19.7328 38.7577V39L22.3077 38.9787C24.9722 38.9566 26.0926 38.9269 27.4814 38.8417C30.6484 38.6475 32.6907 38.2307 34.305 37.4493C34.8423 37.1891 35.2058 36.9734 35.5757 36.695C37.312 35.3883 38.2862 33.0474 38.7045 29.177C38.8981 27.3854 38.998 24.6886 38.9994 21.2086L39 19.7221L38.5857 19.7271C38.3579 19.7298 37.8717 19.7433 37.5054 19.757Z" fill="black"/>
</svg>
