<svg width="39" height="39" viewBox="0 0 39 39" fill="none" xmlns="http://www.w3.org/2000/svg">
<path d="M0 19.5C0 8.73045 8.73045 0 19.5 0C30.2696 0 39 8.73045 39 19.5C39 30.2696 30.2696 39 19.5 39C8.73045 39 0 30.2696 0 19.5Z" fill="url(#paint0_linear_475_248)"/>
<mask id="mask0_475_248" style="mask-type:luminance" maskUnits="userSpaceOnUse" x="0" y="0" width="39" height="39">
<path fill-rule="evenodd" clip-rule="evenodd" d="M0 19.5C0 8.73045 8.73045 0 19.5 0C30.2696 0 39 8.73045 39 19.5C39 30.2696 30.2696 39 19.5 39C8.73045 39 0 30.2696 0 19.5Z" fill="white"/>
</mask>
<g mask="url(#mask0_475_248)">
<path fill-rule="evenodd" clip-rule="evenodd" d="M19.5006 9.1001C16.6761 9.1001 16.3216 9.11245 15.2123 9.16293C14.1051 9.21363 13.3494 9.38892 12.6881 9.6461C12.0041 9.91174 11.4238 10.2671 10.8457 10.8454C10.2672 11.4234 9.9119 12.0037 9.6454 12.6875C9.38756 13.349 9.21206 14.1049 9.16223 15.2117C9.11261 16.321 9.09961 16.6757 9.09961 19.5002C9.09961 22.3247 9.11218 22.6781 9.16244 23.7874C9.21336 24.8946 9.38865 25.6504 9.64562 26.3116C9.91147 26.9957 10.2668 27.5759 10.8451 28.154C11.423 28.7325 12.0032 29.0887 12.6868 29.3543C13.3485 29.6115 14.1044 29.7868 15.2114 29.8375C16.3208 29.888 16.675 29.9003 19.4993 29.9003C22.324 29.9003 22.6774 29.888 23.7867 29.8375C24.8939 29.7868 25.6505 29.6115 26.3122 29.3543C26.996 29.0887 27.5754 28.7325 28.1533 28.154C28.7318 27.5759 29.0871 26.9957 29.3536 26.3118C29.6093 25.6504 29.7848 24.8944 29.8368 23.7877C29.8866 22.6783 29.8996 22.3247 29.8996 19.5002C29.8996 16.6757 29.8866 16.3212 29.8368 15.2119C29.7848 14.1047 29.6093 13.349 29.3536 12.6877C29.0871 12.0037 28.7318 11.4234 28.1533 10.8454C27.5748 10.2669 26.9962 9.91152 26.3116 9.6461C25.6486 9.38892 24.8924 9.21363 23.7852 9.16293C22.6759 9.11245 22.3227 9.1001 19.4973 9.1001H19.5006ZM18.5676 10.9743C18.7488 10.974 18.9436 10.9741 19.154 10.9742L19.5006 10.9743C22.2774 10.9743 22.6065 10.9843 23.7031 11.0341C24.7171 11.0805 25.2674 11.2499 25.634 11.3922C26.1194 11.5807 26.4654 11.8061 26.8292 12.1701C27.1932 12.5341 27.4185 12.8808 27.6075 13.3661C27.7498 13.7323 27.9195 14.2826 27.9656 15.2966C28.0155 16.393 28.0263 16.7223 28.0263 19.4978C28.0263 22.2734 28.0155 22.6027 27.9656 23.699C27.9193 24.713 27.7498 25.2634 27.6075 25.6296C27.419 26.1149 27.1932 26.4605 26.8292 26.8243C26.4652 27.1883 26.1196 27.4136 25.634 27.6021C25.2679 27.7451 24.7171 27.9141 23.7031 27.9605C22.6067 28.0103 22.2774 28.0211 19.5006 28.0211C16.7235 28.0211 16.3944 28.0103 15.2981 27.9605C14.2841 27.9137 13.7337 27.7442 13.3669 27.6019C12.8816 27.4134 12.5349 27.1881 12.1709 26.8241C11.8069 26.46 11.5816 26.1142 11.3926 25.6287C11.2503 25.2625 11.0806 24.7122 11.0345 23.6982C10.9846 22.6018 10.9747 22.2725 10.9747 19.4952C10.9747 16.718 10.9846 16.3904 11.0345 15.294C11.0808 14.28 11.2503 13.7297 11.3926 13.3631C11.5811 12.8777 11.8069 12.5311 12.1709 12.167C12.5349 11.803 12.8816 11.5777 13.3669 11.3888C13.7335 11.2458 14.2841 11.0768 15.2981 11.0302C16.2575 10.9869 16.6293 10.9739 18.5676 10.9717V10.9743ZM23.8037 13.9487C23.8037 13.2595 24.3627 12.7011 25.0517 12.7011V12.7007C25.7407 12.7007 26.2997 13.2597 26.2997 13.9487C26.2997 14.6377 25.7407 15.1967 25.0517 15.1967C24.3627 15.1967 23.8037 14.6377 23.8037 13.9487ZM19.5008 14.1592C16.5514 14.1593 14.1602 16.5506 14.1602 19.5001C14.1602 22.4496 16.5515 24.8399 19.501 24.8399C22.4506 24.8399 24.8411 22.4496 24.8411 19.5001C24.8411 16.5506 22.4503 14.1592 19.5008 14.1592ZM22.9676 19.5004C22.9676 17.5857 21.4154 16.0337 19.5009 16.0337C17.5862 16.0337 16.0342 17.5857 16.0342 19.5004C16.0342 21.4149 17.5862 22.9671 19.5009 22.9671C21.4154 22.9671 22.9676 21.4149 22.9676 19.5004Z" fill="white"/>
</g>
<defs>
<linearGradient id="paint0_linear_475_248" x1="8.2875" y1="34.6125" x2="34.125" y2="7.8" gradientUnits="userSpaceOnUse">
<stop stop-color="#EEA054"/>
<stop offset="0.502762" stop-color="#D64763"/>
<stop offset="1" stop-color="#B62A99"/>
</linearGradient>
</defs>
</svg>
