<svg width="39" height="39" viewBox="0 0 39 39" fill="none" xmlns="http://www.w3.org/2000/svg">
<path d="M19.5 39C30.2696 39 39 30.2696 39 19.5C39 8.73045 30.2696 0 19.5 0C8.73045 0 0 8.73045 0 19.5C0 30.2696 8.73045 39 19.5 39Z" fill="url(#paint0_linear_475_244)"/>
<path d="M7.26232 20.4537C9.54187 19.198 12.0865 18.1501 14.464 17.0967C18.5543 15.3715 22.6608 13.6761 26.8088 12.0977C27.6158 11.8288 29.0659 11.5659 29.2081 12.7618C29.1302 14.4547 28.8099 16.1377 28.5903 17.8208C28.0327 21.5219 27.3882 25.2103 26.7597 28.8992C26.5432 30.128 25.0039 30.764 24.019 29.9777C21.652 28.3789 19.2668 26.7956 16.9301 25.1597C16.1646 24.382 16.8744 23.265 17.5581 22.7096C19.5076 20.7883 21.5751 19.156 23.4227 17.1355C23.9211 15.932 22.4485 16.9462 21.9628 17.2571C19.2939 19.0962 16.6903 21.0477 13.8764 22.6641C12.4391 23.4553 10.7639 22.7791 9.32724 22.3377C8.03912 21.8043 6.1515 21.267 7.26219 20.4538L7.26232 20.4537Z" fill="white"/>
<defs>
<linearGradient id="paint0_linear_475_244" x1="26.0016" y1="6.5013" x2="16.2516" y2="29.25" gradientUnits="userSpaceOnUse">
<stop stop-color="#37AEE2"/>
<stop offset="1" stop-color="#1E96C8"/>
</linearGradient>
</defs>
</svg>
