<svg width="39" height="39" viewBox="0 0 39 39" fill="none" xmlns="http://www.w3.org/2000/svg">
<path d="M19.5 0C30.2696 0 39 8.73045 39 19.5C39 30.2696 30.2696 39 19.5 39C8.73045 39 0 30.2696 0 19.5C0 8.73045 8.73045 0 19.5 0Z" fill="#7F4DA0"/>
<path d="M24.695 17.0286C24.6001 16.2581 24.3633 15.6531 23.9427 15.1172C23.3966 14.4272 22.6987 14.014 21.6655 13.7689C20.9921 13.6055 20.7201 13.6242 20.4765 13.8467C20.2497 14.0551 20.2054 14.4729 20.3788 14.7435C20.5007 14.9399 20.6413 15.0102 21.0325 15.087C21.5534 15.1829 21.9134 15.3072 22.2408 15.4945C22.9359 15.8958 23.2595 16.5238 23.2942 17.5405C23.3104 18.0179 23.3516 18.1647 23.5184 18.334C23.8274 18.6435 24.3774 18.5833 24.6107 18.2129C24.6963 18.0733 24.7093 18.0126 24.7184 17.6884C24.7244 17.4877 24.7157 17.189 24.695 17.0286Z" fill="white"/>
<path d="M27.4173 17.8974C27.28 15.5368 26.3567 13.6376 24.7043 12.3013C23.7732 11.5505 22.6478 11.0342 21.4143 10.7831C20.9624 10.6933 20.1304 10.6205 19.9877 10.6621C19.853 10.7007 19.6625 10.8465 19.5776 10.9784C19.4878 11.1214 19.4676 11.4407 19.5441 11.6254C19.6678 11.9342 19.8978 12.0433 20.5419 12.0996C21.5348 12.1865 22.559 12.5354 23.3328 13.0518C24.2163 13.6399 24.9186 14.4442 25.3729 15.3893C25.7654 16.2013 26.0069 17.3716 26.0002 18.4195C25.9979 18.7985 26.0565 19.0126 26.2089 19.1691C26.439 19.4097 26.7743 19.4623 27.0703 19.3025C27.3983 19.13 27.475 18.8272 27.4173 17.8974Z" fill="white"/>
<path d="M30.4302 26.9884C30.384 26.8535 30.2763 26.6453 30.1993 26.5258C29.7144 25.7936 27.1089 23.7546 25.8081 23.0877C25.0653 22.7062 24.515 22.579 24.107 22.6984C23.6683 22.8218 23.4374 23.026 22.7023 23.9396C22.406 24.3057 22.102 24.6488 22.0211 24.7027C21.821 24.8415 21.4285 24.9533 21.1514 24.9533C20.5086 24.9494 19.3425 24.5331 18.4458 23.9858C17.7492 23.5619 16.8564 22.8026 16.1713 22.0509C15.3631 21.1683 14.8128 20.3897 14.3779 19.5109C13.816 18.3816 13.6736 17.6916 13.9084 17.1867C13.9661 17.0595 14.0431 16.9246 14.0777 16.8822C14.1123 16.8437 14.4741 16.5468 14.8743 16.2231C15.6595 15.5987 15.7865 15.4561 15.9327 15.0282C16.1174 14.4847 16.0674 13.9297 15.7826 13.3708C15.5632 12.9468 14.9898 12.0218 14.5742 11.4244C14.0238 10.6381 12.6537 8.95761 12.3804 8.73013C11.8878 8.32932 11.2567 8.2599 10.5601 8.52976C9.82507 8.81499 8.44725 9.92504 7.8584 10.6998C7.3273 11.4013 7.12339 11.8985 7.09257 12.5537C7.06565 13.0933 7.11182 13.3169 7.39662 14.0068C9.62493 19.4184 12.95 23.7391 17.5183 27.1696C19.9044 28.9618 22.379 30.3263 24.946 31.2591C26.4431 31.8025 27.0935 31.8295 27.8594 31.3824C28.1826 31.1897 28.9831 30.3687 29.4296 29.7713C30.1685 28.7768 30.4418 28.3182 30.5187 27.952C30.5726 27.7015 30.5303 27.2659 30.4302 26.9884Z" fill="white"/>
<path d="M30.1892 18.4394C30.1399 17.1041 29.9151 16.0088 29.4463 14.7877C28.9834 13.5865 28.515 12.8027 27.6304 11.7425C26.794 10.7485 26.1444 10.1809 25.1141 9.54914C23.6767 8.66888 21.9274 8.08636 19.967 7.84137C19.2985 7.75575 19.1472 7.76187 18.9421 7.89873C18.5447 8.15798 18.55 8.80463 18.9487 9.06C19.0807 9.14124 19.1978 9.17083 19.7326 9.24083C20.5535 9.35135 21.0814 9.45551 21.7077 9.62641C24.1639 10.2978 26.0528 11.6703 27.3155 13.7076C28.3723 15.4057 28.8109 17.104 28.7487 19.2729C28.727 20.0061 28.7427 20.1352 28.8548 20.3114C29.0695 20.6397 29.6355 20.7047 29.9259 20.4322C30.1066 20.2661 30.1407 20.1415 30.1763 19.5139C30.1933 19.1865 30.197 18.7032 30.1892 18.4394Z" fill="white"/>
</svg>
