<svg width="40" height="40" viewBox="0 0 40 40" fill="none" xmlns="http://www.w3.org/2000/svg">
<path fill-rule="evenodd" clip-rule="evenodd" d="M14.4317 0.918945H26.4042C37.3308 0.918945 39.918 3.5061 39.918 14.4327V26.4052C39.918 37.3318 37.3308 39.9189 26.4042 39.9189H14.4317C3.50512 39.9189 0.917969 37.3318 0.917969 26.4052V14.4327C0.917969 3.5061 3.50512 0.918945 14.4317 0.918945Z" fill="#4680C2"/>
<path fill-rule="evenodd" clip-rule="evenodd" d="M32.8449 14.3498C33.0376 13.7443 32.8449 13.3039 31.9917 13.3039H29.1568C28.4412 13.3039 28.111 13.6892 27.9183 14.1021C27.9183 14.1021 26.4596 17.625 24.4229 19.9094C23.7623 20.5699 23.4596 20.7901 23.1018 20.7901C22.9091 20.7901 22.6614 20.5699 22.6614 19.9644V14.3222C22.6614 13.6066 22.4412 13.2764 21.8357 13.2764H17.377C16.9366 13.2764 16.6614 13.6066 16.6614 13.9369C16.6614 14.625 17.6798 14.7901 17.7899 16.7167V20.9002C17.7899 21.8085 17.6247 21.9736 17.2669 21.9736C16.3036 21.9736 13.9642 18.4232 12.5605 14.3773C12.2853 13.5791 12.01 13.2764 11.2944 13.2764H8.43205C7.60636 13.2764 7.46875 13.6617 7.46875 14.0745C7.46875 14.8176 8.43205 18.5608 11.955 23.5149C14.2944 26.9002 17.6247 28.7167 20.6247 28.7167C22.4412 28.7167 22.6614 28.3039 22.6614 27.6158V25.0562C22.6614 24.2305 22.8265 24.0929 23.4045 24.0929C23.8174 24.0929 24.5605 24.3131 26.2394 25.9369C28.166 27.8635 28.4963 28.7443 29.5697 28.7443H32.4045C33.2302 28.7443 33.6155 28.3314 33.3954 27.5332C33.1476 26.7351 32.2119 25.5791 31.0009 24.203C30.3403 23.4323 29.3495 22.5791 29.0467 22.1663C28.6339 21.6158 28.744 21.3956 29.0467 20.9002C29.0192 20.9002 32.4871 16.0011 32.8449 14.3498Z" fill="white"/>
</svg>
