<svg width="39" height="39" viewBox="0 0 39 39" fill="none" xmlns="http://www.w3.org/2000/svg">
<path d="M19.5 39C30.2696 39 39 30.2696 39 19.5C39 8.73045 30.2696 0 19.5 0C8.73045 0 0 8.73045 0 19.5C0 30.2696 8.73045 39 19.5 39Z" fill="url(#paint0_linear_1022_790)"/>
<path fill-rule="evenodd" clip-rule="evenodd" d="M20.1429 30.3493H20.1381C18.1975 30.3486 16.2907 29.8617 14.597 28.9379L8.4502 30.5504L10.0952 24.5418C9.08048 22.7833 8.54654 20.7886 8.54741 18.745C8.54995 12.3518 13.7516 7.15039 20.1428 7.15039C23.2447 7.15173 26.156 8.35928 28.3452 10.551C30.5344 12.7427 31.7394 15.6559 31.7382 18.7541C31.7356 25.1459 26.536 30.3467 20.1429 30.3493ZM14.8816 26.8383L15.2335 27.0472C16.7132 27.9253 18.4094 28.3899 20.1388 28.3906H20.1427C25.4546 28.3906 29.778 24.0671 29.7801 18.753C29.7811 16.1778 28.7796 13.7564 26.96 11.9347C25.1404 10.113 22.7207 9.10929 20.1465 9.1084C14.8304 9.1084 10.507 13.4314 10.5049 18.7452C10.5041 20.5662 11.0137 22.3397 11.9784 23.8741L12.2075 24.2388L11.2339 27.7952L14.8816 26.8383ZM25.5887 21.2505C25.7908 21.3482 25.9272 21.4141 25.9855 21.5114C26.0579 21.6322 26.0579 22.2123 25.8166 22.8892C25.575 23.5659 24.4176 24.1836 23.8609 24.2667C23.3618 24.3414 22.7301 24.3725 22.0361 24.1519C21.6152 24.0184 21.0756 23.8401 20.3844 23.5416C17.6682 22.3688 15.8327 19.7363 15.4858 19.2387C15.4615 19.2039 15.4445 19.1795 15.435 19.1668L15.4326 19.1637C15.2793 18.9592 14.252 17.5884 14.252 16.1697C14.252 14.8352 14.9075 14.1356 15.2093 13.8137C15.2299 13.7916 15.249 13.7713 15.266 13.7527C15.5315 13.4627 15.8454 13.3901 16.0386 13.3901C16.2317 13.3901 16.4251 13.3919 16.5939 13.4004C16.6147 13.4014 16.6364 13.4013 16.6588 13.4012C16.8276 13.4002 17.0381 13.399 17.2457 13.8977C17.3256 14.0897 17.4425 14.3743 17.5658 14.6744C17.8151 15.2814 18.0906 15.952 18.139 16.049C18.2115 16.194 18.2597 16.3632 18.1632 16.5566C18.1487 16.5856 18.1353 16.613 18.1225 16.6391C18.0499 16.7872 17.9966 16.8962 17.8735 17.0399C17.8251 17.0964 17.775 17.1574 17.725 17.2183C17.6253 17.3397 17.5256 17.461 17.4389 17.5475C17.2938 17.692 17.1428 17.8487 17.3118 18.1388C17.4808 18.4289 18.0623 19.3776 18.9236 20.1459C19.8495 20.9717 20.6542 21.3207 21.062 21.4977C21.1417 21.5322 21.2062 21.5602 21.2536 21.5839C21.5432 21.729 21.7122 21.7047 21.8812 21.5114C22.0502 21.318 22.6055 20.6653 22.7986 20.3753C22.9917 20.0854 23.1849 20.1337 23.4504 20.2303C23.7161 20.3271 25.1405 21.0279 25.4302 21.1729C25.4868 21.2013 25.5397 21.2268 25.5887 21.2505Z" fill="#FDFDFD"/>
<defs>
<linearGradient id="paint0_linear_1022_790" x1="19.5" y1="0" x2="19.5" y2="39" gradientUnits="userSpaceOnUse">
<stop stop-color="#41DF5E"/>
<stop offset="1" stop-color="#1CBF3C"/>
</linearGradient>
</defs>
</svg>
