<svg width="39" height="39" viewBox="0 0 39 39" fill="none" xmlns="http://www.w3.org/2000/svg">
<path d="M19.5 39C30.2696 39 39 30.2696 39 19.5C39 8.73045 30.2696 0 19.5 0C8.73045 0 0 8.73045 0 19.5C0 30.2696 8.73045 39 19.5 39Z" fill="url(#paint0_linear_515_35)"/>
<path fill-rule="evenodd" clip-rule="evenodd" d="M20.142 30.3493H20.1372C18.1965 30.3486 16.2897 29.8617 14.5961 28.9379L8.44922 30.5504L10.0942 24.5418C9.0795 22.7833 8.54556 20.7886 8.54643 18.745C8.54898 12.3518 13.7506 7.15039 20.1419 7.15039C23.2437 7.15173 26.1551 8.35928 28.3443 10.551C30.5334 12.7427 31.7384 15.6559 31.7372 18.7541C31.7346 25.1459 26.5351 30.3467 20.142 30.3493ZM14.8806 26.8383L15.2325 27.0472C16.7122 27.9253 18.4084 28.3899 20.1378 28.3906H20.1417C25.4536 28.3906 29.777 24.0671 29.7791 18.753C29.7801 16.1778 28.7786 13.7564 26.9591 11.9347C25.1395 10.113 22.7197 9.10929 20.1455 9.1084C14.8295 9.1084 10.506 13.4314 10.5039 18.7452C10.5032 20.5662 11.0127 22.3397 11.9774 23.8741L12.2066 24.2388L11.233 27.7952L14.8806 26.8383ZM25.5877 21.2505C25.7898 21.3482 25.9262 21.4141 25.9845 21.5114C26.0569 21.6322 26.0569 22.2123 25.8156 22.8892C25.5741 23.5659 24.4166 24.1836 23.8599 24.2667C23.3608 24.3414 22.7291 24.3725 22.0351 24.1519C21.6143 24.0184 21.0746 23.8401 20.3834 23.5416C17.6673 22.3688 15.8317 19.7363 15.4848 19.2387C15.4605 19.2039 15.4435 19.1795 15.434 19.1668L15.4317 19.1637C15.2783 18.9592 14.251 17.5884 14.251 16.1697C14.251 14.8352 14.9065 14.1356 15.2083 13.8137C15.229 13.7916 15.248 13.7713 15.265 13.7527C15.5306 13.4627 15.8445 13.3901 16.0376 13.3901C16.2307 13.3901 16.4241 13.3919 16.5929 13.4004C16.6137 13.4014 16.6354 13.4013 16.6578 13.4012C16.8266 13.4002 17.0371 13.399 17.2448 13.8977C17.3247 14.0897 17.4415 14.3743 17.5648 14.6744C17.8141 15.2814 18.0896 15.952 18.138 16.049C18.2105 16.194 18.2588 16.3632 18.1622 16.5566C18.1477 16.5856 18.1343 16.613 18.1215 16.6391C18.049 16.7872 17.9956 16.8962 17.8725 17.0399C17.8241 17.0964 17.774 17.1574 17.724 17.2183C17.6243 17.3397 17.5247 17.461 17.4379 17.5475C17.2928 17.692 17.1418 17.8487 17.3109 18.1388C17.4799 18.4289 18.0613 19.3776 18.9226 20.1459C19.8485 20.9717 20.6532 21.3207 21.0611 21.4977C21.1407 21.5322 21.2052 21.5602 21.2526 21.5839C21.5422 21.729 21.7112 21.7047 21.8802 21.5114C22.0492 21.318 22.6045 20.6653 22.7976 20.3753C22.9907 20.0854 23.1839 20.1337 23.4495 20.2303C23.7151 20.3271 25.1395 21.0279 25.4293 21.1729C25.4858 21.2013 25.5387 21.2268 25.5877 21.2505Z" fill="#FDFDFD"/>
<defs>
<linearGradient id="paint0_linear_515_35" x1="19.5" y1="0" x2="19.5" y2="39" gradientUnits="userSpaceOnUse">
<stop stop-color="#41DF5E"/>
<stop offset="1" stop-color="#1CBF3C"/>
</linearGradient>
</defs>
</svg>
