<svg width="250" height="128" viewBox="0 0 250 128" fill="none" xmlns="http://www.w3.org/2000/svg">
<g clip-path="url(#clip0_1892_797)">
<path d="M110.966 113.662C109.611 122.361 100.742 127.9 91.6462 127.9H73.6289L75.0389 77.2017C75.0389 77.2017 92.2289 71.678 96.54 76.9319C100.323 81.5339 110.581 99.7517 111.12 110.535C111.177 111.58 111.125 112.628 110.966 113.662Z" fill="#7BBDF2"/>
<path d="M63.1445 82.5726C63.1445 82.5726 87.4501 70.1529 92.0464 78.2622C94.4909 82.5695 101.217 99.7502 101.706 110.532C102.189 121.009 93.1214 127.899 83.7887 127.899H67.2313L63.1445 82.5726Z" fill="#4E99D3"/>
<path d="M67.7079 89.4592C67.5038 90.5149 65.536 91.4865 62.6162 92.3598C62.0968 92.5126 61.5541 92.6623 60.988 92.8089C51.0492 95.3493 33.4448 96.7669 31.7668 96.0183C29.4484 94.9828 15.2188 44.3748 15.2188 44.3748C15.2188 44.3748 28.8018 43.8648 39.5898 43.6153C43.2808 43.5311 46.6431 43.4765 49.0238 43.4843C49.2979 43.4848 49.5717 43.5036 49.8433 43.5405C50.7639 43.6517 51.6147 44.0879 52.2427 44.7709C53.9799 46.6423 54.4115 50.3288 56.0194 54.4084C57.6086 58.4412 59.5609 63.4752 61.4118 68.4702C61.8886 69.7568 62.3591 71.0418 62.8141 72.3065C62.9434 72.6636 63.0696 73.0192 63.1973 73.3716C65.9317 81.0333 68.0382 87.75 67.7079 89.4592Z" fill="#70B6EF"/>
<path d="M110.962 113.662C109.606 122.361 100.738 127.9 91.6419 127.9H82.8047C88.6941 123.905 94.0258 111.583 110.962 113.662Z" fill="#70B6EF"/>
<path d="M96.7777 120.114C93.2985 124.948 87.9653 128.05 82.0229 127.953L56.4709 127.967H44.2324L58.0025 82.5788C58.0025 82.5788 92.8545 79.1089 97.1532 83.7375C99.1475 85.8848 100.269 95.616 100.892 105.425C101.256 110.955 99.6476 116.125 96.7777 120.114Z" fill="#70B6EF"/>
<path d="M96.7775 120.114C93.2983 124.948 87.9651 128.05 82.0227 127.953L56.4707 127.967C59.4762 125.441 68.9351 118.274 79.0531 118.611C86.7327 118.871 92.8247 118.76 96.7775 120.114Z" fill="#4E99D3"/>
<path d="M63.5058 49.3963C63.5058 49.3963 66.7185 51.4096 70.4984 56.9629C73.8092 61.8253 75.5231 63.4019 77.4036 63.8666C79.2842 64.3314 88.5016 64.0803 88.5016 64.0803L88.5234 65.7068C88.5234 65.7068 76.4018 69.2141 74.2704 67.8714C72.139 66.5287 62.2454 57.3964 61.4757 54.6268C60.706 51.8571 63.5058 49.3963 63.5058 49.3963Z" fill="#F4A269"/>
<path d="M95.9875 119.847C95.8754 121.067 97.5736 121.364 99.5399 121.461C101.506 121.558 100.911 121.963 103.606 122.451C106.302 122.94 107.38 122.202 107.576 121.837C107.749 121.514 106.497 121.009 105.161 120.433C104.993 120.363 104.825 120.288 104.657 120.215C103.155 119.554 102.312 118.205 101.14 116.954C100.031 115.771 98.9759 111.978 98.9759 111.978L95.3145 111.198C95.3145 111.198 96.3428 114.612 96.6996 116.068C96.9099 116.926 96.5998 117.884 96.3256 118.614C96.1576 119.008 96.0439 119.422 95.9875 119.847Z" fill="#FFB27D"/>
<path d="M99.542 121.459C101.508 121.558 100.913 121.962 103.608 122.45C106.304 122.938 107.382 122.2 107.578 121.835C107.751 121.513 106.499 121.007 105.163 120.432L105.143 120.455C103.812 120.84 102.401 120.857 101.061 120.504C99.2787 120.019 97.5555 118.953 96.3277 118.609C96.1597 119.003 96.046 119.418 95.9896 119.842C95.8775 121.067 97.5773 121.364 99.542 121.459Z" fill="#163560"/>
<path d="M59.5277 76.3909C59.5277 76.3909 83.8598 74.5585 88.4404 77.4513C93.0211 80.3441 100.369 114.051 100.369 114.051C100.369 114.051 99.9155 114.416 98.9028 114.518C97.9679 114.62 95.8864 114.066 95.8864 114.066C95.8864 114.066 85.3275 98.9845 84.5843 95.1856C83.8411 91.3868 84.0218 87.9965 82.3282 87.906C80.6346 87.8156 59.5246 90.4745 56.3306 84.8432C53.1366 79.2119 55.7775 73.64 55.7775 73.64L59.5277 76.3909Z" fill="#163560"/>
<path d="M86.6785 123.758C86.5648 124.979 88.2631 125.276 90.2293 125.374C92.1956 125.472 91.602 125.875 94.2959 126.363C96.9897 126.851 98.071 126.113 98.2658 125.75C98.4387 125.425 97.186 124.92 95.8508 124.346L95.346 124.126C93.844 123.465 93.0011 122.118 91.8295 120.867C90.7201 119.682 89.6669 115.889 89.6669 115.889L86.0039 115.109C86.0039 115.109 87.0322 118.523 87.389 119.98C87.5994 120.837 87.2893 121.797 87.0151 122.525C86.8485 122.919 86.7353 123.334 86.6785 123.758Z" fill="#FFB27D"/>
<path d="M90.232 125.374C92.1982 125.472 91.6046 125.874 94.2985 126.363C96.9924 126.851 98.0736 126.113 98.2684 125.75C98.4413 125.425 97.1887 124.92 95.8534 124.346L95.8332 124.368C94.5019 124.753 93.0913 124.77 91.7511 124.418C89.9687 123.933 88.2455 122.858 87.0177 122.522C86.8511 122.916 86.738 123.331 86.6812 123.755C86.5674 124.979 88.2657 125.276 90.232 125.374Z" fill="#163560"/>
<path d="M54.7599 77.8941C54.7599 77.8941 76.3763 78.9187 80.8401 81.9877C85.3039 85.0568 91.3351 119.024 91.3351 119.024C91.3351 119.024 90.8677 119.37 89.8519 119.44C88.9077 119.506 86.8557 118.871 86.8557 118.871C86.8557 118.871 76.8842 103.39 76.2968 99.5645C75.7094 95.7392 76.0148 92.3582 74.3259 92.2023C72.637 92.0463 51.4397 93.8803 48.4623 88.1289C45.4848 82.3776 54.7599 77.8941 54.7599 77.8941Z" fill="#1C468A"/>
<path d="M60.1287 29.8498C59.091 29.357 57.8929 29.382 57.0609 29.4958C57.2329 29.3284 57.4447 29.2077 57.6763 29.1449C57.1528 29.106 56.0341 29.7064 56.0341 29.7064C48.6241 27.4638 48.1566 37.4024 48.6132 40.6227C49.2551 45.1451 45.7261 45.4134 43.8736 49.2232C39.1215 58.9917 50.0201 66.3509 50.0201 66.3509C50.0777 66.3789 57.3055 52.5293 61.8613 49.0236C62.902 47.2161 63.0906 44.1486 63.1077 43.9069C63.0843 46.3303 62.7727 47.712 62.4611 48.4996C66.2456 44.4574 62.8818 31.1551 60.1287 29.8498Z" fill="#163560"/>
<path d="M53.8531 47.1866C55.1928 47.0759 56.5393 47.0759 57.8791 47.1866C59.0786 47.3151 60.2543 47.6106 61.3722 48.0646C63.2777 48.8615 63.0861 52.2377 59.0803 51.6124C55.0746 50.987 53.5726 48.1878 53.8531 47.1866Z" fill="#FFB27D"/>
<path d="M61.205 49.6489C61.2284 49.6614 61.7752 52.5527 59.1577 52.4373C57.4439 52.3609 53.7341 50.2805 54.0613 48.8084C54.2171 48.1082 55.515 46.2929 55.7752 42.1463L56.0868 42.2305L61.3483 43.6418C61.3483 43.6418 61.1146 45.312 61.0056 46.8933C60.9136 48.222 60.9105 49.4868 61.205 49.6489Z" fill="#FFB27D"/>
<path d="M61.344 43.6418C61.344 43.6418 61.1103 45.312 61.0012 46.8933C58.0253 46.6095 56.6293 43.7744 56.084 42.2289L61.344 43.6418Z" fill="#F4A269"/>
<path d="M54.8987 42.0325C54.8987 42.0325 53.1537 39.6793 52.6209 37.5943C52.2423 36.1065 52.5944 30.4581 58.2672 30.8464C59.4088 30.9199 60.5194 31.2487 61.5173 31.8086C62.798 32.5416 64.688 34.1899 63.0832 39.213L62.6952 40.8988L54.8987 42.0325Z" fill="#163560"/>
<path d="M62.0024 44.6556C62.0024 44.6556 54.9584 45.295 54.6266 40.8988C54.2947 36.5026 53.1636 33.6239 57.6476 33.0297C62.1317 32.4355 63.132 34.0465 63.5994 35.4874C64.0668 36.9284 63.8253 44.3749 62.0024 44.6556Z" fill="#FFB27D"/>
<path d="M60.8509 32.6835C60.8509 32.6835 59.3038 37.9857 56.3964 38.9682C53.4891 39.9506 52.1445 39.252 52.1445 39.252C53.5112 37.8576 54.3516 36.0313 54.5221 34.0854C54.5221 34.0854 59.2134 30.3365 60.8509 32.6835Z" fill="#163560"/>
<path d="M60.4023 33.1372C60.4023 33.1372 61.9292 34.1821 62.3639 35.2753C62.7986 36.3684 63.1289 38.6624 63.7942 38.533C63.7942 38.533 64.9877 34.9197 63.2068 33.0577C61.3169 31.0834 60.4023 33.1372 60.4023 33.1372Z" fill="#163560"/>
<path d="M69.3078 76.7527C68.736 77.4373 66.952 77.6462 65.0434 77.9613C63.543 78.2092 61.9663 78.5196 60.8367 79.1792C58.2908 80.6763 49.9708 85.729 47.5325 85.5029C46.5868 85.414 46.7644 83.6081 47.3362 81.2112C48.2383 77.4264 50.1251 72.1663 50.1251 69.8832C50.1251 68.6356 50.5395 65.6851 51.0926 62.3104C51.1378 62.0375 51.1846 61.763 51.2297 61.487C52.3204 54.9247 53.8426 47.1882 53.8426 47.1882C53.8426 47.1882 55.5346 50.8826 58.8284 50.8826C62.1221 50.8826 61.3586 48.0646 61.3586 48.0646C61.3586 48.0646 64.3672 48.4186 65.0777 49.1859C65.7882 49.9531 67.5908 53.2639 67.9476 54.1668C67.9476 54.1668 68.0208 55.3161 65.1774 55.8635C65.1774 55.8635 65.8707 58.9825 65.9564 61.0628C66.0172 62.5989 64.9079 67.4067 64.59 70.3978C64.4763 71.4567 64.4623 72.2879 64.6336 72.6653C64.8533 73.1487 65.5685 73.629 66.374 74.1016C67.9897 75.0388 69.9871 75.9386 69.3078 76.7527Z" fill="white"/>
<path d="M66.3849 74.1015C68.2094 77.2205 61.4365 78.1562 60.3085 78.8111C57.7626 80.3082 49.9755 85.7336 47.5325 85.5028C46.5868 85.414 46.7644 83.6081 47.3362 81.2112C48.2383 77.4263 50.1251 72.1662 50.1251 69.8832C50.1251 68.6356 50.5395 65.685 51.0926 62.3103L54.028 59.4893C54.028 59.4893 57.1737 67.625 60.1714 68.9584C61.5969 69.5732 63.076 70.055 64.59 70.3978C64.4763 71.4566 64.4623 72.2879 64.6336 72.6652C64.8596 73.1487 65.5763 73.629 66.3849 74.1015Z" fill="#EBEEF2"/>
<path d="M52.9493 49.6225C52.9493 49.6225 50.4393 48.0973 48.0134 50.9917C45.5875 53.8861 49.7382 74.571 53.3326 75.6314C57.3274 76.8119 69.3088 76.7511 69.3088 76.7511L68.9193 75.3086C68.9193 75.3086 56.3599 71.2805 55.8489 70.6302C55.3378 69.9799 54.2254 49.9562 52.9493 49.6225Z" fill="#FFB27D"/>
<path d="M53.8524 47.1866C53.8524 47.1866 48.6984 47.6545 47.2027 49.3496C45.7069 51.0448 45.2676 55.6499 45.2676 55.6499C45.2676 55.6499 49.8062 59.3162 55.2749 57.894L53.8524 47.1866Z" fill="white"/>
<path d="M93.3507 65.4215C93.1388 65.4021 92.9255 65.4021 92.7135 65.4215C93.4224 65.08 94.136 64.7088 94.136 64.7088C94.136 64.7088 93.8119 64.3845 92.592 64.8383C92.46 64.8866 92.3188 64.9042 92.1791 64.8898L93.8929 64.0913C93.5813 63.82 92.7618 64.0523 92.1245 64.2956C91.9008 64.3821 91.6587 64.4103 91.4211 64.3776C91.1834 64.3449 90.958 64.2523 90.7659 64.1085L90.7472 64.0929L90.8314 64.0835C91.8332 63.9275 92.0778 63.3443 91.802 63.4129C91.5262 63.4816 89.8451 63.6281 89.8451 63.6281C89.0848 63.5954 87.5859 64.1974 87.5859 64.1974L88.4507 65.7428C88.4507 65.7428 90.8781 66.1592 91.506 65.9549C91.5574 65.9393 91.6166 65.9159 91.6852 65.8894L93.8836 65.7147C93.8836 65.7147 93.8384 65.4746 93.3507 65.4215Z" fill="#F4A269"/>
<path d="M68.6543 75.3803C68.6543 75.3803 71.8109 74.5257 72.6678 74.6942C73.5248 74.8626 75.1872 75.7702 75.4396 76.1741C75.692 76.578 73.5248 76.5219 72.3142 76.486C71.1035 76.4501 70.6891 76.8993 70.1609 76.8228C69.8795 76.7792 69.595 76.7578 69.3102 76.7589L68.6543 75.3803Z" fill="#FFB27D"/>
<path d="M75.6084 114.121C74.1469 122.558 66.1292 127.903 57.912 127.903H41.3438L42.64 77.2049C42.64 77.2049 58.448 71.6813 62.4179 76.9351C65.8971 81.5371 75.3295 99.7549 75.8265 110.543C75.8843 111.74 75.8111 112.94 75.6084 114.121Z" fill="#7BBDF2"/>
<path d="M75.6057 114.121C74.1443 122.557 66.1265 127.903 57.9094 127.903H44.6504C50.8577 123.693 59.2135 112.061 75.6057 114.121Z" fill="#70B6EF"/>
<path d="M49.9236 127.866L49.5512 127.891C49.2895 127.905 49.0262 127.914 48.7629 127.917H31.9359V127.91L30.9793 127.922C29.2732 127.942 27.4908 127.963 25.8377 127.977H25.0197H24.7221C23.0893 127.988 21.645 127.992 20.6151 127.986C19.2434 127.985 17.8736 127.88 16.5174 127.674C14.9451 127.438 13.41 126.999 11.9508 126.367C11.4538 126.147 10.9691 125.9 10.4987 125.628C9.86962 125.266 9.26906 124.856 8.70227 124.402C7.16258 123.154 5.86458 121.633 4.87259 119.916C4.07186 118.54 3.40657 117.09 2.88607 115.585C2.10768 113.322 1.52491 110.996 1.14417 108.633C0.50693 104.906 0.143904 100.564 0.0332826 95.5458C-0.0103428 93.5237 -0.0134586 91.3924 0.0239346 89.152C0.0821018 85.5652 0.241541 81.6811 0.502255 77.4996C0.866838 71.6219 1.42306 65.1361 2.15846 58.0062C2.82998 51.4876 3.60278 46.9339 4.72769 45.8906C6.38857 44.3592 9.85055 43.7432 12.2577 43.4968C13.7519 43.3409 14.8379 43.3315 14.8379 43.3315C17.781 43.3315 20.3954 45.4462 21.3396 48.5885C23.2638 54.9824 26.6962 66.4242 30.2688 78.3885L30.3218 78.5678L30.945 80.6341C30.9762 80.7402 31.0089 80.8447 31.04 80.946L31.6633 80.6669L31.6851 80.6575C32.5404 80.277 33.5111 79.8606 34.5565 79.4365C35.0988 79.2166 35.6612 78.9936 36.2408 78.7721C37.8752 78.1483 39.6405 77.5245 41.4291 76.9912C42.2222 76.7526 43.0214 76.5234 43.816 76.3347C44.8366 76.082 45.8415 75.8668 46.8355 75.7109L46.9212 75.6969L47.2702 75.6438C51.5237 75.02 55.2163 75.452 56.7432 78.1499C59.1878 82.4681 65.9123 99.7003 66.4031 110.514C66.8736 120.474 58.7266 127.205 49.9236 127.866Z" fill="#4E99D3"/>
<path d="M23.3457 82.9641C23.3457 82.9641 14.8434 48.2876 14.228 45.373C13.9538 44.0739 13.1109 43.6045 12.2617 43.4845C13.7574 43.3285 14.845 43.3192 14.845 43.3192C17.7866 43.3192 20.401 45.4276 21.3452 48.5605C23.4049 55.3926 27.1972 67.9931 31.0393 80.8276C30.8446 80.8229 23.3457 82.9641 23.3457 82.9641Z" fill="#7BBDF2"/>
<path d="M139.04 113.662C140.395 122.361 149.264 127.9 158.36 127.9H176.375L174.973 77.2017C174.973 77.2017 157.783 71.678 153.472 76.9319C149.689 81.5339 139.432 99.7517 138.893 110.535C138.834 111.58 138.883 112.628 139.04 113.662Z" fill="#D7E3F3"/>
<path d="M186.864 82.5726C186.864 82.5726 162.559 70.1561 157.958 78.2669C155.513 82.5742 148.787 99.7549 148.298 110.537C147.815 121.014 156.884 127.903 166.215 127.903H182.784L186.864 82.5726Z" fill="#B1CBEF"/>
<path d="M182.296 89.4592C182.502 90.5149 184.477 91.4865 187.389 92.3598C187.909 92.5126 188.451 92.6623 189.017 92.8089C198.956 95.3493 216.559 96.7669 218.237 96.0183C220.555 94.9828 234.787 44.3748 234.787 44.3748C234.787 44.3748 221.202 43.8648 210.414 43.6153C206.723 43.5311 203.361 43.4765 200.98 43.4843C200.706 43.4848 200.433 43.5035 200.162 43.5405C199.241 43.6513 198.389 44.0876 197.761 44.7709C196.025 46.6423 195.594 50.3288 193.986 54.4084C192.397 58.4412 190.444 63.4752 188.594 68.4702C188.117 69.7568 187.646 71.0418 187.191 72.3065L186.81 73.3716C184.072 81.0333 181.966 87.75 182.296 89.4592Z" fill="#C8DEF8"/>
<path d="M139.041 113.662C140.397 122.361 149.265 127.9 158.361 127.9H167.198C161.302 123.905 155.977 111.584 139.041 113.662Z" fill="#B1CBEF"/>
<path d="M153.225 120.114C156.703 124.948 162.038 128.05 167.98 127.953L193.532 127.967H205.77L191.994 82.5787C191.994 82.5787 157.141 79.1089 152.844 83.7374C150.848 85.8848 149.727 95.6159 149.104 105.425C148.746 110.955 150.354 116.125 153.225 120.114Z" fill="#C6DBF4"/>
<path d="M153.225 120.114C156.702 124.948 162.037 128.05 167.979 127.953L193.531 127.967C190.524 125.441 181.067 118.274 170.949 118.611C163.269 118.871 157.176 118.76 153.225 120.114Z" fill="#BBD3F4"/>
<path d="M171.954 117.717C172.621 118.745 171.256 119.799 169.561 120.8C167.865 121.801 168.579 121.892 166.421 123.571C164.263 125.251 162.964 125.107 162.623 124.876C162.311 124.671 163.191 123.64 164.107 122.512C164.224 122.37 164.338 122.227 164.453 122.083C165.475 120.798 165.595 119.212 166.05 117.561C166.482 116.001 165.651 112.148 165.651 112.148L168.529 109.75C168.529 109.75 169.205 113.249 169.567 114.706C169.78 115.562 170.502 116.265 171.081 116.784C171.412 117.055 171.706 117.368 171.954 117.717Z" fill="#FFB27D"/>
<path d="M169.559 120.803C167.863 121.806 168.577 121.895 166.419 123.574C164.261 125.254 162.962 125.11 162.621 124.879C162.309 124.674 163.189 123.643 164.105 122.515L164.135 122.525C165.492 122.246 166.748 121.604 167.77 120.667C169.122 119.409 170.152 117.662 171.079 116.786C171.411 117.057 171.704 117.372 171.952 117.721C172.622 118.748 171.257 119.802 169.559 120.803Z" fill="#C65447"/>
<path d="M183.113 72.9756C183.113 72.9756 165.682 73.9206 163.211 76.6232C159.627 80.539 165.408 115.78 165.408 115.78C165.408 115.78 169.466 115.435 170.328 114.072C170.328 114.072 175.781 91.3134 172.998 87.5894C170.216 83.8654 192.913 83.7469 192.318 78.8018C191.723 73.8567 183.113 72.9756 183.113 72.9756Z" fill="#163560"/>
<path d="M182.618 50.3163C182.618 50.3163 182.557 49.6052 182.328 56.3203C182.183 60.5964 182.431 64.5683 181.238 66.0935C179.212 68.6869 176.375 73.5275 176.375 73.5275L177.877 74.2106C177.877 74.2106 183.682 70.2479 185.088 68.1567C186.493 66.0654 188.649 54.7811 188.233 51.9382C187.817 49.0953 182.618 50.3163 182.618 50.3163Z" fill="#F4A269"/>
<path d="M162.953 120.926C163.065 122.146 161.368 122.442 159.402 122.54C157.436 122.638 158.029 123.042 155.336 123.53C152.642 124.019 151.56 123.281 151.366 122.916C151.193 122.593 152.445 122.088 153.781 121.512L154.284 121.294C155.787 120.633 156.63 119.284 157.802 118.033C158.911 116.85 159.965 113.057 159.965 113.057L163.626 112.277C163.626 112.277 162.599 115.691 162.241 117.148C162.032 118.005 162.342 118.963 162.616 119.693C162.783 120.087 162.896 120.502 162.953 120.926Z" fill="#FFB27D"/>
<path d="M159.402 122.54C157.436 122.639 158.029 123.043 155.336 123.531C152.642 124.019 151.56 123.281 151.366 122.916C151.193 122.593 152.445 122.088 153.781 121.513L153.801 121.536C155.132 121.921 156.543 121.938 157.883 121.584C159.665 121.099 161.389 120.034 162.616 119.69C162.783 120.084 162.896 120.499 162.953 120.923C163.065 122.146 161.368 122.442 159.402 122.54Z" fill="#C65447"/>
<path d="M194.872 75.0621C194.872 75.0621 173.255 76.0851 168.792 79.1558C164.328 82.2264 158.295 116.192 158.295 116.192C158.295 116.192 158.762 116.538 159.78 116.608C160.724 116.674 162.776 116.039 162.776 116.039C162.776 116.039 172.747 100.558 173.335 96.7326C173.922 92.9072 173.617 89.5262 175.306 89.3687C176.995 89.2112 198.192 91.0483 201.169 85.297C204.147 79.5456 194.872 75.0621 194.872 75.0621Z" fill="#1C468A"/>
<path d="M186.59 48.8569C191.48 51.8854 193.913 43.447 197.558 51.405C197.558 51.405 206.595 48.2565 204.366 41.7363C202.999 37.7253 199.536 38.8965 199.765 36.4341C200.176 31.96 196.236 23.7119 189.089 26.6921C189.089 26.6921 187.302 26.427 186.037 27.5451C179.906 32.9689 185.24 38.2166 182.938 40.378C179.973 43.1523 181.207 48.6588 186.59 48.8569Z" fill="#B5453C"/>
<path d="M195.78 44.3546C194.44 44.243 193.094 44.243 191.754 44.3546C190.552 44.4815 189.374 44.7771 188.255 45.2325C186.349 46.0294 186.541 49.4041 190.547 48.7803C194.552 48.1566 196.061 45.3573 195.78 44.3546Z" fill="#FFB27D"/>
<path d="M188.429 46.817C188.406 46.8295 187.859 49.7208 190.476 49.6054C192.19 49.5289 195.9 47.4486 195.573 45.9749C195.417 45.2763 194.119 43.4595 193.859 39.3144L193.547 39.3986L188.287 40.8099C188.287 40.8099 188.521 42.4801 188.63 44.0614C188.722 45.3901 188.722 46.6548 188.429 46.817Z" fill="#FFB27D"/>
<path d="M188.285 40.8099C188.285 40.8099 188.519 42.4801 188.628 44.0614C191.604 43.7791 192.99 40.9424 193.545 39.3986L188.285 40.8099Z" fill="#F4A269"/>
<path d="M194.166 39.1038C194.166 39.1038 195.665 36.5853 195.985 34.4581C196.212 32.9392 195.293 27.3563 189.688 28.3154C188.559 28.5029 187.487 28.9421 186.551 29.6004C185.351 30.4581 183.637 32.2889 185.739 37.1248L186.295 38.7638L194.166 39.1038Z" fill="#B5453C"/>
<path d="M187.36 42.4301C187.36 42.4301 194.432 42.3568 194.318 37.9498C194.205 33.5427 195.041 30.5641 190.521 30.4237C186.001 30.2834 185.168 31.9832 184.847 33.4694C184.526 34.9556 185.517 42.3366 187.36 42.4301Z" fill="#FFB27D"/>
<path d="M187.301 30.4034C187.301 30.4034 189.375 35.5216 192.366 36.2062C195.357 36.8908 196.191 38.7263 196.191 38.7263C196.191 38.7263 195.47 32.6085 194.912 29.4584C194.912 29.4584 188.694 27.902 187.301 30.4034Z" fill="#B5453C"/>
<path d="M187.788 30.809C187.788 30.809 186.373 32.0036 186.051 33.1342C185.728 34.2648 184.96 36.5214 184.96 36.5214C184.96 36.5214 183.402 33.0453 184.993 31.0133C186.676 28.8581 187.788 30.809 187.788 30.809Z" fill="#B5453C"/>
<path d="M180.321 73.9191C180.893 74.6037 182.679 74.8143 184.586 75.1277C186.088 75.3757 187.664 75.6875 188.793 76.3472C191.338 77.8427 199.658 82.897 202.097 82.6709C203.041 82.5804 202.865 80.7746 202.291 78.3776C201.391 74.5928 199.504 69.3327 199.504 67.0512C199.504 65.8036 199.09 62.8515 198.535 59.4768C198.49 59.2055 198.445 58.931 198.398 58.6534C197.307 52.0927 195.787 44.3546 195.787 44.3546C195.787 44.3546 194.095 48.0506 190.801 48.0506C187.507 48.0506 188.255 45.2326 188.255 45.2326C188.255 45.2326 185.246 45.5866 184.536 46.3523C183.825 47.118 182.023 50.4303 181.664 51.3333C181.664 51.3333 181.591 52.4826 184.435 53.03C184.435 53.03 183.743 56.1489 183.656 58.2293C183.595 59.7669 184.703 64.5748 185.022 67.5658C185.134 68.6247 185.15 69.4559 184.978 69.8333C184.759 70.3152 184.044 70.7971 183.237 71.2696C181.641 72.2053 179.644 73.1066 180.321 73.9191Z" fill="#F99746"/>
<path d="M183.248 71.2695C181.423 74.3884 188.198 75.3241 189.324 75.9791C191.871 77.4746 199.659 82.9 202.1 82.6708C203.044 82.5803 202.868 80.7745 202.295 78.3775C201.394 74.5927 199.507 69.3326 199.507 67.0511C199.507 65.8035 199.093 62.8514 198.538 59.4767L195.603 56.6556C195.603 56.6556 192.459 64.793 189.461 66.1263C188.035 66.7403 186.556 67.2221 185.042 67.5657C185.155 68.6246 185.17 69.4558 184.999 69.8332C184.77 70.3088 184.058 70.797 183.248 71.2695Z" fill="#ED7D2B"/>
<path d="M196.684 46.7904C196.684 46.7904 199.193 45.2653 201.62 48.1581C204.048 51.0509 199.895 71.7373 196.299 72.7978C192.306 73.9783 183.572 75.9495 183.572 75.9495L183.238 74.666C183.238 74.666 193.274 68.4484 193.783 67.7919C194.293 67.1353 195.408 47.1242 196.684 46.7904Z" fill="#FFB27D"/>
<path d="M195.78 44.3546C195.78 44.3546 200.934 44.8225 202.43 46.516C203.925 48.2096 204.365 52.8116 204.365 52.8116C204.365 52.8116 199.826 56.478 194.357 55.0557L195.78 44.3546Z" fill="#F99746"/>
<path d="M176.375 73.5276C176.375 73.5276 174.18 74.7986 173.768 75.9511C173.357 77.1035 173.533 78.7581 173.768 78.8673C174.004 78.9764 175.925 77.3873 176.375 76.9211C176.825 76.4548 176.121 78.0439 176.649 77.9846C177.177 77.9254 177.877 74.2107 177.877 74.2107L176.375 73.5276Z" fill="#F4A269"/>
<path d="M183.237 74.6755C183.237 74.6755 181.503 74.5383 180.929 74.6755C180.356 74.8127 177.385 76.6685 177.877 77.0147C178.369 77.3609 180.619 77.1473 181.105 76.7948C181.591 76.4424 183.065 76.0665 183.57 75.9527C184.075 75.8389 183.237 74.6755 183.237 74.6755Z" fill="#FFB27D"/>
<path d="M174.388 114.121C175.85 122.557 183.866 127.903 192.085 127.903H208.665L207.369 77.2048C207.369 77.2048 191.561 71.6811 187.582 76.935C184.104 81.537 174.67 99.7548 174.183 110.539C174.12 111.737 174.189 112.938 174.388 114.121Z" fill="#DFEBFB"/>
<path d="M174.387 114.121C175.848 122.557 183.864 127.903 192.083 127.903H205.341C199.141 123.693 190.785 112.061 174.387 114.121Z" fill="#CDE0FB"/>
<path d="M200.079 127.866L200.452 127.891C200.714 127.905 200.975 127.914 201.24 127.917H218.067V127.91L219.024 127.922C220.738 127.942 222.511 127.963 224.165 127.977H224.985H225.282C226.915 127.988 228.36 127.992 229.389 127.986C230.761 127.985 232.131 127.88 233.487 127.674C235.059 127.439 236.594 126.999 238.052 126.367C238.549 126.148 239.034 125.901 239.504 125.628C240.134 125.266 240.735 124.856 241.302 124.402C242.839 123.153 244.134 121.632 245.124 119.916C245.925 118.54 246.59 117.09 247.109 115.585C247.888 113.322 248.471 110.996 248.853 108.633C249.49 104.906 249.853 100.564 249.963 95.5458C250.007 93.5237 250.01 91.3924 249.973 89.152C249.914 85.5652 249.754 81.6811 249.493 77.4996C249.13 71.6219 248.572 65.1361 247.837 58.0062C247.167 51.4876 246.394 46.9339 245.268 45.8906C243.608 44.3592 240.146 43.7432 237.737 43.4968C236.242 43.3409 235.156 43.3315 235.156 43.3315C232.214 43.3315 229.598 45.4462 228.654 48.5885C226.731 54.9824 223.299 66.4242 219.726 78.3885C219.708 78.4478 219.691 78.5086 219.672 78.5678C219.464 79.255 219.256 79.9438 219.049 80.6341C219.019 80.7402 218.986 80.8447 218.954 80.946C218.754 80.8571 218.545 80.762 218.33 80.6669L218.309 80.6575C217.452 80.277 216.483 79.8606 215.436 79.4365C214.892 79.2166 214.331 78.9936 213.751 78.7721C212.117 78.1483 210.352 77.5245 208.563 76.9912C207.77 76.7526 206.969 76.5234 206.174 76.3347C205.156 76.082 204.149 75.8668 203.157 75.7109L203.071 75.6969L202.722 75.6438C198.467 75.02 194.776 75.452 193.249 78.1499C190.804 82.4681 184.078 99.7003 183.589 110.514C183.128 120.474 191.275 127.205 200.079 127.866Z" fill="#A6C0E3"/>
<path d="M226.657 82.9641C226.657 82.9641 235.161 48.2876 235.776 45.373C236.049 44.0739 236.892 43.6045 237.741 43.4845C236.247 43.3285 235.159 43.3192 235.159 43.3192C232.218 43.3192 229.602 45.4276 228.657 48.5605C226.598 55.3926 222.805 67.9931 218.965 80.8276C219.156 80.8229 226.657 82.9641 226.657 82.9641Z" fill="#DFEBFB"/>
<path d="M73.6275 16.8345C73.1601 5.17744 82.9181 -0.0078125 92.8974 -0.0078125C102.877 -0.0078125 113.739 2.57935 114.681 18.0821C115.287 28.0534 109.975 34.1883 94.683 34.1883C89.5258 34.1883 85.5185 33.3743 82.4476 31.9224L74.8038 38.7217L78.5681 29.329C75.2323 26.2319 73.83 21.8638 73.6275 16.8345Z" fill="white"/>
<path d="M174.719 21.0451C175.094 11.7272 167.291 7.58838 159.313 7.58838C151.334 7.58838 142.652 9.65625 141.9 22.0478C141.417 30.0183 145.661 34.9228 157.885 34.9228C162.01 34.9228 165.208 34.2725 167.667 33.1107L173.778 38.5455L170.775 31.0335C173.435 28.5586 174.557 25.067 174.719 21.0451Z" fill="white"/>
</g>
<defs>
<clipPath id="clip0_1892_797">
<rect width="250" height="128" fill="white"/>
</clipPath>
</defs>
</svg>
