<svg width="371" height="120" viewBox="0 0 371 120" fill="none" xmlns="http://www.w3.org/2000/svg">
<g clip-path="url(#clip0_1892_263)">
<path d="M97.6325 96.4289C97.6325 96.4289 94.1186 99.0276 93.8789 103.672L94.517 103.73C94.517 103.73 95.6388 98.9265 97.6672 97.0482C99.6956 95.17 97.6325 96.4289 97.6325 96.4289Z" fill="#C8DBF4"/>
<path d="M86.3812 85.7585C86.3812 85.7585 92.9876 82.0583 89.9053 77.0386C89.9053 77.0386 87.438 73.9549 84.796 73.1623C84.796 73.1623 86.2051 80.6493 84.796 80.8254C83.387 81.0015 83.8259 72.3697 83.8259 72.3697C83.8259 72.3697 76.8672 69.0217 74.1372 69.2859C74.1372 69.2859 78.4524 76.5968 77.0434 76.4207C75.6343 76.2446 70.7893 68.8456 70.7893 68.8456C70.7893 68.8456 63.6545 67.5246 62.5096 71.7532C61.3648 75.9818 63.2142 78.0954 64.271 78.3596C65.3277 78.6238 72.1102 78.5357 71.9341 79.4164C71.758 80.297 67.1786 81.7061 64.6232 80.9135C64.6232 80.9135 67.4428 87.8721 71.1415 87.5198C74.8403 87.1676 75.9866 84.8779 78.2763 84.7017C80.566 84.5256 82.2407 85.1349 81.0958 85.7585C79.951 86.3822 76.0746 85.9606 74.2253 87.5328C72.3759 89.105 70.8773 90.0752 74.3133 90.7797C77.7493 91.4843 83.9139 91.0439 85.1411 88.4005L86.3812 85.7585Z" fill="#C8DBF4"/>
<path d="M65.7656 73.0743C65.7656 73.0743 84.2652 79.0642 86.3788 85.7586C86.3788 85.7586 86.2907 88.7543 88.1401 92.1888V93.5142C88.1401 93.5142 86.2026 89.0228 85.1458 88.4049C85.1458 88.4006 89.2849 82.5868 65.7656 73.0743Z" fill="#C8DBF4"/>
<path d="M88.1395 92.1888C88.1395 92.1888 90.9923 96.5199 89.3667 101.795L88.6318 101.597C88.6318 101.597 89.345 95.7894 87.8522 92.8674C86.3594 89.9453 88.1395 92.1888 88.1395 92.1888Z" fill="#C8DBF4"/>
<path d="M94.5676 89.1325C94.5676 89.1325 90.8139 94.8438 92.9506 101.795L93.9179 101.534C93.9179 101.534 92.9781 93.8823 94.9458 90.0276C96.9136 86.1729 94.5676 89.1325 94.5676 89.1325Z" fill="#D4E4F8"/>
<path d="M102.819 105.208C101.563 113.261 93.3459 118.389 84.9176 118.389H68.2227L69.5292 71.4544C69.5292 71.4544 85.4575 66.3408 89.4523 71.2046C92.9576 75.465 102.463 92.3303 102.962 102.313C103.015 103.281 102.967 104.251 102.819 105.208Z" fill="#7BBDF2"/>
<path d="M58.5098 76.4266C58.5098 76.4266 81.0315 64.9289 85.2904 72.4362C87.5556 76.4237 93.788 92.3289 94.2413 102.311C94.6889 112.009 86.2865 118.388 77.6388 118.388H62.2966L58.5098 76.4266Z" fill="#4E99D3"/>
<path d="M62.7364 82.8019C62.5473 83.7793 60.7239 84.6787 58.0184 85.4872C57.5372 85.6287 57.0343 85.7673 56.5097 85.903C47.3004 88.2547 30.988 89.5671 29.4331 88.8741C27.2849 87.9155 14.0996 41.0645 14.0996 41.0645C14.0996 41.0645 26.6858 40.5925 36.682 40.3615C40.1021 40.2835 43.2176 40.233 45.4236 40.2402C45.6776 40.2406 45.9312 40.258 46.1829 40.2922C47.036 40.3951 47.8244 40.799 48.4062 41.4312C50.016 43.1637 50.4159 46.5766 51.9058 50.3533C53.3783 54.0867 55.1873 58.747 56.9024 63.3711C57.3442 64.5622 57.7802 65.7518 58.2017 66.9226C58.3216 67.2533 58.4385 67.5824 58.5569 67.9087C61.0906 75.0016 63.0425 81.2196 62.7364 82.8019Z" fill="#70B6EF"/>
<path d="M102.819 105.208C101.563 113.261 93.3455 118.389 84.9172 118.389H76.7285C82.1857 114.69 87.126 103.284 102.819 105.208Z" fill="#70B6EF"/>
<path d="M89.6731 111.181C86.4494 115.656 81.5076 118.528 76.0013 118.438L52.3246 118.451H40.9844L53.7438 76.4323C53.7438 76.4323 86.0379 73.2201 90.0211 77.505C91.869 79.4929 92.9085 88.5016 93.486 97.5825C93.8223 102.702 92.3324 107.488 89.6731 111.181Z" fill="#70B6EF"/>
<path d="M89.6727 111.181C86.4489 115.656 81.5072 118.528 76.0009 118.438L52.3242 118.451C55.1091 116.112 63.8738 109.477 73.2492 109.789C80.3652 110.03 86.0101 109.928 89.6727 111.181Z" fill="#4E99D3"/>
<path d="M58.8451 45.7133C58.8451 45.7133 61.822 47.5771 65.3244 52.7182C68.3922 57.2196 69.9803 58.6792 71.7229 59.1094C73.4654 59.5396 82.0063 59.3072 82.0063 59.3072L82.0265 60.813C82.0265 60.813 70.7945 64.0598 68.8196 62.8168C66.8446 61.5738 57.6771 53.1195 56.9639 50.5555C56.2507 47.9915 58.8451 45.7133 58.8451 45.7133Z" fill="#F4A269"/>
<path d="M88.942 110.934C88.8381 112.063 90.4117 112.338 92.2337 112.428C94.0556 112.518 93.5041 112.893 96.0017 113.345C98.4993 113.797 99.4984 113.114 99.6803 112.776C99.8405 112.477 98.6798 112.009 97.4425 111.477C97.2866 111.412 97.1307 111.342 96.9748 111.274C95.5831 110.662 94.802 109.414 93.7164 108.256C92.6884 107.16 91.7111 103.649 91.7111 103.649L88.3184 102.927C88.3184 102.927 89.2712 106.087 89.6018 107.436C89.7967 108.23 89.5094 109.116 89.2553 109.792C89.0997 110.157 88.9943 110.541 88.942 110.934Z" fill="#FFB27D"/>
<path d="M92.2379 112.427C94.0599 112.518 93.5084 112.891 96.006 113.343C98.5036 113.795 99.5026 113.112 99.6845 112.774C99.8448 112.476 98.684 112.008 97.4468 111.475L97.428 111.497C96.1944 111.853 94.8872 111.869 93.6455 111.542C91.9939 111.093 90.3972 110.107 89.2596 109.787C89.1039 110.152 88.9985 110.536 88.9463 110.929C88.8423 112.063 90.4174 112.338 92.2379 112.427Z" fill="#163560"/>
<path d="M55.1557 70.7037C55.1557 70.7037 77.702 69.0073 81.9464 71.6854C86.1909 74.3635 92.9994 105.568 92.9994 105.568C92.9994 105.568 92.5793 105.905 91.6409 106.001C90.7747 106.095 88.8459 105.582 88.8459 105.582C88.8459 105.582 79.0619 91.62 78.3733 88.1031C77.6846 84.5863 77.8521 81.4477 76.2828 81.3639C74.7135 81.2802 55.1528 83.7417 52.1933 78.5285C49.2337 73.3153 51.6807 68.157 51.6807 68.157L55.1557 70.7037Z" fill="#163560"/>
<path d="M80.3165 114.555C80.2111 115.685 81.7848 115.959 83.6067 116.05C85.4287 116.141 84.8786 116.514 87.3748 116.966C89.8709 117.417 90.8729 116.735 91.0533 116.398C91.2136 116.098 90.0528 115.63 88.8156 115.099L88.3478 114.895C86.9561 114.283 86.1751 113.036 85.0894 111.878C84.0615 110.781 83.0855 107.27 83.0855 107.27L79.6914 106.548C79.6914 106.548 80.6442 109.708 80.9749 111.057C81.1698 111.851 80.8825 112.738 80.6284 113.413C80.474 113.778 80.3691 114.162 80.3165 114.555Z" fill="#FFB27D"/>
<path d="M83.6077 116.05C85.4296 116.141 84.8796 116.514 87.3758 116.966C89.8719 117.417 90.8738 116.735 91.0543 116.398C91.2145 116.098 90.0538 115.63 88.8166 115.099L88.7978 115.119C87.5642 115.475 86.2572 115.491 85.0153 115.165C83.3637 114.716 81.767 113.722 80.6293 113.41C80.475 113.775 80.3701 114.159 80.3175 114.552C80.2121 115.685 81.7857 115.959 83.6077 116.05Z" fill="#163560"/>
<path d="M50.7408 72.0955C50.7408 72.0955 70.7707 73.044 74.9069 75.8852C79.0431 78.7264 84.6316 110.172 84.6316 110.172C84.6316 110.172 84.1985 110.492 83.2572 110.557C82.3823 110.618 80.481 110.03 80.481 110.03C80.481 110.03 71.2413 95.6985 70.697 92.1571C70.1528 88.6157 70.4357 85.4858 68.8708 85.3414C67.3058 85.197 47.6643 86.8948 44.9054 81.5705C42.1464 76.2461 50.7408 72.0955 50.7408 72.0955Z" fill="#1C468A"/>
<path d="M55.7148 27.6179C54.7533 27.1617 53.6431 27.1848 52.8722 27.2902C53.0316 27.1352 53.2278 27.0234 53.4424 26.9654C52.9573 26.9293 51.9208 27.4851 51.9208 27.4851C45.0545 25.4091 44.6214 34.6098 45.0444 37.591C45.6392 41.7777 42.3693 42.026 40.6527 45.553C36.2494 54.5963 46.3481 61.4092 46.3481 61.4092C46.4015 61.4351 53.0988 48.6136 57.3202 45.3682C58.2846 43.695 58.4593 40.8552 58.4752 40.6314C58.4535 42.8749 58.1648 44.1541 57.876 44.8831C61.3828 41.1411 58.2658 28.8263 55.7148 27.6179Z" fill="#163560"/>
<path d="M49.8995 43.6675C51.1409 43.5651 52.3886 43.5651 53.63 43.6675C54.7415 43.7865 55.831 44.0601 56.8668 44.4803C58.6324 45.2181 58.4548 48.3437 54.7431 47.7648C51.0313 47.1858 49.6396 44.5944 49.8995 43.6675Z" fill="#FFB27D"/>
<path d="M56.7104 45.9471C56.7321 45.9587 57.2388 48.6353 54.8134 48.5284C53.2254 48.4577 49.7879 46.5318 50.0911 45.169C50.2355 44.5207 51.4381 42.8403 51.6792 39.0015L51.9679 39.0794L56.8433 40.386C56.8433 40.386 56.6267 41.9322 56.5257 43.3961C56.4405 44.6261 56.4376 45.797 56.7104 45.9471Z" fill="#FFB27D"/>
<path d="M56.8427 40.386C56.8427 40.386 56.6261 41.9322 56.5251 43.3961C53.7676 43.1334 52.474 40.5087 51.9688 39.078L56.8427 40.386Z" fill="#F4A269"/>
<path d="M50.8682 38.8961C50.8682 38.8961 49.2513 36.7175 48.7575 34.7873C48.4067 33.41 48.733 28.181 53.9895 28.5404C55.0473 28.6085 56.0764 28.9129 57.001 29.4312C58.1878 30.1097 59.939 31.6357 58.452 36.2859L58.0925 37.8465L50.8682 38.8961Z" fill="#163560"/>
<path d="M57.4493 41.3244C57.4493 41.3244 50.9224 41.9163 50.6149 37.8465C50.3073 33.7767 49.2592 31.1117 53.4142 30.5616C57.5692 30.0116 58.496 31.5029 58.9291 32.8369C59.3622 34.1709 59.1385 41.0645 57.4493 41.3244Z" fill="#FFB27D"/>
<path d="M56.3858 30.2411C56.3858 30.2411 54.9522 35.1497 52.2582 36.0592C49.5643 36.9688 48.3184 36.322 48.3184 36.322C49.5848 35.0311 50.3635 33.3404 50.5214 31.539C50.5214 31.539 54.8684 28.0683 56.3858 30.2411Z" fill="#163560"/>
<path d="M55.9688 30.6612C55.9688 30.6612 57.3836 31.6285 57.7864 32.6405C58.1892 33.6526 58.4952 35.7763 59.1117 35.6564C59.1117 35.6564 60.2176 32.3114 58.5674 30.5876C56.8162 28.7599 55.9688 30.6612 55.9688 30.6612Z" fill="#163560"/>
<path d="M64.2212 71.0386C63.6914 71.6724 62.0383 71.8658 60.2698 72.1575C58.8795 72.387 57.4185 72.6743 56.3718 73.285C54.0128 74.6709 46.3035 79.3485 44.0441 79.1392C43.1677 79.0569 43.3323 77.3851 43.8622 75.1661C44.6981 71.6623 46.4464 66.7927 46.4464 64.6791C46.4464 63.5241 46.8304 60.7927 47.3429 57.6685C47.3848 57.4158 47.4281 57.1618 47.47 56.9062C48.4806 50.8311 49.891 43.6689 49.891 43.6689C49.891 43.6689 51.4589 47.0891 54.5109 47.0891C57.5629 47.0891 56.8555 44.4803 56.8555 44.4803C56.8555 44.4803 59.6432 44.808 60.3016 45.5183C60.9599 46.2286 62.6303 49.2936 62.9609 50.1295C62.9609 50.1295 63.0287 51.1935 60.394 51.7002C60.394 51.7002 61.0364 54.5876 61.1158 56.5135C61.1721 57.9356 60.1442 62.3865 59.8497 65.1555C59.7443 66.1358 59.7313 66.9053 59.8901 67.2547C60.0937 67.7022 60.7563 68.1469 61.5027 68.5843C62.9998 69.452 64.8507 70.285 64.2212 71.0386Z" fill="white"/>
<path d="M61.5109 68.5843C63.2014 71.4717 56.9257 72.3379 55.8804 72.9443C53.5214 74.3302 46.3058 79.3528 44.0421 79.1392C43.1658 79.0569 43.3304 77.3851 43.8602 75.1661C44.6961 71.6623 46.4444 66.7927 46.4444 64.6791C46.4444 63.5241 46.8285 60.7926 47.341 57.6685L50.0609 55.0568C50.0609 55.0568 52.9757 62.5886 55.7534 63.823C57.0743 64.3922 58.4449 64.8382 59.8477 65.1555C59.7423 66.1358 59.7293 66.9053 59.8882 67.2546C60.0975 67.7022 60.7616 68.1468 61.5109 68.5843Z" fill="#EBEEF2"/>
<path d="M49.0632 45.9226C49.0632 45.9226 46.7374 44.5107 44.4896 47.1902C42.2417 49.8697 46.0877 69.0189 49.4183 70.0006C53.12 71.0935 64.222 71.0372 64.222 71.0372L63.8611 69.7018C63.8611 69.7018 52.2234 65.9727 51.7499 65.3707C51.2764 64.7687 50.2456 46.2315 49.0632 45.9226Z" fill="#FFB27D"/>
<path d="M49.8981 43.6675C49.8981 43.6675 45.1224 44.1006 43.7364 45.6699C42.3505 47.2392 41.9434 51.5024 41.9434 51.5024C41.9434 51.5024 46.1489 54.8966 51.2162 53.5799L49.8981 43.6675Z" fill="white"/>
<path d="M86.4979 60.5487C86.3015 60.5307 86.1039 60.5307 85.9075 60.5487C86.5644 60.2326 87.2256 59.889 87.2256 59.889C87.2256 59.889 86.9253 59.5887 85.7949 60.0088C85.6726 60.0536 85.5418 60.0698 85.4123 60.0564L87.0003 59.3173C86.7116 59.0661 85.9522 59.2812 85.3617 59.5064C85.1544 59.5865 84.9301 59.6126 84.7099 59.5823C84.4897 59.552 84.2808 59.4663 84.1028 59.3331L84.0855 59.3187L84.1635 59.31C85.0918 59.1657 85.3184 58.6257 85.0629 58.6893C84.8074 58.7528 83.2496 58.8885 83.2496 58.8885C82.5451 58.8582 81.1562 59.4154 81.1562 59.4154L81.9575 60.8461C81.9575 60.8461 84.2068 61.2316 84.7886 61.0425C84.8362 61.028 84.8911 61.0064 84.9546 60.9818L86.9917 60.8202C86.9917 60.8202 86.9498 60.5978 86.4979 60.5487Z" fill="#F4A269"/>
<path d="M63.6152 69.7682C63.6152 69.7682 66.5402 68.977 67.3342 69.133C68.1282 69.2889 69.6687 70.1291 69.9025 70.503C70.1364 70.8769 68.1282 70.825 67.0065 70.7918C65.8847 70.7586 65.5007 71.1744 65.0113 71.1036C64.7505 71.0632 64.4869 71.0434 64.223 71.0444L63.6152 69.7682Z" fill="#FFB27D"/>
<path d="M70.0584 105.633C68.7042 113.443 61.275 118.392 53.6609 118.392H38.3086L39.5098 71.4573C39.5098 71.4573 54.1575 66.3437 57.8361 71.2075C61.0599 75.4679 69.8 92.3332 70.2606 102.321C70.3141 103.429 70.2463 104.539 70.0584 105.633Z" fill="#7BBDF2"/>
<path d="M70.0584 105.633C68.7042 113.443 61.275 118.392 53.6609 118.392H41.375C47.1267 114.494 54.8693 103.725 70.0584 105.633Z" fill="#70B6EF"/>
<path d="M46.2594 118.357L45.9144 118.38C45.6718 118.393 45.4278 118.402 45.1838 118.405H29.5919V118.398L28.7055 118.409C27.1246 118.428 25.473 118.447 23.9412 118.46H23.1833H22.9076C21.3946 118.47 20.0562 118.474 19.102 118.469C17.8309 118.467 16.5617 118.371 15.305 118.18C13.8481 117.962 12.4257 117.555 11.0736 116.97C10.6131 116.766 10.1639 116.538 9.72802 116.286C9.14511 115.95 8.58863 115.571 8.06344 115.151C6.63675 113.995 5.43402 112.587 4.51483 110.997C3.77287 109.724 3.15641 108.381 2.67411 106.988C1.95285 104.893 1.41285 102.74 1.06005 100.552C0.469582 97.1018 0.133199 93.0825 0.0306965 88.4367C-0.00972709 86.5647 -0.0126141 84.5916 0.0220346 82.5175C0.0759328 79.197 0.22367 75.6012 0.465249 71.7302C0.803075 66.2889 1.31847 60.2846 1.9999 53.684C2.62213 47.6493 3.33821 43.4337 4.38056 42.4679C5.91955 41.0501 9.12744 40.4799 11.358 40.2518C12.7425 40.1074 13.7487 40.0988 13.7487 40.0988C16.4759 40.0988 18.8984 42.0564 19.7733 44.9655C21.5563 50.8846 24.7367 61.4771 28.0471 72.5531L28.0962 72.7191L28.6737 74.632C28.7026 74.7302 28.7329 74.8269 28.7618 74.9208L29.3392 74.6624L29.3594 74.6537C30.152 74.3014 31.0515 73.916 32.0202 73.5233C32.5226 73.3197 33.0438 73.1133 33.5808 72.9083C35.0953 72.3308 36.731 71.7533 38.3883 71.2596C39.1232 71.0387 39.8638 70.8265 40.6001 70.6518C41.5457 70.4179 42.4769 70.2187 43.398 70.0743L43.4774 70.0613L43.8008 70.0122C47.7421 69.4347 51.1636 69.8346 52.5785 72.3322C54.8436 76.3298 61.0746 92.2827 61.5294 102.293C61.9654 111.514 54.4163 117.745 46.2594 118.357Z" fill="#4E99D3"/>
<path d="M21.6318 76.7889C21.6318 76.7889 13.7535 44.6868 13.1833 41.9885C12.9292 40.7859 12.1481 40.3514 11.3613 40.2402C12.7473 40.0958 13.755 40.0872 13.755 40.0872C16.4807 40.0872 18.9032 42.039 19.7781 44.9394C21.6867 51.2643 25.2006 62.9294 28.7608 74.811C28.5803 74.8067 21.6318 76.7889 21.6318 76.7889Z" fill="#7BBDF2"/>
<path d="M128.834 105.208C130.09 113.261 138.307 118.389 146.736 118.389H163.429L162.13 71.4544C162.13 71.4544 146.202 66.3408 142.207 71.2046C138.702 75.465 129.198 92.3303 128.698 102.313C128.643 103.28 128.689 104.25 128.834 105.208Z" fill="#DFEBFB"/>
<path d="M173.149 76.4265C173.149 76.4265 150.628 64.9318 146.365 72.4405C144.099 76.428 137.867 92.3332 137.414 102.315C136.966 112.014 145.37 118.392 154.016 118.392H169.368L173.149 76.4265Z" fill="#B1CBEF"/>
<path d="M168.914 82.8019C169.105 83.7793 170.936 84.6787 173.634 85.4872C174.115 85.6287 174.618 85.7673 175.143 85.903C184.352 88.2547 200.663 89.5671 202.218 88.8741C204.366 87.9155 217.553 41.0645 217.553 41.0645C217.553 41.0645 204.965 40.5925 194.969 40.3615C191.549 40.2835 188.433 40.233 186.227 40.2402C185.974 40.2406 185.721 40.2579 185.469 40.2922C184.616 40.3948 183.827 40.7987 183.245 41.4312C181.636 43.1637 181.236 46.5766 179.747 50.3533C178.274 54.0867 176.465 58.747 174.75 63.3711C174.308 64.5622 173.872 65.7518 173.451 66.9226L173.097 67.9087C170.56 75.0016 168.608 81.2196 168.914 82.8019Z" fill="#CDE3FD"/>
<path d="M128.834 105.208C130.09 113.261 138.308 118.389 146.736 118.389H154.925C149.462 114.69 144.527 103.284 128.834 105.208Z" fill="#B1CBEF"/>
<path d="M141.98 111.181C145.202 115.656 150.145 118.528 155.652 118.438L179.328 118.451H190.668L177.903 76.4323C177.903 76.4323 145.608 73.2201 141.626 77.505C139.777 79.4929 138.739 88.5016 138.161 97.5825C137.829 102.702 139.319 107.488 141.98 111.181Z" fill="#CDE3FD"/>
<path d="M141.979 111.181C145.201 115.656 150.144 118.528 155.65 118.438L179.327 118.451C176.541 116.112 167.777 109.477 158.402 109.789C151.286 110.03 145.64 109.928 141.979 111.181Z" fill="#BBD3F4"/>
<path d="M159.334 108.962C159.952 109.913 158.688 110.889 157.117 111.816C155.546 112.743 156.207 112.827 154.208 114.381C152.208 115.936 151.004 115.803 150.688 115.59C150.399 115.399 151.215 114.445 152.064 113.401C152.172 113.27 152.278 113.137 152.385 113.004C153.332 111.814 153.443 110.346 153.864 108.817C154.264 107.374 153.495 103.806 153.495 103.806L156.161 101.586C156.161 101.586 156.788 104.826 157.123 106.174C157.321 106.967 157.989 107.618 158.526 108.098C158.833 108.349 159.105 108.639 159.334 108.962Z" fill="#FFB27D"/>
<path d="M157.115 111.819C155.544 112.747 156.205 112.829 154.206 114.384C152.206 115.939 151.002 115.806 150.686 115.593C150.397 115.402 151.213 114.448 152.062 113.404L152.089 113.413C153.347 113.154 154.511 112.56 155.458 111.693C156.711 110.528 157.665 108.911 158.524 108.1C158.831 108.351 159.103 108.642 159.333 108.966C159.953 109.916 158.689 110.892 157.115 111.819Z" fill="#C65447"/>
<path d="M169.672 67.542C169.672 67.542 153.52 68.4169 151.23 70.9188C147.91 74.5439 153.266 107.169 153.266 107.169C153.266 107.169 157.027 106.85 157.825 105.588C157.825 105.588 162.878 84.5185 160.299 81.0709C157.721 77.6234 178.753 77.5136 178.201 72.9356C177.65 68.3577 169.672 67.542 169.672 67.542Z" fill="#163560"/>
<path d="M169.217 46.565C169.217 46.565 169.16 45.9067 168.948 52.1233C168.814 56.0819 169.043 59.759 167.937 61.1709C166.061 63.5718 163.432 68.0531 163.432 68.0531L164.823 68.6854C164.823 68.6854 170.203 65.017 171.505 63.0809C172.807 61.1449 174.805 50.6983 174.42 48.0665C174.034 45.4346 169.217 46.565 169.217 46.565Z" fill="#F4A269"/>
<path d="M150.992 111.933C151.096 113.062 149.524 113.336 147.702 113.427C145.88 113.518 146.43 113.892 143.934 114.344C141.437 114.796 140.436 114.113 140.255 113.775C140.095 113.476 141.256 113.008 142.493 112.476L142.959 112.274C144.352 111.661 145.133 110.413 146.219 109.255C147.247 108.159 148.223 104.648 148.223 104.648L151.616 103.926C151.616 103.926 150.664 107.086 150.332 108.435C150.139 109.229 150.426 110.115 150.68 110.791C150.835 111.156 150.939 111.54 150.992 111.933Z" fill="#FFB27D"/>
<path d="M147.702 113.427C145.88 113.518 146.43 113.892 143.934 114.344C141.437 114.796 140.436 114.113 140.255 113.775C140.095 113.476 141.256 113.008 142.493 112.476L142.512 112.497C143.745 112.854 145.052 112.869 146.294 112.542C147.946 112.093 149.542 111.107 150.68 110.788C150.835 111.153 150.939 111.537 150.992 111.93C151.096 113.062 149.524 113.336 147.702 113.427Z" fill="#C65447"/>
<path d="M180.568 69.4736C180.568 69.4736 160.538 70.4207 156.402 73.2633C152.266 76.106 146.676 107.55 146.676 107.55C146.676 107.55 147.109 107.87 148.052 107.935C148.927 107.996 150.828 107.408 150.828 107.408C150.828 107.408 160.068 93.0767 160.612 89.5353C161.156 85.9939 160.873 82.8639 162.438 82.7181C164.003 82.5723 183.645 84.273 186.404 78.9486C189.162 73.6243 180.568 69.4736 180.568 69.4736Z" fill="#1C468A"/>
<path d="M172.894 45.2137C177.426 48.0174 179.679 40.2055 183.057 47.5727C183.057 47.5727 191.431 44.6579 189.365 38.6218C188.099 34.9086 184.889 35.9928 185.102 33.7132C185.483 29.5712 181.832 21.9355 175.209 24.6944C175.209 24.6944 173.554 24.449 172.381 25.4841C166.7 30.5053 171.644 35.3634 169.51 37.3643C166.762 39.9327 167.906 45.0304 172.894 45.2137Z" fill="#B5453C"/>
<path d="M181.411 41.0458C180.17 40.9425 178.922 40.9425 177.681 41.0458C176.567 41.1633 175.476 41.4369 174.438 41.8586C172.673 42.5963 172.85 45.7205 176.562 45.143C180.274 44.5655 181.671 41.9741 181.411 41.0458Z" fill="#FFB27D"/>
<path d="M174.598 43.3253C174.577 43.3369 174.07 46.0135 176.495 45.9067C178.083 45.8359 181.521 43.91 181.218 42.5457C181.073 41.899 179.871 40.2171 179.629 36.3797L179.341 36.4577L174.467 37.7642C174.467 37.7642 174.683 39.3104 174.784 40.7743C174.87 42.0044 174.87 43.1752 174.598 43.3253Z" fill="#FFB27D"/>
<path d="M174.467 37.7642C174.467 37.7642 174.683 39.3104 174.784 40.7743C177.542 40.513 178.827 37.8869 179.341 36.4576L174.467 37.7642Z" fill="#F4A269"/>
<path d="M179.915 36.1849C179.915 36.1849 181.303 33.8533 181.599 31.8841C181.81 30.4779 180.958 25.3095 175.765 26.1973C174.719 26.3709 173.726 26.7775 172.858 27.387C171.746 28.181 170.158 29.8759 172.106 34.3528L172.621 35.8701L179.915 36.1849Z" fill="#B5453C"/>
<path d="M173.611 39.2642C173.611 39.2642 180.164 39.1963 180.058 35.1164C179.953 31.0365 180.728 28.2791 176.54 28.1491C172.352 28.0192 171.579 29.5928 171.282 30.9687C170.985 32.3445 171.903 39.1776 173.611 39.2642Z" fill="#FFB27D"/>
<path d="M173.555 28.1304C173.555 28.1304 175.476 32.8686 178.248 33.5024C181.02 34.1362 181.792 35.8354 181.792 35.8354C181.792 35.8354 181.124 30.1718 180.607 27.2555C180.607 27.2555 174.845 25.8147 173.555 28.1304Z" fill="#B5453C"/>
<path d="M174.005 28.5058C174.005 28.5058 172.694 29.6117 172.395 30.6584C172.096 31.705 171.385 33.7941 171.385 33.7941C171.385 33.7941 169.941 30.5761 171.415 28.6949C172.974 26.6997 174.005 28.5058 174.005 28.5058Z" fill="#B5453C"/>
<path d="M167.085 68.4154C167.615 69.0492 169.269 69.2441 171.036 69.5342C172.428 69.7638 173.889 70.0525 174.934 70.6632C177.293 72.0477 185.003 76.7267 187.262 76.5174C188.137 76.4337 187.974 74.7619 187.442 72.5429C186.608 69.039 184.86 64.1694 184.86 62.0573C184.86 60.9024 184.476 58.1694 183.962 55.0453C183.92 54.7941 183.878 54.54 183.835 54.283C182.824 48.2094 181.415 41.0457 181.415 41.0457C181.415 41.0457 179.847 44.4673 176.795 44.4673C173.743 44.4673 174.436 41.8585 174.436 41.8585C174.436 41.8585 171.648 42.1862 170.99 42.8951C170.332 43.604 168.661 46.6704 168.329 47.5063C168.329 47.5063 168.261 48.5703 170.896 49.077C170.896 49.077 170.255 51.9644 170.174 53.8903C170.118 55.3138 171.145 59.7647 171.441 62.5337C171.544 63.514 171.559 64.2835 171.4 64.6329C171.197 65.079 170.534 65.5251 169.786 65.9625C168.308 66.8287 166.457 67.6632 167.085 68.4154Z" fill="#F99746"/>
<path d="M169.797 65.9626C168.107 68.85 174.384 69.7162 175.428 70.3226C177.788 71.7071 185.004 76.7297 187.266 76.5175C188.141 76.4338 187.978 74.762 187.446 72.543C186.612 69.0392 184.864 64.1696 184.864 62.0574C184.864 60.9025 184.48 58.1695 183.966 55.0454L181.246 52.4337C181.246 52.4337 178.332 59.967 175.555 61.2013C174.233 61.7697 172.863 62.2157 171.46 62.5338C171.564 63.5141 171.579 64.2836 171.42 64.633C171.208 65.0733 170.548 65.5252 169.797 65.9626Z" fill="#ED7D2B"/>
<path d="M182.246 43.3008C182.246 43.3008 184.571 41.8889 186.82 44.567C189.069 47.245 185.222 66.3957 181.89 67.3774C178.189 68.4703 170.096 70.2951 170.096 70.2951L169.787 69.107C169.787 69.107 179.086 63.3509 179.558 62.7431C180.03 62.1353 181.064 43.6098 182.246 43.3008Z" fill="#FFB27D"/>
<path d="M181.412 41.0457C181.412 41.0457 186.188 41.4788 187.574 43.0467C188.959 44.6145 189.367 48.8749 189.367 48.8749C189.367 48.8749 185.161 52.269 180.094 50.9524L181.412 41.0457Z" fill="#F99746"/>
<path d="M163.429 68.053C163.429 68.053 161.395 69.2297 161.014 70.2966C160.633 71.3634 160.796 72.8952 161.014 72.9963C161.232 73.0973 163.012 71.6262 163.429 71.1945C163.846 70.7629 163.194 72.234 163.683 72.1791C164.173 72.1243 164.821 68.6854 164.821 68.6854L163.429 68.053Z" fill="#F4A269"/>
<path d="M169.789 69.1156C169.789 69.1156 168.182 68.9886 167.65 69.1156C167.119 69.2427 164.366 70.9607 164.822 71.2812C165.278 71.6017 167.363 71.4039 167.814 71.0776C168.264 70.7513 169.63 70.4034 170.098 70.298C170.565 70.1926 169.789 69.1156 169.789 69.1156Z" fill="#FFB27D"/>
<path d="M161.588 105.633C162.943 113.443 170.37 118.392 177.986 118.392H193.35L192.149 71.4573C192.149 71.4573 177.501 66.3437 173.814 71.2075C170.591 75.4679 161.85 92.3331 161.398 102.316C161.339 103.425 161.403 104.537 161.588 105.633Z" fill="#DFEBFB"/>
<path d="M161.59 105.633C162.944 113.443 170.372 118.392 177.987 118.392H190.272C184.527 114.494 176.785 103.725 161.59 105.633Z" fill="#CDE0FB"/>
<path d="M185.393 118.357L185.738 118.38C185.981 118.393 186.223 118.402 186.469 118.405H202.061V118.398L202.947 118.409C204.535 118.428 206.178 118.447 207.711 118.46H208.471H208.746C210.259 118.47 211.598 118.474 212.552 118.469C213.823 118.467 215.092 118.371 216.349 118.18C217.805 117.962 219.227 117.555 220.579 116.97C221.04 116.767 221.489 116.538 221.924 116.286C222.508 115.951 223.065 115.571 223.591 115.151C225.015 113.994 226.215 112.586 227.132 110.997C227.874 109.724 228.49 108.381 228.971 106.988C229.693 104.893 230.233 102.74 230.587 100.552C231.177 97.1018 231.514 93.0825 231.616 88.4367C231.656 86.5647 231.659 84.5916 231.625 82.5175C231.57 79.197 231.422 75.6012 231.18 71.7302C230.844 66.2889 230.327 60.2846 229.645 53.684C229.025 47.6493 228.309 43.4337 227.265 42.4679C225.727 41.0501 222.519 40.4799 220.287 40.2518C218.901 40.1074 217.895 40.0988 217.895 40.0988C215.169 40.0988 212.745 42.0564 211.871 44.9655C210.089 50.8846 206.909 61.4771 203.598 72.5531C203.581 72.608 203.565 72.6643 203.548 72.7191C203.355 73.3553 203.163 73.993 202.97 74.632C202.943 74.7302 202.912 74.8269 202.882 74.9208C202.697 74.8385 202.504 74.7504 202.305 74.6624L202.284 74.6537C201.49 74.3014 200.592 73.916 199.622 73.5233C199.118 73.3197 198.599 73.1133 198.062 72.9083C196.547 72.3308 194.911 71.7533 193.254 71.2596C192.519 71.0387 191.777 70.8265 191.041 70.6518C190.097 70.4179 189.164 70.2187 188.244 70.0743L188.165 70.0613L187.842 70.0122C183.899 69.4347 180.479 69.8346 179.064 72.3322C176.799 76.3298 170.566 92.2827 170.113 102.293C169.686 111.514 177.235 117.745 185.393 118.357Z" fill="#B1CBEF"/>
<path d="M210.02 76.7889C210.02 76.7889 217.9 44.6868 218.47 41.9885C218.723 40.7859 219.504 40.3514 220.291 40.2402C218.906 40.0958 217.898 40.0872 217.898 40.0872C215.173 40.0872 212.749 42.039 211.874 44.9394C209.965 51.2643 206.451 62.9294 202.893 74.811C203.07 74.8067 210.02 76.7889 210.02 76.7889Z" fill="#DFEBFB"/>
<path d="M251.991 83.0646C252.449 84.0333 256.855 84.9313 263.396 85.7268C264.551 85.8712 265.767 86.004 267.042 86.1382C289.295 88.4698 350.245 89.772 354.001 89.0848C359.199 88.1349 360 41.1656 360 41.1656C360 41.1656 339.107 41.2146 314.957 40.9851C306.693 40.9086 277.949 40.7137 272.619 40.7137C264.355 40.7137 251.25 81.4953 251.991 83.0646Z" fill="#B0D4FF"/>
<path d="M260.409 77.1021C260.409 77.1021 269.746 45.2743 270.421 42.5977C270.721 41.4052 271.646 40.975 272.586 40.8653C270.945 40.7209 269.751 40.7137 269.751 40.7137C266.52 40.7137 263.648 42.6482 262.612 45.5241C260.336 51.7912 256.178 63.361 251.963 75.1416C252.174 75.1372 260.409 77.1021 260.409 77.1021Z" fill="#D2E3FC"/>
<path d="M203.813 105.283C205.301 113.267 215.04 118.352 225.035 118.352H244.814L243.266 71.8153C243.266 71.8153 224.391 66.7465 219.647 71.5699C215.494 75.7941 204.23 92.5165 203.638 102.413C203.578 103.373 203.637 104.337 203.813 105.283Z" fill="#D2E3FC"/>
<path d="M203.812 105.283C205.301 113.267 215.04 118.352 225.035 118.352H234.739C228.262 114.682 222.41 103.373 203.812 105.283Z" fill="#8BB9EF"/>
<path d="M256.329 76.7441C256.329 76.7441 229.641 65.3475 224.585 72.7912C221.901 76.7441 214.515 92.5151 213.969 102.412C213.44 112.028 223.398 118.352 233.641 118.352H251.832L256.329 76.7441Z" fill="#77A4E5"/>
<path d="M221.164 110.58C221.459 110.791 221.761 110.998 222.072 111.201C225.927 113.73 230.955 115.741 236.707 116.989C241.335 117.973 246.057 118.446 250.789 118.398H259.556L300.507 118.408H323.98H324.326V118.399L325.141 114.608L333.273 76.7427C333.273 76.7427 229.691 73.5565 221.327 77.8053C217.444 79.7774 215.264 88.7081 214.041 97.711C213.393 102.513 216.149 107.013 221.164 110.58Z" fill="#9FC3F7"/>
<path d="M221.164 110.58C221.459 110.791 221.761 110.998 222.072 111.201C225.927 113.73 230.955 115.741 236.707 116.989C241.335 117.973 246.057 118.446 250.789 118.398H259.556L300.507 118.408H323.98L324.328 118.399L325.142 114.608C310.756 112.135 290.847 109.621 270.079 109.816C250.246 110.01 233.641 109.987 221.164 110.58Z" fill="#8BB3EE"/>
<path d="M277.049 117.391C277.049 117.726 277.033 118.044 277.016 118.33C277.016 118.356 277.016 118.382 277.016 118.408C276.981 118.928 276.926 119.34 276.892 119.577H260.322C260.443 119.133 260.678 118.728 261.005 118.404L261.077 118.33C262.612 116.847 265.803 116.538 266.921 116.02C267.887 115.575 269.685 112.749 270.73 110.996C270.961 110.61 271.156 110.274 271.294 110.032C271.453 109.756 271.544 109.59 271.544 109.59L273.383 109.753L276.067 109.99C276.067 109.99 276.079 110.091 276.1 110.267C276.147 110.629 276.236 111.309 276.353 112.118C276.487 113.042 276.662 114.132 276.853 115.1C276.994 115.856 277.06 116.623 277.049 117.391Z" fill="#163560"/>
<path d="M313.3 45.4692C313.3 45.4692 304.493 69.6194 302.747 69.4881C298.95 69.1993 297.535 70.1175 296.81 70.0872C296.085 70.0569 300.174 71.3216 301.443 71.1397C302.712 70.9578 312.385 70.6632 312.385 70.6632L318.245 49.9808L313.3 45.4692Z" fill="#FFB27D"/>
<path d="M291.52 118.33C291.52 118.359 291.52 118.383 291.52 118.409C291.481 118.928 291.431 119.34 291.395 119.577H274.828C274.949 119.135 275.183 118.731 275.507 118.406L275.585 118.33C276.015 117.935 276.509 117.618 277.047 117.391C278.635 116.67 280.599 116.404 281.429 116.023C282.376 115.59 284.117 113.872 285.165 112.783C285.688 112.242 286.038 111.855 286.038 111.855L287.179 111.592L288.659 111.253L290.651 110.797C290.651 110.797 290.683 111.046 290.743 111.465C290.794 111.825 290.868 112.311 290.959 112.873C291.068 113.54 291.203 114.316 291.36 115.105C291.548 116.169 291.602 117.252 291.52 118.33Z" fill="#1F426D"/>
<path d="M268.953 109.663C268.953 109.663 270.616 111.119 271.63 111.455C273.226 111.988 277.703 112.209 277.703 112.209C277.703 112.209 283.269 97.0368 284.871 93.3091C286.392 89.775 287.88 82.2634 287.88 82.2634C289.035 82.2013 298.88 83.3678 306.504 82.5435C310.561 82.1104 313.991 81.0998 315.154 79.0555C318.504 73.1537 310.39 71.2465 310.39 71.2465C310.39 71.2465 286.28 68.2667 281.469 71.2999C276.657 74.3332 268.953 109.663 268.953 109.663Z" fill="#1C468A"/>
<path d="M287.883 82.2633C289.038 82.2013 298.882 83.3678 306.507 82.5434C308.575 78.7797 311.294 73.8191 311.294 73.8191C311.294 73.8191 297.33 72.2397 287.883 82.2633Z" fill="#163560"/>
<path d="M284.166 112.427C284.166 112.427 284.657 112.789 285.722 112.86C286.714 112.929 292.075 112.86 292.075 112.86C292.075 112.86 298.013 100.136 300.322 93.9775C301.404 91.0901 301.427 87.1633 301.678 85.3153C301.756 84.7379 301.856 84.3683 302.017 84.2961C302.067 84.2757 302.118 84.2602 302.17 84.2499C304.739 83.6897 326.1 85.9087 329.14 80.03C329.594 79.19 329.803 78.2398 329.745 77.2869C329.427 72.6382 324.045 71.2451 324.045 71.2451C324.045 71.2451 299.86 70.3788 295.171 73.5969C290.482 76.8149 284.166 112.427 284.166 112.427Z" fill="#1C468A"/>
<path d="M271.631 111.455C273.228 111.988 277.705 112.209 277.705 112.209C277.705 112.209 283.27 97.0367 284.872 93.3091C286.393 89.7749 287.881 82.2634 287.881 82.2634C287.881 82.2634 276.232 108.706 271.631 111.455Z" fill="#163560"/>
<path d="M302.172 84.2557C304.74 83.6955 326.101 85.9145 329.142 80.0357C329.595 79.1957 329.805 78.2456 329.747 77.2927L324.819 71.8528C324.819 71.8528 324.432 79.5911 318.024 80.4616C312.1 81.2629 303.447 83.8659 302.172 84.2557Z" fill="#163560"/>
<path d="M285.721 112.86C286.713 112.929 292.073 112.86 292.073 112.86C292.073 112.86 298.011 100.136 300.321 93.9775C301.402 91.0901 301.425 87.1632 301.676 85.3153C299.329 90.3105 289.372 111.14 285.721 112.86Z" fill="#163560"/>
<path d="M334.989 40.643C332.419 43.8191 327.564 49.0727 324.334 47.8875C323.25 47.4904 314.14 44.2782 319.058 41.2205C320.304 40.4452 322.553 39.4375 324.418 39.2498C324.37 38.6608 324.343 38.1526 324.326 37.7325C324.288 36.8157 324.308 36.3162 324.308 36.3162L328.01 33.6107L328.182 33.6656L330.255 34.3225C330.275 34.5506 330.301 34.7743 330.334 34.9938C330.547 36.4613 331.034 37.8757 331.769 39.1632C332.003 39.5691 332.334 39.9106 332.733 40.157C333.131 40.4034 333.584 40.5471 334.052 40.5751C334.378 40.5968 334.687 40.6199 334.989 40.643Z" fill="#FFB27D"/>
<path d="M330.334 34.9938C329.441 36.6223 327.748 37.334 324.325 37.7368C324.288 36.8201 324.308 36.3206 324.308 36.3206L328.01 33.6151L328.182 33.6685L330.255 34.3225C330.275 34.5506 330.301 34.7743 330.334 34.9938Z" fill="#ED985F"/>
<path d="M323.022 36.6599C323.022 36.6599 330.293 37.9361 331.018 33.3942C331.743 28.8523 333.169 25.9606 328.557 24.9543C323.944 23.9481 322.763 25.5318 322.152 26.9928C321.542 28.4539 321.148 36.2109 323.022 36.6599Z" fill="#FFB27D"/>
<path d="M330.255 35.1338C330.255 35.1338 330.85 33.6988 330.242 32.5352C330.242 32.5352 331.075 31.1795 330.58 30.732C330.085 30.2844 329.529 31.4769 329.33 31.1896C329.131 30.9023 328.272 29.5655 328.241 28.0308C328.211 26.4962 322.983 26.4991 322.355 26.5525C321.727 26.6059 320.301 25.0958 320.219 24.2512C320.219 24.2512 321.459 23.8181 322.096 23.385C322.732 22.9519 327.166 20.1136 331.031 22.7281C334.895 25.3427 334.76 27.5789 333.904 29.2349C333.047 30.8908 332.206 35.1641 330.255 35.1338Z" fill="#2B478B"/>
<path d="M309.119 68.44C309.373 69.0954 309.977 69.6931 314.936 71.964C322.01 75.2052 330.796 78.4463 332.477 76.9939C333.785 75.8635 334.41 68.131 334.702 60.0766C335.05 50.5294 334.751 40.6242 334.751 40.6242C334.751 40.6242 328.999 43.7455 326.064 42.4722C323.177 41.2161 324.066 39.3451 324.103 39.283L316.619 46.6315C316.619 46.6315 308.504 66.8476 309.119 68.44Z" fill="#F99746"/>
<path d="M314.935 71.964C322.009 75.2051 330.795 78.4462 332.475 76.9939C333.783 75.8634 334.409 68.131 334.7 60.0766C334.383 55.5275 333.948 51.9457 333.948 51.9457C333.948 51.9457 330.571 59.8398 327.307 62.0342C319.629 67.2027 309.483 64.965 314.935 71.964Z" fill="#ED7D2B"/>
<path d="M341.72 49.103C341.72 49.103 340.144 63.8591 337.533 69.7147C337.533 69.7147 329.763 71.476 316.811 69.7147L317.121 67.2532C317.121 67.2532 333.227 64.0468 333.227 63.5501C333.227 63.0535 334.324 45.6483 334.271 44.5352C334.217 43.4221 341.72 49.103 341.72 49.103Z" fill="#FFB27D"/>
<path d="M332.721 51.719C334.406 52.1521 336.07 52.0525 337.528 51.7392C339.228 51.3642 340.85 50.698 342.323 49.77C342.323 49.77 341.95 46.1824 341.204 43.5967C340.951 42.7175 340.144 42.0808 339.183 41.6246C337.332 40.7382 334.744 40.6241 334.744 40.6241C334.744 40.6241 327.834 50.4687 332.721 51.719Z" fill="#F99746"/>
<path d="M324.105 39.283C324.105 39.283 319.163 39.3263 316.598 41.1945C315.025 42.3454 313.611 43.6977 312.391 45.2166C312.391 45.2166 313.006 48.5097 315.422 49.08C317.839 49.6502 324.105 39.283 324.105 39.283Z" fill="#F99746"/>
<path d="M287.879 105.7C289.484 113.444 298.286 118.352 307.311 118.352H325.502L324.078 71.8153C324.078 71.8153 306.719 66.7465 302.359 71.5685C298.539 75.7927 288.182 92.5151 287.633 102.412C287.571 103.514 287.654 104.62 287.879 105.7Z" fill="#D2E3FC"/>
<path d="M287.881 105.7C289.486 113.444 298.289 118.352 307.313 118.352H321.871C315.056 114.487 305.881 103.809 287.881 105.7Z" fill="#AFCDFB"/>
<path d="M370.863 88.6503C370.742 93.2572 370.343 97.2418 369.643 100.663C369.22 102.848 368.579 104.986 367.73 107.043C367.151 108.444 366.42 109.777 365.55 111.019C364.419 112.642 362.996 114.04 361.353 115.144C360.723 115.565 360.063 115.941 359.38 116.27C358.866 116.518 358.337 116.744 357.792 116.947C356.17 117.532 354.488 117.934 352.776 118.147C351.285 118.338 349.782 118.434 348.278 118.435C347.146 118.435 345.559 118.435 343.766 118.428H343.44H342.542C340.726 118.415 338.77 118.395 336.896 118.378L335.845 118.366V118.373H317.651C317.555 118.373 317.458 118.373 317.363 118.373C317.074 118.373 316.785 118.363 316.496 118.35C316.361 118.35 316.223 118.337 316.088 118.328C306.415 117.721 297.474 111.543 297.979 102.39C298.524 92.4646 305.989 76.7008 308.594 72.683C311.299 68.5107 320.025 69.0911 320.155 69.1084C320.181 69.1084 339.509 69.1632 339.529 69.1084C343.453 58.1276 345.357 51.4202 347.469 45.5472C348.507 42.6598 351.379 40.7238 354.61 40.7238C354.61 40.7238 355.802 40.7339 357.444 40.8754C358.222 40.9418 359.103 41.0385 360.002 41.1757C362.156 41.5077 364.427 42.0823 365.715 43.0727C366.951 44.0256 367.798 48.2094 368.534 54.1892C369.341 60.7407 369.954 66.6931 370.354 72.0911C370.636 75.9342 370.812 79.4996 370.88 82.7874C370.917 84.8375 370.911 86.7918 370.863 88.6503Z" fill="#77A4E5"/>
<path d="M359.998 41.1656C359.998 41.1656 355.09 41.3186 354.104 45.4678C353.118 49.617 347.128 69.4866 347.128 69.4866C347.128 69.4866 342.55 68.9308 339.525 69.0969C343.449 58.1161 345.354 51.4086 347.466 45.5357C348.504 42.6483 351.375 40.7123 354.606 40.7123C354.606 40.7123 355.799 40.7224 357.44 40.8639C358.221 40.9317 359.099 41.0285 359.998 41.1656Z" fill="#D2E3FC"/>
<path d="M226.124 109.593C226.124 109.593 225.771 111.709 225.307 113.02C224.844 114.331 224.428 117.885 225.548 118.129C226.669 118.373 228.724 115.043 228.986 113.856C229.247 112.669 230.509 109.48 229.936 108.996C229.363 108.513 226.124 109.593 226.124 109.593Z" fill="#FFB27D"/>
<path d="M230.166 109.842C230.421 110.18 230.575 110.583 230.612 111.004C230.648 111.425 230.565 111.848 230.371 112.224C229.702 113.56 228.909 115.272 228.467 116.326C228.025 117.38 226.279 118.431 225.547 118.129C224.815 117.827 224.883 115.152 224.883 115.152C224.883 115.152 226.449 115.874 227.1 115.305C227.751 114.736 228.736 113.45 229.266 112.295C229.624 111.5 229.925 110.68 230.166 109.842Z" fill="#B5453C"/>
<path d="M274.052 50.4746C274.052 50.4746 265.463 48.6526 259.301 51.6642C259.301 51.6642 256.717 59.824 256.838 61.2662C256.96 62.7085 256.967 69.0622 255.722 71.3331C254.478 73.6041 267.151 77.6334 269.438 76.2287C271.724 74.824 274.421 52.0381 274.052 50.4746Z" fill="white"/>
<path d="M232.868 73.7355C232.868 73.7355 228.97 87.3062 226.129 109.588C226.129 109.588 229.883 110.768 231.518 108.866C231.518 108.866 233.612 103.164 236.327 98.0055C240.066 90.8996 244.721 83.4241 244.321 80.606C243.957 78.0665 236.326 67.6272 232.868 73.7355Z" fill="#163560"/>
<path d="M254.395 110.366C254.395 110.366 254.972 112.435 255.098 113.818C255.223 115.201 256.348 118.603 257.468 118.352C258.588 118.1 259.056 114.214 258.786 113.029C258.516 111.843 258.324 108.417 257.6 108.22C256.875 108.022 254.395 110.366 254.395 110.366Z" fill="#FFB27D"/>
<path d="M234.783 72.0031C234.783 72.0031 237.411 70.4973 243.382 71.7937C249.353 73.0902 254.238 76.1912 254.238 76.1912L239.012 76.8236L234.783 72.0031Z" fill="#163560"/>
<path d="M258.172 108.889C258.544 109.089 258.854 109.389 259.064 109.756C259.274 110.123 259.376 110.542 259.36 110.964C259.315 112.457 259.318 114.344 259.36 115.486C259.402 116.628 258.26 118.317 257.47 118.351C256.68 118.386 255.613 115.93 255.613 115.93C255.613 115.93 257.346 115.93 257.689 115.136C258.033 114.342 258.392 112.764 258.392 111.491C258.381 110.62 258.307 109.75 258.172 108.889Z" fill="#B5453C"/>
<path d="M271.672 50.4528C271.672 50.4528 275.482 49.7555 276.01 52.8566C276.538 55.9577 276.072 74.6868 273.154 75.631C270.237 76.5751 258.758 73.0929 258.758 73.0929V71.9611C258.758 71.9611 269.874 71.4327 270.284 71.2594C270.694 71.0862 271.672 50.4528 271.672 50.4528Z" fill="#FFB27D"/>
<path d="M239.924 74.258C239.924 74.258 244.069 89.4919 252.831 110.171C252.831 110.171 255.939 111.106 258.173 108.889C258.173 108.889 256.333 78.283 253.286 74.4284C251.683 72.4086 239.836 67.2387 239.924 74.258Z" fill="#1C468A"/>
<path d="M269.854 49.975C269.854 49.975 274.805 50.0054 275.729 51.0939C277.845 53.5814 277.343 64.965 277.343 64.965C277.343 64.965 275.353 64.4308 273.567 64.8408C271.781 65.2508 269.43 64.8408 269.43 64.8408L269.854 49.975Z" fill="white"/>
<path d="M259.328 53.1772L258.984 53.4934C257.197 55.1305 248.981 62.5685 247.308 62.5136C245.431 62.4515 238.152 60.4924 238.152 60.4924L237.885 61.812C237.885 61.812 246.752 66.6238 249.351 66.1329C251.949 65.6421 257.949 61.3514 257.949 61.3514L259.328 53.1772Z" fill="#FFB27D"/>
<path d="M263.333 50.3577C263.333 50.3577 258.738 51.3177 257.531 52.7239C256.324 54.13 252.576 58.5117 252.576 58.5117C252.576 58.5117 253.556 59.2884 254.833 61.5117C256.074 63.6772 259.574 63.2239 259.574 63.2239L263.333 50.3577Z" fill="white"/>
<path d="M238.157 60.4895C238.157 60.4895 237.258 59.6969 236.414 59.6709C235.569 59.6449 234.642 59.3966 234.697 59.6709C234.752 59.9452 235.95 60.1892 235.732 60.2484C235.17 60.3033 234.605 60.3033 234.043 60.2484C233.743 60.1935 233.008 59.8947 233.008 60.1935C233.008 60.4924 234.86 61.5838 235.76 61.6921C236.659 61.8004 237.89 61.8134 237.89 61.8134L238.157 60.4895Z" fill="#FFB27D"/>
<path d="M258.757 71.9611C258.757 71.9611 256.329 71.4284 255.939 71.4933C255.461 71.5742 253.629 72.3841 253.629 72.9962C253.629 73.6084 260.323 73.5449 260.323 73.5449L258.757 71.9611Z" fill="#FFB27D"/>
<path d="M241.227 71.3187C241.227 71.3187 245.748 67.2604 264.199 76.0006L249.047 76.2287L241.227 71.3187Z" fill="#1C468A"/>
<path d="M265.887 41.9957C265.887 41.9957 269.089 43.7484 266.621 47.2479C266.621 47.2479 269.403 47.6493 270.127 46.8668C270.068 47.0483 269.986 47.2215 269.883 47.3822C269.883 47.3822 272.596 47.105 273.594 46.1074C274.591 45.1098 271.955 31.3961 264.676 33.9803C264.676 33.9803 258.257 34.3845 259.871 41.6507C261.485 48.9168 259.086 49.2518 259.086 49.2518C259.086 49.2518 259.799 49.4885 260.121 49.4438C260.121 49.4438 260.567 49.1983 260.623 48.9255C260.623 48.9255 260.587 49.347 260.479 49.4943C260.479 49.4943 263.102 49.3788 264.259 48.2224C265.415 47.066 266.468 43.4611 265.887 41.9957Z" fill="#233862"/>
<path d="M267.018 45.6512C267.018 45.6512 268.761 43.1969 269.261 41.0429C269.619 39.5054 271.556 33.1892 265.735 33.7132C265.735 33.7132 261.623 34.3167 259.989 35.3013C258.69 36.0823 256.784 37.8162 258.545 42.9399L258.978 44.6622L267.018 45.6512Z" fill="#233862"/>
<path d="M263.269 53.027C263.702 53.3432 265.601 53.7344 267.122 52.9808C268.553 52.2734 269.207 50.7402 268.999 50.1151C268.791 49.49 268.123 49.2763 267.398 45.4952L267.121 45.6093L262.443 47.5207C262.443 47.5207 262.853 49.0309 263.138 50.4717C263.37 51.6815 263.017 52.8437 263.269 53.027Z" fill="#FFB27D"/>
<path d="M262.438 47.5193C262.438 47.5193 262.848 49.0294 263.132 50.4702C265.839 49.8624 266.793 47.0992 267.115 45.6078L262.438 47.5193Z" fill="#ED975D"/>
<path d="M261.794 49.0626C261.794 49.0626 268.256 47.9077 267.477 43.9C266.697 39.8923 267.009 37.0352 262.85 37.6011C258.69 38.167 258.19 39.8518 258.125 41.2537C258.06 42.6555 260.094 49.259 261.794 49.0626Z" fill="#FFB27D"/>
<path d="M260.051 36.6498C260.051 36.6498 263.227 42.0116 266.364 42.3697C269.501 42.7277 270.222 41.3591 270.222 41.3591C270.222 41.3591 267.645 39.8374 266.715 36.6858C266.716 36.6873 261.191 33.9385 260.051 36.6498Z" fill="#233862"/>
<path d="M260.6 37.0092C260.6 37.0092 259.29 38.3894 259.09 39.5819C258.889 40.7744 259.055 43.1464 258.359 43.1623C258.359 43.1623 256.377 39.7927 257.764 37.5318C259.237 35.1454 260.6 37.0092 260.6 37.0092Z" fill="#233862"/>
<path d="M260.348 37.2257C260.348 37.2257 262.513 42.5399 266.582 43.7743C266.582 43.7743 262.294 40.9201 261.464 37.3267C260.634 33.7334 260.348 37.2257 260.348 37.2257Z" fill="#233862"/>
<path d="M273.593 46.1074C272.597 47.105 269.883 47.3836 269.883 47.3836C269.986 47.2223 270.068 47.0486 270.127 46.8668C268.705 47.9539 265.316 47.04 265.316 47.04C268.059 46.5159 267.284 42.5645 266.363 42.3696C265.907 39.3913 264.941 35.6738 264.486 33.9962C264.608 33.9803 264.675 33.976 264.675 33.976C271.955 31.3961 274.591 45.1112 273.593 46.1074Z" fill="#233862"/>
<path d="M317.116 67.2302C317.116 67.2302 312.81 66.8447 312.439 66.9414C312.068 67.0381 308.896 69.6209 308.786 69.8476C308.677 70.0742 308.271 71.5396 308.682 71.5916C309.921 71.7504 311.099 70.1161 313.014 69.9342C314.125 69.8274 316.874 69.1373 316.874 69.1373L317.116 67.2302Z" fill="#FFB27D"/>
<path d="M250.586 19.4856C250.987 9.52407 242.635 5.09192 234.094 5.09192C225.554 5.09192 216.259 7.30511 215.453 20.5568C214.935 29.0819 219.481 34.3225 232.567 34.3225C236.98 34.3225 240.409 33.6266 243.037 32.3851L249.578 38.1988L246.364 30.1632C249.211 27.5198 250.411 23.7835 250.586 19.4856Z" fill="white"/>
<path d="M68.2239 15.5688C67.7908 4.77711 76.8327 -0.0231934 86.0796 -0.0231934C95.3265 -0.0231934 105.392 2.3719 106.264 16.7237C106.826 25.9547 101.904 31.6342 87.7341 31.6342C82.9555 31.6342 79.2423 30.8806 76.3967 29.5366L69.3139 35.8311L72.8019 27.1357C69.711 24.2685 68.4116 20.2247 68.2239 15.5688Z" fill="white"/>
<path d="M161.893 19.4668C162.241 10.8407 155.011 7.00909 147.618 7.00909C140.225 7.00909 132.18 8.92344 131.483 20.3951C131.036 27.7738 134.968 32.3143 146.295 32.3143C150.117 32.3143 153.081 31.7122 155.359 30.6367L161.021 35.668L158.239 28.7137C160.704 26.4225 161.743 23.1901 161.893 19.4668Z" fill="white"/>
</g>
<defs>
<clipPath id="clip0_1892_263">
<rect width="371" height="120" fill="white"/>
</clipPath>
</defs>
</svg>
