<svg width="352" height="336" viewBox="0 0 352 336" fill="none" xmlns="http://www.w3.org/2000/svg">
<path fill-rule="evenodd" clip-rule="evenodd" d="M298.694 145.622C301.619 168.802 321.049 220.006 326.621 236.861C332.454 254.493 340.964 271.105 351.854 286.113C350.012 288.954 348.074 291.861 346.074 294.792C342.51 299.96 337.542 305.423 332.52 310.725C312.84 300.185 287.832 283.48 256.638 257.204C249.551 251.232 242.845 244.823 236.557 238.014C154.073 148.749 144.133 -0.279516 159.009 0.54731C175.006 1.44663 287.966 60.3382 298.694 145.622Z" fill="#93C5F0"/>
<path d="M185.845 43.8263C194.16 52.385 201.95 61.4396 209.174 70.9413C266.585 145.974 251.525 177.178 280.247 233.468C285.588 243.98 291.725 254.064 298.604 263.631C304.973 272.55 313.84 283.384 321.384 290.398L321.434 290.439C321.818 290.817 322.039 291.33 322.052 291.871C322.064 292.412 321.867 292.938 321.501 293.338C321.135 293.739 320.63 293.983 320.09 294.019C319.551 294.056 319.02 293.881 318.61 293.532C310.508 286.269 301.216 275.127 294.86 266.344C287.822 256.602 281.538 246.333 276.061 235.627C245.311 175.42 264.978 151.978 207.351 72.3016C200.469 62.6378 193.011 53.4003 185.017 44.639C184.932 44.5251 184.892 44.3835 184.904 44.2411C184.916 44.0987 184.98 43.9653 185.084 43.8663C185.187 43.7673 185.323 43.7096 185.466 43.7041C185.608 43.6986 185.748 43.7458 185.857 43.8365L185.845 43.8263Z" fill="#85BAE2"/>
<path fill-rule="evenodd" clip-rule="evenodd" d="M346.038 294.797C342.474 299.965 337.507 305.428 332.484 310.73C327.126 316.387 321.71 321.849 317.865 326.585C149.524 360.11 63.6098 285.801 42.525 260.464C19.347 232.621 0.404297 225.711 0.404297 225.711C42.8943 197.416 88.0455 222.527 145.542 213.795C165.768 210.697 200.316 222.047 236.555 238.015C276.645 255.676 318.823 279.018 346.038 294.797Z" fill="white"/>
<path fill-rule="evenodd" clip-rule="evenodd" d="M335.325 289.558C340.629 287.932 115.521 84.9603 18.5482 100.632C18.5482 100.632 1.54866 90.9868 61.0679 156.039C133.723 235.456 281.069 306.313 335.325 289.558Z" fill="#9ACCF3"/>
<path d="M75.4018 134.661C83.0036 139.438 90.5647 144.273 98.0852 149.165C105.606 154.057 113.102 158.996 120.573 163.981L131.759 171.472L142.899 179.032C150.327 184.086 157.702 189.21 165.024 194.402C179.696 204.752 194.155 215.415 208.402 226.39C222.619 237.404 236.615 248.752 249.274 261.819C249.662 262.21 249.877 262.74 249.873 263.293C249.869 263.845 249.646 264.375 249.253 264.766C248.86 265.157 248.329 265.376 247.777 265.376C247.226 265.376 246.698 265.156 246.31 264.765L246.23 264.699L241.493 260.022L239.123 257.687C238.338 256.903 237.553 256.118 236.705 255.397C233.374 252.439 230.1 249.463 226.707 246.516L216.42 237.923C212.967 235.075 209.433 232.338 205.939 229.539C191.864 218.474 177.535 207.725 162.952 197.294C148.38 186.861 133.812 176.41 118.999 166.294C111.61 161.209 104.205 156.152 96.783 151.123C89.3797 146.068 81.9443 141.039 74.4758 136.088C74.3833 136.031 74.3034 135.955 74.241 135.866C74.1786 135.776 74.135 135.675 74.1128 135.568C74.0905 135.462 74.0902 135.351 74.1117 135.244C74.1333 135.136 74.1763 135.034 74.2382 134.944C74.2929 134.845 74.3675 134.759 74.4573 134.69C74.547 134.622 74.65 134.572 74.7595 134.546C74.869 134.519 74.9827 134.516 75.0933 134.536C75.2039 134.556 75.309 134.598 75.4018 134.661Z" fill="#85BAE2"/>
<path fill-rule="evenodd" clip-rule="evenodd" d="M346.038 294.797C342.474 299.965 337.507 305.428 332.484 310.73C327.126 316.387 321.71 321.849 317.865 326.585C149.524 360.11 63.6098 285.801 42.525 260.464C19.347 232.621 0.404297 225.711 0.404297 225.711C42.8943 197.416 88.0455 222.527 145.542 213.795C165.768 210.697 200.316 222.047 236.555 238.015C276.645 255.676 318.823 279.018 346.038 294.797Z" fill="#9FD0F3"/>
<path d="M52.1242 239.781C63.0323 244.948 73.9227 250.111 84.9649 254.989C96.0072 259.866 107.095 264.549 118.387 268.706C129.679 272.862 141.083 276.68 152.687 279.799C155.584 280.61 158.506 281.262 161.414 282.008C164.322 282.754 167.271 283.324 170.221 283.893C173.17 284.463 176.106 285.073 179.082 285.56C182.058 286.046 185.008 286.563 187.981 287.015C211.798 290.628 235.98 292.036 260.06 294.887C266.091 295.587 272.108 296.34 278.115 297.22C284.122 298.101 290.152 299.106 296.08 300.322C307.991 302.778 319.799 306.107 330.956 311.048C331.23 311.186 331.44 311.424 331.545 311.713C331.649 312.002 331.64 312.321 331.519 312.605C331.397 312.889 331.173 313.117 330.891 313.243C330.61 313.368 330.291 313.383 330.001 313.282C318.856 308.838 307.279 305.545 295.45 303.456C283.651 301.282 271.648 299.761 259.648 298.516C247.647 297.271 235.582 296.32 223.518 295.191C211.453 294.061 199.389 292.869 187.354 291.069C175.283 289.383 163.336 286.933 151.584 283.734C139.866 280.517 128.332 276.725 116.982 272.359C105.66 267.999 94.5452 263.146 83.5576 258.05C78.0643 255.508 72.6288 252.845 67.214 250.157C61.7992 247.469 56.403 244.733 51.0377 241.96C50.7618 241.811 50.5552 241.56 50.4613 241.26C50.3675 240.961 50.3937 240.635 50.5346 240.353C50.6754 240.071 50.9199 239.853 51.2164 239.747C51.5129 239.64 51.8384 239.652 52.1242 239.781Z" fill="#85BAE2"/>
</svg>
