<svg width="421" height="449" viewBox="0 0 421 449" fill="none" xmlns="http://www.w3.org/2000/svg">
<path d="M407 226.126C407 281.912 390.214 336.166 360.473 376.449C330.743 416.72 288.097 443 236.304 443C184.528 443 129.951 410.773 88.2698 364.451C46.5978 318.139 18 257.937 18 202.279C18 90.805 95.6243 6 199.332 6C251.157 6 303.077 33.1266 342.066 74.2705C381.051 115.41 407 170.456 407 226.126Z" stroke="#BBEBCD" stroke-width="2"/>
<path d="M420 226.163C420 340.357 347.699 448 236.131 448C180.332 448 121.544 415.014 76.6637 367.635C31.7874 320.261 1 258.688 1 201.773C1 87.7985 84.5617 1 196.321 1C252.168 1 308.095 28.7651 350.08 70.8512C392.064 112.936 420 169.235 420 226.163Z" stroke="#BBEBCD" stroke-width="2"/>
</svg>
