<svg width="1151" height="349" viewBox="0 0 1151 349" fill="none" xmlns="http://www.w3.org/2000/svg">
<path d="M-79 340C135.544 340 175.365 253.109 325.709 253.109C476.053 253.109 591.451 128.051 803.558 128.051C973.243 128.051 1089.89 36.017 1127 -10" stroke="#B5EAC8" stroke-opacity="0.6" stroke-width="2"/>
<path d="M-171 300C43.3666 300 83.1543 212.861 233.373 212.861C383.592 212.861 498.896 87.4455 710.826 87.4455C880.371 87.4455 996.919 -4.85151 1034 -51" stroke="#B5EAC8" stroke-opacity="0.4" stroke-width="2"/>
<path d="M-101 329C113.367 329 153.154 242.109 303.373 242.109C453.592 242.109 568.896 117.051 780.826 117.051C950.371 117.051 1066.92 25.017 1104 -21" stroke="#B5EAC8" stroke-width="2"/>
<path d="M-194 288C20.5445 288 60.3652 201.109 210.709 201.109C361.053 201.109 476.451 76.051 688.558 76.051C858.243 76.051 974.888 -15.983 1012 -62" stroke="#B5EAC8" stroke-opacity="0.2" stroke-width="2"/>
<path d="M-56 348C158.544 348 198.365 261.109 348.709 261.109C499.053 261.109 614.451 136.051 826.558 136.051C996.243 136.051 1112.89 44.017 1150 -2" stroke="#B5EAC8" stroke-opacity="0.4" stroke-width="2"/>
<path d="M-148 308C66.3666 308 106.154 220.861 256.373 220.861C406.592 220.861 521.896 95.4455 733.826 95.4455C903.371 95.4455 1019.92 3.14849 1057 -43" stroke="#B5EAC8" stroke-opacity="0.6" stroke-width="2"/>
<path d="M-123 317C91.5769 317 131.404 230.077 281.77 230.077C432.137 230.077 547.553 104.974 759.692 104.974C929.402 104.974 1046.07 12.9058 1083.18 -33.128L1097 -51" stroke="#B5EAC8" stroke-width="2"/>
</svg>
