<svg width="41" height="38" viewBox="0 0 41 38" fill="none" xmlns="http://www.w3.org/2000/svg">
<path fill-rule="evenodd" clip-rule="evenodd" d="M0.0785871 0.0091373C0.0100142 0.0256253 0 0.0895577 0 0.5112V0.994379L0.440627 1.04676C1.86813 1.21657 2.72203 1.92668 3.09763 3.25634C3.19212 3.59094 3.1967 3.71223 3.23298 6.84988C3.27017 10.0674 3.2716 10.1039 3.39034 10.8253C3.63396 12.3052 3.97215 13.4314 4.521 14.5906C5.0501 15.708 5.5813 16.4863 6.43597 17.3961C7.80846 18.8572 9.55093 19.9537 11.7413 20.7346C13.4235 21.3345 15.3875 21.7036 17.4463 21.807L18.1199 21.8408L18.1047 28.1119L18.0894 34.383L17.9786 34.7353C17.5929 35.9616 16.5637 36.7793 15.0458 37.0652C14.8348 37.1049 14.2832 37.1497 13.8201 37.1646L12.9781 37.1918V37.5959V38H20.5H28.0219L28.0223 37.8356C28.0225 37.7452 28.0354 37.5602 28.051 37.4246L28.0793 37.1779H27.494C26.7642 37.1779 26.0866 37.1077 25.6194 36.9836C24.2427 36.6179 23.4345 35.9204 23.0292 34.7482C22.9366 34.4804 22.9349 34.3963 22.8967 28.2058C22.8754 24.7567 22.8674 21.9083 22.8789 21.876C22.8931 21.8359 23.0116 21.8173 23.2538 21.8173C24.0275 21.8173 25.5979 21.6485 26.5849 21.4593C31.3257 20.5504 34.7977 18.1454 36.5082 14.5857C36.9121 13.7451 37.2876 12.5829 37.4955 11.5299C37.7193 10.3963 37.723 10.3351 37.7711 6.90292L37.8172 3.61471L37.9476 3.16845C38.1139 2.59987 38.3437 2.19664 38.7008 1.84711C39.1769 1.38103 39.6901 1.1609 40.5622 1.04882L41 0.992547V0.506878V0.0211626L40.4274 0.0215385C38.6995 0.0227129 37.0834 0.51679 35.7683 1.44599C35.272 1.79666 34.3707 2.73037 34.0677 3.20767C33.3852 4.28283 32.9315 5.59369 32.7642 6.97338C32.7251 7.29633 32.6716 8.01504 32.6453 8.57051C32.5637 10.3021 32.4027 11.4454 32.0643 12.6964C31.5896 14.4515 30.8559 15.9097 29.8722 17.0531C29.3533 17.6562 29.0165 17.9621 28.4164 18.3748C27.0626 19.306 25.2466 19.7984 23.374 19.7418L22.8801 19.7269L22.8905 12.6808C22.8964 8.64501 22.92 5.33078 22.9456 4.92342C22.9781 4.40562 23.0195 4.11607 23.0976 3.85865C23.4768 2.6095 24.3849 1.83287 25.8068 1.54144C26.2376 1.45313 27.3204 1.42617 27.8535 1.49043L28.1566 1.52698V1.03229V0.5376L20.5112 0.549484L12.8658 0.561369V1.03111V1.50086L13.0005 1.49339C14.331 1.41987 14.4045 1.42001 14.9058 1.49762C15.8816 1.64859 16.5455 1.94646 17.0936 2.4791C17.5404 2.91329 17.8008 3.38998 17.9707 4.08445C18.0589 4.44493 18.0642 4.65256 18.1026 9.18118C18.1247 11.7777 18.1376 15.2127 18.1313 16.8145L18.1199 19.7269L17.2667 19.7215C16.3012 19.7154 15.8401 19.6626 15.0663 19.4694C12.6719 18.8717 10.8767 17.3169 9.72297 14.8417C8.87293 13.018 8.49589 11.2412 8.35237 8.38261C8.25501 6.44295 8.03142 5.40622 7.43546 4.13143C6.86523 2.91164 6.13379 2.04365 5.062 1.31493C4.10521 0.664478 2.78167 0.199619 1.52683 0.0732573C0.968013 0.0170289 0.189327 -0.0174502 0.0785871 0.0091373Z" fill="#608F70"/>
</svg>
