<svg width="664" height="339" viewBox="0 0 664 339" fill="none" xmlns="http://www.w3.org/2000/svg">
<g clip-path="url(#clip0_1414_52)">
<path d="M294.718 301.027C291.118 324.065 267.563 338.736 243.405 338.736H195.551L199.296 204.464C199.296 204.464 244.952 189.835 256.403 203.75C266.45 215.938 293.696 264.186 295.128 292.746C295.278 295.513 295.141 298.289 294.718 301.027Z" fill="#7BBDF2"/>
<path d="M167.711 218.688C167.711 218.688 232.267 185.796 244.474 207.273C250.967 218.68 268.832 264.182 270.131 292.738C271.414 320.485 247.33 338.732 222.542 338.732H178.565L167.711 218.688Z" fill="#4E99D3"/>
<path d="M179.831 236.927C179.289 239.723 174.062 242.296 166.308 244.609C164.928 245.014 163.487 245.411 161.983 245.799C135.586 252.527 88.8284 256.281 84.3715 254.299C78.2139 251.556 40.4199 117.524 40.4199 117.524C40.4199 117.524 76.4966 116.173 105.149 115.513C114.953 115.29 123.883 115.145 130.206 115.166C130.934 115.167 131.661 115.217 132.383 115.314C134.828 115.609 137.088 116.764 138.756 118.573C143.37 123.529 144.516 133.293 148.786 144.097C153.007 154.778 158.193 168.11 163.109 181.339C164.375 184.747 165.625 188.15 166.833 191.499C167.177 192.445 167.512 193.387 167.851 194.32C175.114 214.612 180.708 232.4 179.831 236.927Z" fill="#70B6EF"/>
<path d="M294.719 301.027C291.119 324.065 267.564 338.736 243.405 338.736H219.934C235.576 328.154 249.737 295.522 294.719 301.027Z" fill="#70B6EF"/>
<path d="M257.039 318.114C247.798 330.917 233.633 339.132 217.85 338.876L149.984 338.913H117.479L154.052 218.705C154.052 218.705 246.619 209.515 258.036 221.773C263.333 227.461 266.312 253.233 267.968 279.212C268.932 293.857 264.661 307.549 257.039 318.114Z" fill="#70B6EF"/>
<path d="M257.039 318.114C247.799 330.918 233.634 339.133 217.851 338.876L149.984 338.914C157.967 332.223 183.09 313.24 209.963 314.133C230.36 314.822 246.541 314.529 257.039 318.114Z" fill="#4E99D3"/>
<path d="M168.67 130.823C168.67 130.823 177.202 136.155 187.242 150.863C196.035 163.74 200.587 167.916 205.582 169.147C210.577 170.378 235.058 169.713 235.058 169.713L235.116 174.02C235.116 174.02 202.921 183.309 197.26 179.753C191.599 176.197 165.322 152.011 163.277 144.676C161.233 137.34 168.67 130.823 168.67 130.823Z" fill="#F4A269"/>
<path d="M254.946 317.408C254.648 320.637 259.159 321.426 264.381 321.682C269.603 321.938 268.023 323.012 275.182 324.305C282.341 325.598 285.204 323.644 285.726 322.678C286.185 321.823 282.858 320.485 279.312 318.961C278.865 318.775 278.418 318.576 277.971 318.382C273.982 316.631 271.743 313.059 268.631 309.746C265.684 306.611 262.883 296.567 262.883 296.567L253.158 294.502C253.158 294.502 255.889 303.543 256.837 307.4C257.396 309.672 256.572 312.208 255.844 314.141C255.398 315.184 255.096 316.283 254.946 317.408Z" fill="#FFB27D"/>
<path d="M264.381 321.678C269.603 321.938 268.022 323.008 275.181 324.301C282.34 325.593 285.204 323.64 285.725 322.673C286.185 321.818 282.858 320.48 279.311 318.956L279.257 319.018C275.721 320.037 271.975 320.082 268.415 319.146C263.681 317.862 259.104 315.041 255.844 314.128C255.397 315.171 255.095 316.27 254.946 317.395C254.648 320.637 259.162 321.426 264.381 321.678Z" fill="#163560"/>
<path d="M158.1 202.316C158.1 202.316 222.726 197.463 234.893 205.125C247.059 212.786 266.575 302.056 266.575 302.056C266.575 302.056 265.37 303.022 262.681 303.295C260.198 303.563 254.669 302.097 254.669 302.097C254.669 302.097 226.625 262.154 224.651 252.093C222.677 242.032 223.157 233.053 218.659 232.813C214.16 232.574 158.092 239.616 149.609 224.702C141.126 209.788 148.14 195.031 148.14 195.031L158.1 202.316Z" fill="#163560"/>
<path d="M230.22 327.766C229.917 331 234.428 331.785 239.65 332.045C244.873 332.305 243.296 333.371 250.451 334.663C257.606 335.956 260.478 334.003 260.995 333.04C261.455 332.181 258.127 330.843 254.581 329.323L253.24 328.741C249.251 326.99 247.012 323.421 243.9 320.109C240.954 316.97 238.157 306.925 238.157 306.925L228.428 304.86C228.428 304.86 231.159 313.901 232.107 317.759C232.665 320.03 231.842 322.57 231.113 324.499C230.671 325.544 230.37 326.642 230.22 327.766Z" fill="#FFB27D"/>
<path d="M239.654 332.045C244.877 332.305 243.3 333.371 250.455 334.663C257.61 335.956 260.482 334.003 260.999 333.04C261.458 332.181 258.131 330.843 254.585 329.323L254.531 329.381C250.995 330.4 247.249 330.446 243.689 329.513C238.955 328.229 234.378 325.383 231.117 324.491C230.675 325.535 230.374 326.634 230.223 327.758C229.921 331 234.432 331.785 239.654 332.045Z" fill="#163560"/>
<path d="M145.442 206.298C145.442 206.298 202.855 209.011 214.711 217.139C226.567 225.268 242.586 315.227 242.586 315.227C242.586 315.227 241.344 316.144 238.646 316.329C236.138 316.503 230.688 314.822 230.688 314.822C230.688 314.822 204.204 273.822 202.644 263.69C201.084 253.559 201.895 244.605 197.409 244.192C192.923 243.779 136.623 248.636 128.715 233.404C120.807 218.172 145.442 206.298 145.442 206.298Z" fill="#1C468A"/>
<path d="M159.702 79.0556C156.946 77.7505 153.764 77.8166 151.554 78.1181C152.011 77.6747 152.573 77.3549 153.188 77.1888C151.798 77.0855 148.827 78.6757 148.827 78.6757C129.146 72.7365 127.904 99.058 129.117 107.587C130.822 119.564 121.449 120.275 116.528 130.365C103.907 156.236 132.853 175.726 132.853 175.726C133.007 175.801 152.204 139.121 164.304 129.836C167.068 125.049 167.569 116.925 167.614 116.285C167.552 122.703 166.724 126.363 165.897 128.448C175.948 117.743 167.014 82.5126 159.702 79.0556Z" fill="#163560"/>
<path d="M143.028 124.971C146.587 124.678 150.163 124.678 153.721 124.971C156.907 125.311 160.03 126.094 162.999 127.296C168.06 129.407 167.551 138.348 156.912 136.692C146.273 135.036 142.284 127.622 143.028 124.971Z" fill="#FFB27D"/>
<path d="M162.557 131.492C162.619 131.525 164.071 139.182 157.119 138.877C152.567 138.674 142.714 133.165 143.583 129.266C143.997 127.411 147.444 122.604 148.135 111.622L148.963 111.845L162.938 115.583C162.938 115.583 162.317 120.006 162.027 124.194C161.783 127.713 161.775 131.063 162.557 131.492Z" fill="#FFB27D"/>
<path d="M162.933 115.583C162.933 115.583 162.313 120.006 162.023 124.194C154.119 123.442 150.411 115.934 148.963 111.841L162.933 115.583Z" fill="#F4A269"/>
<path d="M145.805 111.32C145.805 111.32 141.171 105.088 139.755 99.5659C138.75 95.6258 139.685 80.6663 154.752 81.6947C157.784 81.8894 160.734 82.7602 163.384 84.243C166.786 86.1842 171.806 90.5498 167.543 103.853L166.513 108.318L145.805 111.32Z" fill="#163560"/>
<path d="M164.678 118.267C164.678 118.267 145.969 119.961 145.087 108.318C144.206 96.6749 141.202 89.0507 153.111 87.4771C165.021 85.9035 167.678 90.1699 168.919 93.9862C170.161 97.8025 169.519 117.524 164.678 118.267Z" fill="#FFB27D"/>
<path d="M161.618 86.5602C161.618 86.5602 157.509 100.603 149.787 103.205C142.065 105.807 138.494 103.956 138.494 103.956C142.124 100.263 144.356 95.4268 144.809 90.2732C144.809 90.2732 157.269 80.3443 161.618 86.5602Z" fill="#163560"/>
<path d="M160.43 87.7619C160.43 87.7619 164.485 90.5291 165.64 93.4243C166.794 96.3196 167.672 102.395 169.439 102.052C169.439 102.052 172.608 92.4826 167.878 87.5512C162.859 82.3224 160.43 87.7619 160.43 87.7619Z" fill="#163560"/>
<path d="M184.084 203.275C182.565 205.088 177.827 205.641 172.758 206.476C168.773 207.132 164.585 207.954 161.585 209.701C154.823 213.666 132.725 227.048 126.249 226.449C123.737 226.214 124.209 221.431 125.727 215.083C128.123 205.059 133.135 191.128 133.135 185.081C133.135 181.777 134.235 173.963 135.705 165.025C135.825 164.302 135.949 163.576 136.069 162.845C138.965 145.465 143.008 124.975 143.008 124.975C143.008 124.975 147.502 134.759 156.251 134.759C164.999 134.759 162.971 127.296 162.971 127.296C162.971 127.296 170.962 128.234 172.849 130.266C174.736 132.298 179.524 141.066 180.471 143.457C180.471 143.457 180.666 146.501 173.114 147.951C173.114 147.951 174.955 156.211 175.183 161.721C175.344 165.789 172.398 178.523 171.554 186.444C171.251 189.249 171.214 191.45 171.669 192.45C172.253 193.73 174.152 195.002 176.292 196.253C180.583 198.736 185.888 201.119 184.084 203.275Z" fill="white"/>
<path d="M176.315 196.253C181.161 204.514 163.172 206.992 160.176 208.726C153.414 212.691 132.732 227.06 126.243 226.449C123.731 226.213 124.203 221.431 125.722 215.083C128.118 205.059 133.129 191.128 133.129 185.081C133.129 181.777 134.23 173.963 135.699 165.025L143.495 157.554C143.495 157.554 151.85 179.101 159.812 182.632C163.598 184.26 167.527 185.536 171.548 186.444C171.246 189.248 171.208 191.45 171.664 192.449C172.264 193.73 174.167 195.002 176.315 196.253Z" fill="#EBEEF2"/>
<path d="M140.631 131.422C140.631 131.422 133.965 127.383 127.522 135.048C121.078 142.714 132.103 197.496 141.649 200.305C152.26 203.431 184.082 203.27 184.082 203.27L183.048 199.45C183.048 199.45 149.69 188.782 148.332 187.059C146.975 185.337 144.02 132.306 140.631 131.422Z" fill="#FFB27D"/>
<path d="M143.028 124.971C143.028 124.971 129.339 126.21 125.366 130.699C121.394 135.189 120.227 147.385 120.227 147.385C120.227 147.385 132.281 157.095 146.806 153.329L143.028 124.971Z" fill="white"/>
<path d="M247.936 173.265C247.373 173.213 246.807 173.213 246.244 173.265C248.127 172.36 250.022 171.377 250.022 171.377C250.022 171.377 249.161 170.518 245.921 171.72C245.571 171.848 245.196 171.895 244.824 171.856L249.376 169.742C248.549 169.023 246.372 169.638 244.68 170.283C244.085 170.512 243.442 170.587 242.811 170.5C242.18 170.413 241.581 170.168 241.071 169.787L241.021 169.746L241.245 169.721C243.906 169.308 244.555 167.763 243.823 167.945C243.09 168.127 238.625 168.515 238.625 168.515C236.606 168.428 232.625 170.023 232.625 170.023L234.922 174.116C234.922 174.116 241.369 175.218 243.037 174.677C243.173 174.636 243.33 174.574 243.513 174.504L249.352 174.041C249.352 174.041 249.232 173.405 247.936 173.265Z" fill="#F4A269"/>
<path d="M182.344 199.64C182.344 199.64 190.728 197.377 193.004 197.823C195.28 198.269 199.695 200.673 200.366 201.742C201.036 202.812 195.28 202.663 192.064 202.568C188.849 202.473 187.748 203.663 186.345 203.46C185.598 203.345 184.842 203.288 184.086 203.291L182.344 199.64Z" fill="#FFB27D"/>
<path d="M200.815 302.242C196.934 324.586 175.639 338.744 153.814 338.744H109.809L113.252 204.472C113.252 204.472 155.238 189.843 165.782 203.758C175.022 215.946 200.075 264.195 201.395 292.767C201.548 295.937 201.354 299.114 200.815 302.242Z" fill="#7BBDF2"/>
<path d="M200.813 302.241C196.931 324.586 175.636 338.744 153.812 338.744H118.596C135.082 327.592 157.275 296.785 200.813 302.241Z" fill="#70B6EF"/>
<path d="M132.596 338.645L131.607 338.711C130.912 338.748 130.213 338.773 129.513 338.781H84.8211V338.761L82.2803 338.794C77.749 338.847 73.0149 338.901 68.6243 338.938H66.4517H65.6613C61.3245 338.967 57.4884 338.98 54.7531 338.963C51.1097 338.96 47.4717 338.684 43.8697 338.137C39.6935 337.513 35.6163 336.349 31.7407 334.676C30.4207 334.093 29.1333 333.44 27.8839 332.718C26.213 331.759 24.618 330.674 23.1126 329.472C19.0231 326.165 15.5757 322.137 12.9409 317.589C10.8142 313.946 9.04717 310.105 7.66473 306.12C5.59733 300.126 4.04949 293.966 3.03825 287.708C1.34574 277.837 0.381537 266.338 0.0877266 253.047C-0.0281425 247.692 -0.0364178 242.047 0.0628985 236.114C0.217391 226.614 0.640861 216.327 1.33332 205.253C2.30165 189.686 3.77898 172.509 5.7322 153.626C7.51575 136.362 9.5683 124.302 12.5561 121.539C16.9674 117.483 26.1624 115.851 32.5559 115.199C36.5244 114.786 39.4087 114.761 39.4087 114.761C47.2257 114.761 54.1696 120.362 56.6773 128.684C61.788 145.618 70.9044 175.921 80.3933 207.607L80.534 208.082L82.1892 213.555C82.272 213.835 82.3589 214.112 82.4417 214.381L84.0969 213.641L84.1549 213.617C86.4267 212.609 89.0048 211.506 91.7815 210.383C93.2216 209.8 94.7155 209.21 96.2549 208.623C100.596 206.971 105.284 205.319 110.035 203.907C112.141 203.275 114.264 202.668 116.375 202.168C119.085 201.499 121.754 200.929 124.395 200.516L124.622 200.479L125.549 200.338C136.846 198.686 146.654 199.83 150.709 206.975C157.202 218.412 175.062 264.05 176.366 292.689C177.616 319.068 155.977 336.894 132.596 338.645Z" fill="#4E99D3"/>
<path d="M62.0074 219.725C62.0074 219.725 39.4253 127.887 37.7907 120.168C37.0624 116.727 34.8237 115.484 32.5684 115.166C36.541 114.753 39.4295 114.728 39.4295 114.728C47.2424 114.728 54.1862 120.312 56.694 128.61C62.1646 146.704 72.237 180.076 82.4417 214.067C81.9244 214.055 62.0074 219.725 62.0074 219.725Z" fill="#7BBDF2"/>
<path d="M369.289 301.027C372.889 324.065 396.444 338.736 420.603 338.736H468.452L464.728 204.464C464.728 204.464 419.071 189.835 407.621 203.75C397.574 215.938 370.332 264.186 368.9 292.746C368.743 295.513 368.874 298.288 369.289 301.027Z" fill="#D7E3F3"/>
<path d="M496.311 218.688C496.311 218.688 431.756 185.804 419.536 207.285C413.043 218.693 395.179 264.195 393.879 292.751C392.596 320.497 416.685 338.744 441.468 338.744H485.474L496.311 218.688Z" fill="#B1CBEF"/>
<path d="M484.173 236.927C484.719 239.723 489.966 242.296 497.701 244.609C499.08 245.014 500.521 245.41 502.025 245.799C528.422 252.527 575.176 256.281 579.632 254.299C585.79 251.556 623.588 117.524 623.588 117.524C623.588 117.524 587.507 116.173 558.855 115.513C549.051 115.29 540.121 115.145 533.798 115.166C533.071 115.167 532.345 115.216 531.625 115.314C529.179 115.608 526.917 116.763 525.248 118.573C520.638 123.529 519.492 133.293 515.222 144.097C511.001 154.778 505.815 168.11 500.899 181.339C499.633 184.747 498.383 188.15 497.175 191.499L496.161 194.32C488.89 214.612 483.295 232.4 484.173 236.927Z" fill="#C8DEF8"/>
<path d="M369.289 301.027C372.889 324.065 396.444 338.736 420.603 338.736H444.074C428.415 328.154 414.271 295.522 369.289 301.027Z" fill="#B1CBEF"/>
<path d="M406.964 318.114C416.2 330.917 430.369 339.132 446.152 338.876L514.019 338.913H546.524L509.934 218.705C509.934 218.705 417.363 209.515 405.95 221.773C400.649 227.461 397.674 253.233 396.018 279.212C395.066 293.857 399.337 307.549 406.964 318.114Z" fill="#C6DBF4"/>
<path d="M406.967 318.114C416.203 330.918 430.372 339.133 446.155 338.876L514.022 338.914C506.035 332.223 480.916 313.24 454.043 314.133C433.646 314.822 417.461 314.529 406.967 318.114Z" fill="#BBD3F4"/>
<path d="M456.709 311.766C458.48 314.487 454.855 317.279 450.353 319.931C445.851 322.583 447.746 322.822 442.015 327.27C436.283 331.719 432.832 331.339 431.926 330.727C431.098 330.182 433.436 327.452 435.869 324.466C436.18 324.09 436.482 323.71 436.788 323.33C439.503 319.927 439.821 315.727 441.03 311.353C442.176 307.223 439.97 297.017 439.97 297.017L447.614 290.665C447.614 290.665 449.41 299.933 450.37 303.79C450.937 306.058 452.853 307.921 454.392 309.296C455.272 310.012 456.051 310.843 456.709 311.766Z" fill="#FFB27D"/>
<path d="M450.347 319.939C445.845 322.595 447.74 322.83 442.009 327.279C436.277 331.727 432.826 331.347 431.92 330.736C431.092 330.19 433.43 327.46 435.864 324.474L435.942 324.499C439.547 323.761 442.883 322.061 445.597 319.58C449.189 316.247 451.924 311.621 454.386 309.3C455.266 310.019 456.046 310.852 456.703 311.778C458.483 314.496 454.858 317.288 450.347 319.939Z" fill="#C65447"/>
<path d="M486.346 193.271C486.346 193.271 440.048 195.774 433.485 202.932C423.967 213.303 439.32 306.636 439.32 306.636C439.32 306.636 450.1 305.723 452.388 302.114C452.388 302.114 466.872 241.838 459.481 231.975C452.09 222.112 512.375 221.798 510.794 208.702C509.214 195.605 486.346 193.271 486.346 193.271Z" fill="#163560"/>
<path d="M485.035 133.26C485.035 133.26 484.873 131.376 484.265 149.161C483.88 160.486 484.538 171.005 481.368 175.045C475.989 181.913 468.453 194.733 468.453 194.733L472.442 196.542C472.442 196.542 487.861 186.047 491.594 180.509C495.326 174.97 501.054 145.084 499.949 137.555C498.844 130.026 485.035 133.26 485.035 133.26Z" fill="#F4A269"/>
<path d="M432.797 320.265C433.095 323.495 428.588 324.28 423.366 324.54C418.144 324.8 419.72 325.87 412.565 327.163C405.41 328.455 402.538 326.502 402.021 325.535C401.562 324.68 404.889 323.342 408.435 321.818L409.772 321.24C413.765 319.489 416.004 315.916 419.116 312.604C422.062 309.469 424.86 299.425 424.86 299.425L434.585 297.359C434.585 297.359 431.857 306.4 430.906 310.258C430.351 312.53 431.175 315.065 431.903 316.998C432.346 318.043 432.647 319.141 432.797 320.265Z" fill="#FFB27D"/>
<path d="M423.366 324.541C418.144 324.801 419.72 325.871 412.565 327.163C405.41 328.456 402.538 326.502 402.021 325.536C401.562 324.681 404.889 323.343 408.435 321.819L408.489 321.881C412.025 322.9 415.772 322.945 419.331 322.009C424.065 320.724 428.642 317.903 431.903 316.991C432.346 318.035 432.647 319.134 432.797 320.258C433.095 323.496 428.588 324.28 423.366 324.541Z" fill="#C65447"/>
<path d="M517.582 198.797C517.582 198.797 460.168 201.507 448.313 209.639C436.457 217.771 420.434 307.726 420.434 307.726C420.434 307.726 421.675 308.643 424.377 308.829C426.885 309.003 432.335 307.322 432.335 307.322C432.335 307.322 458.819 266.322 460.379 256.19C461.94 246.059 461.128 237.105 465.614 236.688C470.1 236.27 526.4 241.136 534.308 225.904C542.216 210.672 517.582 198.797 517.582 198.797Z" fill="#1C468A"/>
<path d="M495.581 129.394C508.571 137.415 515.031 115.067 524.714 136.143C524.714 136.143 548.716 127.804 542.794 110.536C539.165 99.913 529.965 103.015 530.574 96.4933C531.666 84.6438 521.201 62.7993 502.219 70.6921C502.219 70.6921 497.472 69.99 494.112 72.9513C477.829 87.316 491.998 101.214 485.881 106.938C478.006 114.286 481.284 128.87 495.581 129.394Z" fill="#B5453C"/>
<path d="M519.993 117.47C516.435 117.175 512.858 117.175 509.3 117.47C506.108 117.807 502.979 118.589 500.006 119.796C494.945 121.906 495.454 130.844 506.093 129.192C516.732 127.54 520.738 120.126 519.993 117.47Z" fill="#FFB27D"/>
<path d="M500.47 123.992C500.408 124.025 498.956 131.682 505.908 131.377C510.46 131.174 520.313 125.665 519.444 121.762C519.03 119.911 515.583 115.1 514.892 104.122L514.064 104.345L500.094 108.083C500.094 108.083 500.715 112.506 501.004 116.694C501.248 120.213 501.248 123.562 500.47 123.992Z" fill="#FFB27D"/>
<path d="M500.088 108.082C500.088 108.082 500.709 112.506 500.998 116.694C508.902 115.946 512.585 108.433 514.058 104.345L500.088 108.082Z" fill="#F4A269"/>
<path d="M515.706 103.564C515.706 103.564 519.687 96.8938 520.536 91.2602C521.14 87.2374 518.698 72.4514 503.813 74.9915C500.815 75.4881 497.966 76.6512 495.479 78.3948C492.293 80.6664 487.74 85.5152 493.323 98.3228L494.8 102.664L515.706 103.564Z" fill="#B5453C"/>
<path d="M497.636 112.374C497.636 112.374 516.42 112.18 516.117 100.508C515.815 88.8358 518.038 80.9472 506.033 80.5755C494.028 80.2038 491.814 84.7056 490.961 88.6417C490.109 92.5777 492.741 112.126 497.636 112.374Z" fill="#FFB27D"/>
<path d="M497.473 80.5216C497.473 80.5216 502.981 94.0769 510.926 95.89C518.871 97.7031 521.085 102.564 521.085 102.564C521.085 102.564 519.169 86.3617 517.688 78.0188C517.688 78.0188 501.172 73.8968 497.473 80.5216Z" fill="#B5453C"/>
<path d="M498.766 81.5958C498.766 81.5958 495.008 84.7595 494.152 87.7539C493.295 90.7482 491.255 96.7246 491.255 96.7246C491.255 96.7246 487.117 87.5185 491.342 82.1369C495.811 76.429 498.766 81.5958 498.766 81.5958Z" fill="#B5453C"/>
<path d="M478.931 195.77C480.45 197.583 485.192 198.141 490.257 198.971C494.247 199.628 498.434 200.454 501.43 202.201C508.192 206.162 530.29 219.548 536.766 218.949C539.274 218.709 538.806 213.926 537.284 207.578C534.892 197.554 529.88 183.623 529.88 177.581C529.88 174.277 528.78 166.458 527.306 157.521C527.188 156.802 527.066 156.075 526.942 155.34C524.046 137.964 520.007 117.47 520.007 117.47C520.007 117.47 515.513 127.259 506.765 127.259C498.016 127.259 500.003 119.796 500.003 119.796C500.003 119.796 492.012 120.733 490.125 122.761C488.238 124.789 483.45 133.562 482.498 135.953C482.498 135.953 482.304 138.997 489.856 140.447C489.856 140.447 488.019 148.707 487.787 154.217C487.625 158.289 490.568 171.022 491.416 178.944C491.714 181.748 491.755 183.95 491.3 184.949C490.717 186.225 488.817 187.502 486.674 188.753C482.436 191.231 477.131 193.618 478.931 195.77Z" fill="#F99746"/>
<path d="M486.704 188.753C481.859 197.013 499.851 199.491 502.843 201.226C509.609 205.187 530.292 219.556 536.776 218.948C539.284 218.709 538.817 213.926 537.294 207.578C534.902 197.554 529.89 183.623 529.89 177.581C529.89 174.276 528.79 166.458 527.317 157.52L519.52 150.049C519.52 150.049 511.169 171.6 503.208 175.131C499.42 176.757 495.492 178.033 491.472 178.944C491.77 181.748 491.811 183.949 491.356 184.949C490.747 186.209 488.856 187.501 486.704 188.753Z" fill="#ED7D2B"/>
<path d="M522.388 123.922C522.388 123.922 529.051 119.882 535.498 127.544C541.945 135.205 530.917 189.992 521.366 192.8C510.76 195.927 487.561 201.147 487.561 201.147L486.676 197.748C486.676 197.748 513.33 181.281 514.683 179.543C516.036 177.804 518.999 124.805 522.388 123.922Z" fill="#FFB27D"/>
<path d="M519.991 117.471C519.991 117.471 533.68 118.71 537.653 123.195C541.625 127.68 542.792 139.868 542.792 139.868C542.792 139.868 530.738 149.578 516.213 145.812L519.991 117.471Z" fill="#F99746"/>
<path d="M468.45 194.733C468.45 194.733 462.619 198.1 461.527 201.152C460.434 204.204 460.902 208.586 461.527 208.875C462.151 209.164 467.254 204.956 468.45 203.721C469.646 202.486 467.775 206.694 469.178 206.537C470.581 206.38 472.439 196.542 472.439 196.542L468.45 194.733Z" fill="#F4A269"/>
<path d="M486.676 197.773C486.676 197.773 482.07 197.41 480.547 197.773C479.024 198.137 471.133 203.052 472.441 203.968C473.748 204.885 479.724 204.32 481.015 203.386C482.306 202.453 486.221 201.457 487.561 201.156C488.902 200.854 486.676 197.773 486.676 197.773Z" fill="#FFB27D"/>
<path d="M463.175 302.242C467.056 324.586 488.347 338.744 510.176 338.744H554.215L550.772 204.472C550.772 204.472 508.786 189.843 498.217 203.758C488.98 215.946 463.924 264.194 462.628 292.755C462.461 295.927 462.644 299.109 463.175 302.242Z" fill="#DFEBFB"/>
<path d="M463.174 302.241C467.055 324.586 488.346 338.744 510.175 338.744H545.387C528.921 327.592 506.728 296.785 463.174 302.241Z" fill="#CDE0FB"/>
<path d="M531.413 338.645L532.402 338.711C533.097 338.748 533.792 338.773 534.495 338.781H579.188V338.761L581.729 338.794C586.281 338.847 590.99 338.901 595.385 338.938H597.561H598.352C602.689 338.967 606.525 338.98 609.26 338.963C612.903 338.959 616.541 338.683 620.143 338.137C624.318 337.513 628.394 336.35 632.268 334.676C633.589 334.095 634.877 333.441 636.125 332.718C637.798 331.76 639.394 330.675 640.901 329.472C644.982 326.163 648.423 322.135 651.051 317.589C653.178 313.947 654.944 310.105 656.324 306.12C658.392 300.126 659.942 293.966 660.954 287.708C662.647 277.837 663.611 266.338 663.905 253.047C664.021 247.692 664.029 242.047 663.93 236.114C663.772 226.614 663.347 216.327 662.655 205.253C661.691 189.686 660.209 172.509 658.256 153.626C656.477 136.362 654.424 124.302 651.432 121.539C647.025 117.483 637.83 115.851 631.432 115.199C627.46 114.786 624.575 114.761 624.575 114.761C616.763 114.761 609.815 120.362 607.307 128.684C602.2 145.618 593.084 175.921 583.595 207.607C583.545 207.764 583.5 207.925 583.45 208.082C582.898 209.902 582.347 211.726 581.795 213.555C581.716 213.835 581.629 214.112 581.542 214.381C581.013 214.145 580.458 213.893 579.887 213.641L579.829 213.617C577.553 212.609 574.979 211.506 572.198 210.383C570.754 209.8 569.265 209.21 567.725 208.623C563.384 206.971 558.696 205.319 553.945 203.907C551.839 203.275 549.712 202.668 547.601 202.168C544.895 201.499 542.221 200.929 539.585 200.516L539.358 200.479L538.431 200.338C527.13 198.686 517.326 199.83 513.271 206.975C506.778 218.412 488.913 264.05 487.614 292.689C486.389 319.068 508.028 336.894 531.413 338.645Z" fill="#A6C0E3"/>
<path d="M601.999 219.725C601.999 219.725 624.585 127.887 626.219 120.168C626.944 116.727 629.182 115.484 631.438 115.166C627.469 114.753 624.581 114.728 624.581 114.728C616.768 114.728 609.82 120.312 607.312 128.61C601.841 146.704 591.769 180.076 581.568 214.067C582.077 214.055 601.999 219.725 601.999 219.725Z" fill="#DFEBFB"/>
<path d="M195.559 44.5852C194.317 13.7122 220.234 -0.0205688 246.74 -0.0205688C273.245 -0.0205688 302.096 6.83138 304.595 47.8894C306.205 74.2977 292.098 90.5457 251.482 90.5457C237.785 90.5457 227.141 88.3898 218.985 84.5446L198.683 102.552L208.681 77.6761C199.821 69.4736 196.096 57.905 195.559 44.5852Z" fill="white"/>
<path d="M464.049 55.7367C465.046 31.0589 444.322 20.0975 423.131 20.0975C401.939 20.0975 378.881 25.5741 376.882 58.3924C375.6 79.5017 386.872 92.4911 419.34 92.4911C430.294 92.4911 438.79 90.7688 445.32 87.6918L461.55 102.085L453.575 82.1904C460.639 75.6359 463.619 66.3884 464.049 55.7367Z" fill="white"/>
</g>
<defs>
<clipPath id="clip0_1414_52">
<rect width="664" height="339" fill="white"/>
</clipPath>
</defs>
</svg>
