<svg width="1137" height="340" viewBox="0 0 1137 340" fill="none" xmlns="http://www.w3.org/2000/svg">
<g clip-path="url(#clip0_1415_731)">
<path d="M277.521 274.145C277.521 274.145 267.533 281.531 266.852 294.733L268.665 294.897C268.665 294.897 271.854 281.244 277.62 275.905C283.385 270.566 277.521 274.145 277.521 274.145Z" fill="#C8DBF4"/>
<path d="M245.534 243.814C245.534 243.814 264.313 233.296 255.551 219.028C255.551 219.028 248.538 210.262 241.028 208.009C241.028 208.009 245.033 229.291 241.028 229.792C237.023 230.292 238.27 205.756 238.27 205.756C238.27 205.756 218.491 196.24 210.73 196.991C210.73 196.991 222.996 217.772 218.991 217.271C214.986 216.771 201.214 195.739 201.214 195.739C201.214 195.739 180.933 191.984 177.679 204.004C174.425 216.024 179.682 222.032 182.686 222.783C185.69 223.534 204.969 223.283 204.468 225.786C203.967 228.29 190.95 232.295 183.687 230.042C183.687 230.042 191.701 249.822 202.215 248.821C212.729 247.819 215.987 241.311 222.496 240.81C229.004 240.309 233.765 242.041 230.51 243.814C227.256 245.587 216.238 244.389 210.981 248.858C205.724 253.326 201.464 256.084 211.231 258.087C220.998 260.089 238.521 258.838 242.009 251.324L245.534 243.814Z" fill="#C8DBF4"/>
<path d="M186.939 207.759C186.939 207.759 239.524 224.785 245.532 243.814C245.532 243.814 245.282 252.329 250.539 262.092V265.859C250.539 265.859 245.032 253.093 242.028 251.336C242.028 251.324 253.793 234.798 186.939 207.759Z" fill="#C8DBF4"/>
<path d="M250.539 262.092C250.539 262.092 258.648 274.403 254.027 289.398L251.939 288.836C251.939 288.836 253.966 272.327 249.723 264.021C245.479 255.715 250.539 262.092 250.539 262.092Z" fill="#C8DBF4"/>
<path d="M268.809 253.404C268.809 253.404 258.14 269.639 264.213 289.398L266.963 288.655C266.963 288.655 264.291 266.906 269.884 255.949C275.478 244.992 268.809 253.404 268.809 253.404Z" fill="#D4E4F8"/>
<path d="M292.263 299.099C288.693 321.99 265.335 336.566 241.377 336.566H193.922L197.636 203.154C197.636 203.154 242.912 188.619 254.267 202.444C264.231 214.555 291.25 262.494 292.67 290.871C292.818 293.621 292.682 296.378 292.263 299.099Z" fill="#7BBDF2"/>
<path d="M166.311 217.288C166.311 217.288 230.329 184.606 242.434 205.945C248.873 217.279 266.589 262.49 267.878 290.863C269.15 318.432 245.266 336.562 220.685 336.562H177.075L166.311 217.288Z" fill="#4E99D3"/>
<path d="M178.33 235.41C177.793 238.188 172.61 240.744 164.919 243.043C163.551 243.445 162.122 243.839 160.631 244.224C134.453 250.909 88.0853 254.64 83.6656 252.67C77.5593 249.945 40.0801 116.771 40.0801 116.771C40.0801 116.771 75.8563 115.429 104.27 114.773C113.992 114.551 122.848 114.407 129.118 114.428C129.84 114.429 130.562 114.479 131.277 114.576C133.702 114.868 135.943 116.016 137.597 117.814C142.172 122.738 143.309 132.439 147.544 143.174C151.73 153.787 156.872 167.033 161.747 180.178C163.003 183.563 164.242 186.945 165.44 190.273C165.781 191.213 166.113 192.148 166.45 193.076C173.652 213.237 179.2 230.912 178.33 235.41Z" fill="#70B6EF"/>
<path d="M292.262 299.099C288.692 321.99 265.333 336.566 241.376 336.566H218.1C233.612 326.053 247.655 293.629 292.262 299.099Z" fill="#70B6EF"/>
<path d="M254.898 316.076C245.734 328.798 231.687 336.96 216.036 336.706L148.735 336.743H116.5L152.769 217.304C152.769 217.304 244.565 208.173 255.887 220.353C261.14 226.004 264.094 251.611 265.736 277.424C266.692 291.975 262.457 305.579 254.898 316.076Z" fill="#70B6EF"/>
<path d="M254.897 316.076C245.734 328.798 231.687 336.96 216.035 336.706L148.734 336.743C156.65 330.095 181.564 311.234 208.214 312.12C228.441 312.806 244.486 312.514 254.897 316.076Z" fill="#4E99D3"/>
<path d="M167.264 129.985C167.264 129.985 175.726 135.283 185.682 149.896C194.402 162.692 198.916 166.841 203.869 168.064C208.823 169.286 233.1 168.626 233.1 168.626L233.158 172.906C233.158 172.906 201.231 182.135 195.617 178.602C190.003 175.069 163.944 151.037 161.917 143.749C159.89 136.461 167.264 129.985 167.264 129.985Z" fill="#F4A269"/>
<path d="M252.822 315.375C252.526 318.584 256.999 319.368 262.178 319.622C267.357 319.876 265.789 320.943 272.889 322.228C279.988 323.512 282.828 321.571 283.345 320.611C283.801 319.762 280.501 318.432 276.984 316.918C276.541 316.733 276.098 316.536 275.655 316.343C271.699 314.603 269.479 311.053 266.393 307.762C263.471 304.648 260.693 294.667 260.693 294.667L251.049 292.615C251.049 292.615 253.757 301.599 254.697 305.431C255.251 307.688 254.434 310.208 253.712 312.129C253.27 313.165 252.97 314.257 252.822 315.375Z" fill="#FFB27D"/>
<path d="M262.179 319.618C267.358 319.876 265.79 320.939 272.89 322.224C279.989 323.508 282.829 321.567 283.346 320.607C283.801 319.757 280.502 318.428 276.985 316.913L276.932 316.975C273.425 317.988 269.71 318.032 266.18 317.102C261.485 315.826 256.947 313.023 253.713 312.116C253.27 313.153 252.971 314.245 252.822 315.362C252.527 318.584 257.004 319.367 262.179 319.618Z" fill="#163560"/>
<path d="M156.782 201.02C156.782 201.02 220.87 196.199 232.935 203.811C244.999 211.423 264.353 300.121 264.353 300.121C264.353 300.121 263.158 301.081 260.491 301.352C258.029 301.619 252.546 300.162 252.546 300.162C252.546 300.162 224.735 260.475 222.778 250.478C220.82 240.482 221.296 231.56 216.836 231.322C212.375 231.084 156.774 238.081 148.361 223.263C139.948 208.444 146.904 193.781 146.904 193.781L156.782 201.02Z" fill="#163560"/>
<path d="M228.302 325.667C228.003 328.88 232.476 329.66 237.655 329.918C242.834 330.177 241.27 331.236 248.365 332.52C255.461 333.804 258.309 331.863 258.822 330.907C259.277 330.054 255.978 328.724 252.461 327.214L251.131 326.635C247.175 324.895 244.955 321.35 241.869 318.058C238.947 314.94 236.173 304.959 236.173 304.959L226.525 302.908C226.525 302.908 229.234 311.891 230.174 315.723C230.728 317.981 229.911 320.504 229.189 322.421C228.75 323.458 228.452 324.55 228.302 325.667Z" fill="#FFB27D"/>
<path d="M237.654 329.918C242.833 330.177 241.269 331.236 248.364 332.52C255.46 333.804 258.308 331.863 258.821 330.907C259.276 330.054 255.977 328.724 252.46 327.214L252.407 327.271C248.9 328.284 245.185 328.33 241.655 327.403C236.96 326.126 232.421 323.299 229.188 322.413C228.749 323.45 228.451 324.542 228.301 325.659C228.002 328.88 232.475 329.66 237.654 329.918Z" fill="#163560"/>
<path d="M144.229 204.976C144.229 204.976 201.164 207.673 212.921 215.749C224.678 223.825 240.564 313.208 240.564 313.208C240.564 313.208 239.333 314.119 236.657 314.304C234.17 314.476 228.766 312.806 228.766 312.806C228.766 312.806 202.502 272.068 200.955 262.002C199.408 251.935 200.212 243.038 195.763 242.628C191.315 242.218 135.484 247.044 127.642 231.909C119.8 216.775 144.229 204.976 144.229 204.976Z" fill="#1C468A"/>
<path d="M158.371 78.5493C155.637 77.2525 152.482 77.3181 150.29 77.6177C150.743 77.1772 151.301 76.8594 151.911 76.6944C150.532 76.5918 147.586 78.1717 147.586 78.1717C128.069 72.2706 126.838 98.4236 128.04 106.898C129.731 118.798 120.436 119.504 115.556 129.53C103.04 155.235 131.746 174.601 131.746 174.601C131.897 174.675 150.935 138.23 162.934 129.004C165.675 124.248 166.172 116.176 166.217 115.54C166.155 121.917 165.335 125.553 164.514 127.626C174.482 116.989 165.622 81.9841 158.371 78.5493Z" fill="#163560"/>
<path d="M141.836 124.17C145.365 123.879 148.912 123.879 152.44 124.17C155.6 124.508 158.696 125.286 161.641 126.481C166.66 128.578 166.155 137.462 155.604 135.817C145.054 134.171 141.098 126.805 141.836 124.17Z" fill="#FFB27D"/>
<path d="M161.199 130.65C161.261 130.683 162.701 138.291 155.807 137.987C151.293 137.786 141.522 132.312 142.384 128.438C142.794 126.596 146.212 121.819 146.898 110.907L147.718 111.129L161.577 114.842C161.577 114.842 160.961 119.238 160.674 123.399C160.432 126.895 160.423 130.223 161.199 130.65Z" fill="#FFB27D"/>
<path d="M161.577 114.842C161.577 114.842 160.961 119.238 160.674 123.399C152.836 122.652 149.159 115.191 147.723 111.125L161.577 114.842Z" fill="#F4A269"/>
<path d="M144.591 110.608C144.591 110.608 139.994 104.415 138.591 98.9283C137.594 95.0134 138.521 80.1497 153.463 81.1716C156.47 81.365 159.395 82.2302 162.023 83.7036C165.396 85.6323 170.374 89.9699 166.147 103.188L165.126 107.624L144.591 110.608Z" fill="#163560"/>
<path d="M163.303 117.51C163.303 117.51 144.75 119.192 143.876 107.624C143.002 96.0557 140.023 88.4802 151.833 86.9167C163.644 85.3532 166.278 89.5923 167.509 93.3842C168.741 97.176 168.104 116.771 163.303 117.51Z" fill="#FFB27D"/>
<path d="M160.271 86.0057C160.271 86.0057 156.196 99.9583 148.539 102.544C140.881 105.129 137.34 103.291 137.34 103.291C140.94 99.6212 143.153 94.8155 143.602 89.6949C143.602 89.6949 155.958 79.8296 160.271 86.0057Z" fill="#163560"/>
<path d="M159.092 87.1999C159.092 87.1999 163.113 89.9494 164.258 92.8261C165.403 95.7028 166.273 101.739 168.026 101.399C168.026 101.399 171.169 91.8904 166.478 86.9906C161.501 81.7953 159.092 87.1999 159.092 87.1999Z" fill="#163560"/>
<path d="M182.549 201.973C181.042 203.774 176.344 204.324 171.317 205.153C167.365 205.805 163.212 206.622 160.237 208.358C153.531 212.298 131.617 225.594 125.195 224.999C122.704 224.765 123.172 220.013 124.678 213.705C127.054 203.745 132.024 189.904 132.024 183.896C132.024 180.613 133.115 172.848 134.572 163.968C134.691 163.25 134.814 162.528 134.933 161.801C137.806 144.533 141.815 124.174 141.815 124.174C141.815 124.174 146.272 133.896 154.947 133.896C163.622 133.896 161.611 126.481 161.611 126.481C161.611 126.481 169.536 127.412 171.407 129.431C173.278 131.45 178.026 140.162 178.966 142.538C178.966 142.538 179.159 145.563 171.67 147.003C171.67 147.003 173.496 155.211 173.721 160.685C173.881 164.727 170.96 177.379 170.122 185.25C169.823 188.036 169.786 190.224 170.237 191.217C170.816 192.489 172.7 193.753 174.821 194.996C179.077 197.463 184.338 199.83 182.549 201.973Z" fill="white"/>
<path d="M174.842 194.996C179.648 203.204 161.809 205.666 158.838 207.389C152.132 211.329 131.622 225.606 125.187 224.999C122.696 224.765 123.164 220.013 124.67 213.705C127.046 203.745 132.016 189.904 132.016 183.896C132.016 180.613 133.107 172.848 134.564 163.968L142.296 156.544C142.296 156.544 150.581 177.954 158.476 181.462C162.231 183.08 166.127 184.348 170.115 185.25C169.815 188.036 169.778 190.224 170.23 191.217C170.825 192.489 172.712 193.753 174.842 194.996Z" fill="#EBEEF2"/>
<path d="M139.461 130.58C139.461 130.58 132.85 126.567 126.461 134.183C120.071 141.8 131.003 196.231 140.471 199.022C150.993 202.129 182.55 201.969 182.55 201.969L181.524 198.173C181.524 198.173 148.444 187.573 147.098 185.861C145.752 184.15 142.822 131.458 139.461 130.58Z" fill="#FFB27D"/>
<path d="M141.836 124.17C141.836 124.17 128.261 125.401 124.321 129.862C120.382 134.323 119.225 146.441 119.225 146.441C119.225 146.441 131.179 156.089 145.583 152.346L141.836 124.17Z" fill="white"/>
<path d="M245.871 172.155C245.313 172.104 244.751 172.104 244.193 172.155C246.06 171.256 247.94 170.28 247.94 170.28C247.94 170.28 247.086 169.426 243.873 170.62C243.525 170.747 243.153 170.794 242.785 170.756L247.299 168.655C246.479 167.94 244.32 168.552 242.642 169.192C242.052 169.42 241.415 169.494 240.789 169.408C240.163 169.322 239.569 169.078 239.063 168.7L239.014 168.659L239.236 168.634C241.874 168.224 242.519 166.689 241.792 166.869C241.066 167.05 236.638 167.436 236.638 167.436C234.635 167.35 230.688 168.934 230.688 168.934L232.965 173C232.965 173 239.359 174.096 241.012 173.558C241.148 173.517 241.304 173.456 241.484 173.386L247.275 172.927C247.275 172.927 247.156 172.295 245.871 172.155Z" fill="#F4A269"/>
<path d="M180.822 198.361C180.822 198.361 189.136 196.112 191.393 196.556C193.65 196.999 198.029 199.387 198.694 200.45C199.359 201.513 193.65 201.365 190.462 201.271C187.273 201.176 186.182 202.358 184.791 202.157C184.049 202.042 183.3 201.986 182.55 201.989L180.822 198.361Z" fill="#FFB27D"/>
<path d="M199.141 300.306C195.292 322.507 174.174 336.574 152.531 336.574H108.893L112.307 203.163C112.307 203.163 153.943 188.627 164.399 202.453C173.563 214.563 198.407 262.502 199.716 290.892C199.868 294.041 199.675 297.198 199.141 300.306Z" fill="#7BBDF2"/>
<path d="M199.14 300.306C195.291 322.507 174.173 336.574 152.53 336.574H117.607C133.957 325.494 155.965 294.885 199.14 300.306Z" fill="#70B6EF"/>
<path d="M131.492 336.476L130.511 336.542C129.822 336.579 129.128 336.603 128.435 336.611H84.1146V336.591L81.5949 336.624C77.1014 336.677 72.4067 336.73 68.0527 336.767H65.8982H65.1144C60.8137 336.796 57.0096 336.808 54.297 336.792C50.684 336.789 47.0763 336.514 43.5042 335.971C39.3628 335.351 35.3196 334.195 31.4763 332.532C30.1673 331.953 28.8906 331.304 27.6516 330.587C25.9947 329.634 24.4129 328.556 22.92 327.362C18.8647 324.075 15.4459 320.074 12.8331 315.555C10.7241 311.935 8.97178 308.118 7.60085 304.159C5.55067 298.204 4.01571 292.083 3.0129 285.865C1.33448 276.057 0.378311 264.632 0.0869472 251.426C-0.0279569 246.105 -0.0361633 240.497 0.0623259 234.601C0.215531 225.163 0.635475 214.942 1.32216 203.938C2.28243 188.471 3.74745 171.404 5.68441 152.642C7.45311 135.488 9.48856 123.505 12.4514 120.76C16.826 116.73 25.9445 115.109 32.2847 114.461C36.2202 114.051 39.0804 114.026 39.0804 114.026C46.8324 114.026 53.7184 119.591 56.2053 127.859C61.2733 144.685 70.3138 174.794 79.7236 206.277L79.8632 206.749L81.5047 212.187C81.5867 212.466 81.6729 212.741 81.755 213.007L83.3965 212.273L83.4539 212.248C85.7069 211.247 88.2635 210.151 91.0171 209.035C92.4452 208.456 93.9266 207.87 95.4532 207.287C99.758 205.645 104.408 204.004 109.119 202.6C111.207 201.973 113.313 201.369 115.405 200.873C118.093 200.208 120.74 199.642 123.358 199.231L123.584 199.194L124.503 199.055C135.707 197.413 145.432 198.55 149.454 205.65C155.893 217.013 173.604 262.359 174.897 290.814C176.136 317.024 154.678 334.736 131.492 336.476Z" fill="#4E99D3"/>
<path d="M61.4907 218.318C61.4907 218.318 39.0967 127.067 37.4758 119.398C36.7535 115.979 34.5334 114.744 32.2969 114.428C36.2364 114.018 39.1008 113.993 39.1008 113.993C46.8487 113.993 53.7347 119.541 56.2215 127.786C61.6467 145.764 71.6351 178.922 81.7549 212.696C81.2419 212.683 61.4907 218.318 61.4907 218.318Z" fill="#7BBDF2"/>
<path d="M366.211 299.099C369.781 321.99 393.14 336.566 417.097 336.566H464.549L460.855 203.154C460.855 203.154 415.579 188.619 404.224 202.444C394.26 214.555 367.245 262.494 365.825 290.871C365.67 293.62 365.799 296.377 366.211 299.099Z" fill="#DFEBFB"/>
<path d="M492.175 217.288C492.175 217.288 428.157 184.614 416.039 205.957C409.6 217.292 391.884 262.502 390.596 290.875C389.323 318.444 413.211 336.574 437.788 336.574H481.427L492.175 217.288Z" fill="#B1CBEF"/>
<path d="M480.139 235.41C480.681 238.188 485.884 240.744 493.554 243.043C494.922 243.445 496.351 243.839 497.842 244.224C524.02 250.909 570.384 254.64 574.803 252.67C580.91 249.945 618.393 116.771 618.393 116.771C618.393 116.771 582.613 115.429 554.199 114.773C544.477 114.551 535.621 114.407 529.351 114.428C528.63 114.429 527.91 114.478 527.196 114.576C524.77 114.867 522.527 116.016 520.872 117.814C516.301 122.738 515.164 132.439 510.929 143.174C506.743 153.787 501.601 167.033 496.726 180.178C495.47 183.563 494.231 186.945 493.033 190.273L492.027 193.076C484.817 213.237 479.269 230.912 480.139 235.41Z" fill="#CDE3FD"/>
<path d="M366.211 299.099C369.781 321.99 393.14 336.566 417.097 336.566H440.373C424.845 326.053 410.818 293.629 366.211 299.099Z" fill="#B1CBEF"/>
<path d="M403.577 316.076C412.736 328.798 426.787 336.96 442.439 336.706L509.74 336.743H541.974L505.689 217.304C505.689 217.304 413.889 208.173 402.571 220.353C397.314 226.004 394.364 251.611 392.722 277.424C391.778 291.975 396.013 305.579 403.577 316.076Z" fill="#CDE3FD"/>
<path d="M403.576 316.076C412.736 328.798 426.787 336.96 442.438 336.706L509.739 336.743C501.819 330.095 476.91 311.234 450.26 312.12C430.033 312.806 413.983 312.514 403.576 316.076Z" fill="#BBD3F4"/>
<path d="M452.906 309.769C454.662 312.473 451.067 315.247 446.602 317.882C442.138 320.517 444.017 320.755 438.333 325.174C432.65 329.594 429.227 329.216 428.329 328.609C427.508 328.067 429.826 325.355 432.239 322.388C432.547 322.014 432.847 321.637 433.15 321.259C435.843 317.878 436.159 313.704 437.357 309.359C438.494 305.255 436.306 295.115 436.306 295.115L443.886 288.803C443.886 288.803 445.667 298.012 446.619 301.845C447.181 304.098 449.081 305.948 450.608 307.315C451.48 308.026 452.253 308.852 452.906 309.769Z" fill="#FFB27D"/>
<path d="M446.595 317.89C442.13 320.529 444.009 320.763 438.326 325.183C432.642 329.602 429.22 329.225 428.321 328.617C427.5 328.076 429.819 325.363 432.232 322.396L432.31 322.421C435.884 321.687 439.193 319.998 441.884 317.533C445.446 314.222 448.158 309.625 450.6 307.319C451.473 308.033 452.246 308.861 452.898 309.781C454.663 312.482 451.068 315.256 446.595 317.89Z" fill="#C65447"/>
<path d="M482.298 192.033C482.298 192.033 436.385 194.52 429.877 201.632C420.438 211.936 435.663 304.672 435.663 304.672C435.663 304.672 446.353 303.765 448.623 300.179C448.623 300.179 462.986 240.289 455.656 230.489C448.327 220.69 508.11 220.378 506.542 207.365C504.975 194.352 482.298 192.033 482.298 192.033Z" fill="#163560"/>
<path d="M480.996 132.406C480.996 132.406 480.836 130.535 480.233 148.206C479.851 159.458 480.504 169.91 477.36 173.924C472.026 180.748 464.553 193.486 464.553 193.486L468.509 195.284C468.509 195.284 483.799 184.856 487.501 179.353C491.202 173.85 496.882 144.155 495.786 136.674C494.69 129.193 480.996 132.406 480.996 132.406Z" fill="#F4A269"/>
<path d="M429.194 318.214C429.49 321.423 425.021 322.203 419.842 322.462C414.663 322.72 416.227 323.783 409.131 325.068C402.036 326.352 399.188 324.411 398.675 323.451C398.22 322.601 401.519 321.272 405.036 319.757L406.361 319.183C410.321 317.443 412.542 313.893 415.628 310.602C418.549 307.487 421.324 297.507 421.324 297.507L430.967 295.455C430.967 295.455 428.263 304.438 427.319 308.271C426.769 310.528 427.586 313.048 428.308 314.968C428.747 316.006 429.045 317.098 429.194 318.214Z" fill="#FFB27D"/>
<path d="M419.842 322.462C414.663 322.72 416.227 323.783 409.131 325.068C402.036 326.352 399.188 324.411 398.675 323.451C398.22 322.601 401.519 321.272 405.036 319.757L405.089 319.819C408.596 320.832 412.311 320.876 415.841 319.946C420.536 318.67 425.074 315.867 428.308 314.96C428.747 315.998 429.045 317.089 429.194 318.206C429.49 321.424 425.021 322.203 419.842 322.462Z" fill="#C65447"/>
<path d="M513.269 197.524C513.269 197.524 456.334 200.216 444.576 208.296C432.819 216.377 416.93 305.756 416.93 305.756C416.93 305.756 418.161 306.667 420.841 306.851C423.327 307.024 428.732 305.353 428.732 305.353C428.732 305.353 454.996 264.616 456.543 254.549C458.09 244.483 457.286 235.586 461.734 235.172C466.183 234.757 522.014 239.591 529.856 224.457C537.698 209.322 513.269 197.524 513.269 197.524Z" fill="#1C468A"/>
<path d="M491.452 128.565C504.334 136.535 510.74 114.33 520.342 135.271C520.342 135.271 544.144 126.985 538.271 109.828C534.672 99.273 525.55 102.355 526.153 95.8751C527.236 84.1016 516.858 62.397 498.034 70.2392C498.034 70.2392 493.327 69.5416 489.995 72.4839C473.847 86.7567 487.898 100.566 481.833 106.253C474.024 113.554 477.274 128.044 491.452 128.565Z" fill="#B5453C"/>
<path d="M515.66 116.718C512.132 116.424 508.585 116.424 505.056 116.718C501.891 117.052 498.788 117.83 495.839 119.028C490.82 121.125 491.325 130.006 501.876 128.364C512.426 126.723 516.399 119.357 515.66 116.718Z" fill="#FFB27D"/>
<path d="M496.299 123.198C496.238 123.231 494.797 130.839 501.692 130.535C506.206 130.334 515.977 124.86 515.115 120.982C514.704 119.143 511.286 114.362 510.601 103.455L509.78 103.676L495.926 107.39C495.926 107.39 496.541 111.785 496.829 115.946C497.071 119.443 497.071 122.771 496.299 123.198Z" fill="#FFB27D"/>
<path d="M495.922 107.39C495.922 107.39 496.537 111.785 496.825 115.946C504.663 115.204 508.315 107.739 509.776 103.676L495.922 107.39Z" fill="#F4A269"/>
<path d="M511.41 102.901C511.41 102.901 515.358 96.2732 516.199 90.6757C516.798 86.6787 514.377 71.9874 499.616 74.5112C496.642 75.0046 493.818 76.1603 491.351 77.8926C488.191 80.1497 483.677 84.9675 489.213 97.6931L490.678 102.006L511.41 102.901Z" fill="#B5453C"/>
<path d="M493.488 111.654C493.488 111.654 512.114 111.461 511.815 99.8639C511.515 88.2668 513.719 80.4287 501.814 80.0594C489.909 79.6901 487.714 84.1631 486.868 88.074C486.023 91.9848 488.633 111.408 493.488 111.654Z" fill="#FFB27D"/>
<path d="M493.328 80.006C493.328 80.006 498.79 93.4744 506.669 95.2759C514.548 97.0774 516.744 101.908 516.744 101.908C516.744 101.908 514.844 85.8086 513.375 77.5191C513.375 77.5191 496.997 73.4236 493.328 80.006Z" fill="#B5453C"/>
<path d="M494.608 81.073C494.608 81.073 490.882 84.2164 490.033 87.1916C489.183 90.1668 487.16 96.1049 487.16 96.1049C487.16 96.1049 483.056 86.9577 487.246 81.6106C491.678 75.9392 494.608 81.073 494.608 81.073Z" fill="#B5453C"/>
<path d="M474.944 194.516C476.45 196.318 481.153 196.872 486.176 197.697C490.132 198.349 494.285 199.17 497.256 200.906C503.961 204.841 525.875 218.141 532.297 217.546C534.784 217.308 534.32 212.556 532.81 206.249C530.438 196.289 525.469 182.447 525.469 176.443C525.469 173.16 524.377 165.392 522.916 156.512C522.799 155.798 522.678 155.075 522.555 154.345C519.682 137.081 515.677 116.718 515.677 116.718C515.677 116.718 511.221 126.444 502.545 126.444C493.87 126.444 495.84 119.028 495.84 119.028C495.84 119.028 487.916 119.96 486.044 121.975C484.173 123.99 479.425 132.706 478.481 135.082C478.481 135.082 478.288 138.106 485.778 139.547C485.778 139.547 483.955 147.754 483.726 153.229C483.566 157.275 486.483 169.927 487.325 177.798C487.62 180.584 487.661 182.771 487.21 183.764C486.631 185.032 484.748 186.301 482.622 187.544C478.42 190.006 473.159 192.378 474.944 194.516Z" fill="#F99746"/>
<path d="M482.651 187.544C477.845 195.751 495.688 198.214 498.655 199.937C505.365 203.873 525.875 218.149 532.306 217.546C534.793 217.308 534.329 212.556 532.819 206.249C530.447 196.289 525.477 182.447 525.477 176.443C525.477 173.16 524.386 165.392 522.925 156.512L515.193 149.088C515.193 149.088 506.912 170.501 499.016 174.01C495.261 175.625 491.365 176.893 487.378 177.798C487.674 180.584 487.715 182.771 487.263 183.764C486.66 185.016 484.785 186.301 482.651 187.544Z" fill="#ED7D2B"/>
<path d="M518.036 123.128C518.036 123.128 524.643 119.114 531.037 126.727C537.43 134.339 526.494 188.775 517.023 191.566C506.505 194.672 483.499 199.859 483.499 199.859L482.621 196.482C482.621 196.482 509.053 180.12 510.395 178.393C511.737 176.665 514.675 124.006 518.036 123.128Z" fill="#FFB27D"/>
<path d="M515.661 116.718C515.661 116.718 529.236 117.949 533.175 122.406C537.115 126.862 538.272 138.972 538.272 138.972C538.272 138.972 526.318 148.62 511.914 144.878L515.661 116.718Z" fill="#F99746"/>
<path d="M464.549 193.486C464.549 193.486 458.767 196.831 457.683 199.863C456.6 202.896 457.064 207.25 457.683 207.537C458.303 207.824 463.363 203.643 464.549 202.416C465.735 201.189 463.88 205.37 465.271 205.214C466.662 205.059 468.505 195.284 468.505 195.284L464.549 193.486Z" fill="#F4A269"/>
<path d="M482.622 196.506C482.622 196.506 478.055 196.145 476.545 196.506C475.035 196.868 467.209 201.751 468.506 202.662C469.802 203.573 475.728 203.011 477.009 202.083C478.289 201.156 482.171 200.167 483.501 199.867C484.83 199.568 482.622 196.506 482.622 196.506Z" fill="#FFB27D"/>
<path d="M459.316 300.306C463.165 322.507 484.279 336.574 505.926 336.574H549.598L546.183 203.163C546.183 203.163 504.547 188.627 494.066 202.453C484.907 214.563 460.059 262.502 458.774 290.879C458.608 294.032 458.79 297.193 459.316 300.306Z" fill="#DFEBFB"/>
<path d="M459.316 300.306C463.166 322.507 484.279 336.574 505.926 336.574H540.845C524.516 325.494 502.508 294.885 459.316 300.306Z" fill="#CDE0FB"/>
<path d="M526.983 336.476L527.964 336.542C528.653 336.579 529.343 336.603 530.04 336.611H574.36V336.591L576.88 336.624C581.394 336.677 586.064 336.73 590.422 336.767H592.581H593.365C597.665 336.796 601.469 336.808 604.182 336.792C607.795 336.788 611.403 336.514 614.975 335.971C619.115 335.352 623.157 334.195 626.999 332.532C628.308 331.955 629.585 331.305 630.823 330.587C632.482 329.635 634.065 328.556 635.559 327.362C639.607 324.074 643.019 320.072 645.625 315.555C647.735 311.936 649.486 308.119 650.854 304.159C652.905 298.204 654.442 292.083 655.446 285.865C657.124 276.057 658.08 264.632 658.372 251.426C658.487 246.105 658.495 240.497 658.396 234.601C658.24 225.163 657.819 214.942 657.132 203.938C656.176 188.471 654.707 171.404 652.77 152.642C651.005 135.488 648.97 123.505 646.003 120.76C641.633 116.73 632.514 115.109 626.17 114.461C622.23 114.051 619.37 114.026 619.37 114.026C611.622 114.026 604.732 119.591 602.245 127.859C597.181 144.685 588.141 174.794 578.731 206.277C578.682 206.433 578.636 206.593 578.587 206.749C578.04 208.558 577.493 210.37 576.946 212.187C576.868 212.466 576.782 212.741 576.695 213.007C576.17 212.774 575.62 212.523 575.054 212.273L574.996 212.248C572.739 211.247 570.187 210.151 567.429 209.035C565.997 208.456 564.52 207.87 562.993 207.287C558.688 205.645 554.039 204.004 549.328 202.6C547.239 201.973 545.13 201.369 543.037 200.873C540.353 200.208 537.702 199.642 535.088 199.231L534.862 199.194L533.943 199.055C522.736 197.413 513.014 198.55 508.992 205.65C502.554 217.013 484.838 262.359 483.549 290.814C482.335 317.024 503.793 334.736 526.983 336.476Z" fill="#B1CBEF"/>
<path d="M596.983 218.318C596.983 218.318 619.381 127.067 621.002 119.398C621.72 115.979 623.94 114.744 626.177 114.428C622.241 114.018 619.377 113.993 619.377 113.993C611.629 113.993 604.739 119.541 602.252 127.786C596.827 145.764 586.838 178.922 576.723 212.696C577.227 212.683 596.983 218.318 596.983 218.318Z" fill="#DFEBFB"/>
<path d="M716.287 236.157C717.588 238.91 730.112 241.463 748.706 243.724C751.989 244.134 755.444 244.512 759.068 244.893C822.323 251.521 995.573 255.222 1006.25 253.269C1021.02 250.569 1023.3 117.059 1023.3 117.059C1023.3 117.059 963.913 117.198 895.266 116.546C871.777 116.328 790.072 115.774 774.921 115.774C751.431 115.774 714.181 231.696 716.287 236.157Z" fill="#B0D4FF"/>
<path d="M740.216 219.208C740.216 219.208 766.759 128.738 768.675 121.129C769.529 117.74 772.159 116.517 774.831 116.205C770.165 115.795 766.771 115.774 766.771 115.774C757.587 115.774 749.424 121.273 746.478 129.448C740.011 147.262 728.192 180.149 716.209 213.635C716.808 213.623 740.216 219.208 740.216 219.208Z" fill="#D2E3FC"/>
<path d="M579.335 299.313C583.566 322.006 611.249 336.46 639.659 336.46H695.88L691.481 204.18C691.481 204.18 637.829 189.772 624.344 203.483C612.538 215.49 580.521 263.024 578.838 291.155C578.668 293.884 578.834 296.624 579.335 299.313Z" fill="#D2E3FC"/>
<path d="M579.334 299.313C583.565 322.006 611.249 336.46 639.659 336.46H667.244C648.83 326.028 632.198 293.884 579.334 299.313Z" fill="#8BB9EF"/>
<path d="M728.615 218.19C728.615 218.19 652.754 185.796 638.383 206.954C630.754 218.19 609.759 263.019 608.208 291.15C606.702 318.485 635.009 336.46 664.125 336.46H715.832L728.615 218.19Z" fill="#77A4E5"/>
<path d="M628.66 314.369C629.497 314.968 630.358 315.557 631.241 316.134C642.198 323.324 656.492 329.04 672.841 332.586C685.996 335.384 699.419 336.727 712.868 336.591H737.79L854.192 336.62H920.915H921.899V336.595L924.214 325.819L947.33 218.186C947.33 218.186 652.897 209.129 629.124 221.207C618.085 226.812 611.888 252.198 608.413 277.789C606.57 291.438 614.404 304.229 628.66 314.369Z" fill="#9FC3F7"/>
<path d="M628.66 314.369C629.497 314.968 630.358 315.557 631.241 316.134C642.198 323.324 656.492 329.04 672.841 332.586C685.996 335.384 699.419 336.727 712.868 336.591H737.79L854.192 336.62H920.914L921.903 336.595L924.218 325.819C883.324 318.789 826.734 311.644 767.702 312.198C711.325 312.748 664.124 312.683 628.66 314.369Z" fill="#8BB3EE"/>
<path d="M787.511 333.731C787.511 334.683 787.465 335.585 787.416 336.398C787.416 336.472 787.416 336.546 787.416 336.62C787.318 338.097 787.162 339.271 787.063 339.944H739.965C740.307 338.68 740.977 337.53 741.906 336.607L742.111 336.398C746.473 332.183 755.543 331.305 758.723 329.832C761.468 328.568 766.577 320.533 769.549 315.551C770.205 314.455 770.759 313.499 771.153 312.81C771.604 312.026 771.863 311.554 771.863 311.554L777.091 312.018L784.72 312.691C784.72 312.691 784.753 312.978 784.814 313.479C784.946 314.509 785.2 316.442 785.533 318.74C785.914 321.366 786.411 324.464 786.952 327.218C787.354 329.365 787.541 331.547 787.511 333.731Z" fill="#163560"/>
<path d="M890.555 129.292C890.555 129.292 865.522 197.939 860.557 197.565C849.764 196.744 845.742 199.354 843.682 199.268C841.622 199.182 853.244 202.777 856.851 202.26C860.458 201.743 887.953 200.906 887.953 200.906L904.61 142.116L890.555 129.292Z" fill="#FFB27D"/>
<path d="M828.65 336.398C828.65 336.48 828.65 336.55 828.65 336.624C828.54 338.097 828.396 339.271 828.293 339.944H781.203C781.546 338.686 782.211 337.539 783.132 336.615L783.354 336.398C784.576 335.277 785.982 334.375 787.511 333.731C792.025 331.679 797.606 330.924 799.965 329.84C802.657 328.609 807.606 323.726 810.586 320.631C812.071 319.093 813.069 317.993 813.069 317.993L816.31 317.246L820.517 316.282L826.18 314.985C826.18 314.985 826.27 315.695 826.443 316.885C826.586 317.907 826.795 319.29 827.054 320.886C827.366 322.782 827.747 324.99 828.195 327.23C828.73 330.255 828.883 333.335 828.65 336.398Z" fill="#1F426D"/>
<path d="M764.506 311.763C764.506 311.763 769.233 315.9 772.114 316.856C776.653 318.37 789.379 318.998 789.379 318.998C789.379 318.998 805.198 275.872 809.753 265.276C814.075 255.231 818.306 233.879 818.306 233.879C821.589 233.702 849.572 237.018 871.244 234.675C882.775 233.444 892.525 230.571 895.833 224.76C905.354 207.985 882.291 202.564 882.291 202.564C882.291 202.564 813.759 194.093 800.081 202.715C786.403 211.337 764.506 311.763 764.506 311.763Z" fill="#1C468A"/>
<path d="M818.307 233.879C821.59 233.702 849.573 237.018 871.245 234.675C877.125 223.977 884.852 209.876 884.852 209.876C884.852 209.876 845.161 205.387 818.307 233.879Z" fill="#163560"/>
<path d="M807.742 319.618C807.742 319.618 809.137 320.648 812.166 320.849C814.985 321.046 830.222 320.849 830.222 320.849C830.222 320.849 847.101 284.683 853.667 267.176C856.741 258.969 856.806 247.807 857.52 242.554C857.742 240.913 858.025 239.862 858.485 239.657C858.625 239.599 858.771 239.555 858.92 239.526C866.22 237.933 926.939 244.241 935.581 227.53C936.87 225.143 937.466 222.442 937.301 219.733C936.398 206.519 921.099 202.559 921.099 202.559C921.099 202.559 852.354 200.097 839.025 209.244C825.696 218.392 807.742 319.618 807.742 319.618Z" fill="#1C468A"/>
<path d="M772.113 316.856C776.652 318.37 789.378 318.998 789.378 318.998C789.378 318.998 805.197 275.872 809.753 265.276C814.074 255.231 818.305 233.879 818.305 233.879C818.305 233.879 785.192 309.043 772.113 316.856Z" fill="#163560"/>
<path d="M858.924 239.542C866.224 237.95 926.943 244.257 935.585 227.547C936.875 225.159 937.47 222.458 937.305 219.75L923.299 204.287C923.299 204.287 922.199 226.283 903.983 228.758C887.145 231.035 862.547 238.434 858.924 239.542Z" fill="#163560"/>
<path d="M812.166 320.849C814.985 321.046 830.222 320.849 830.222 320.849C830.222 320.849 847.101 284.683 853.667 267.176C856.741 258.969 856.806 247.807 857.52 242.554C850.848 256.753 822.544 315.961 812.166 320.849Z" fill="#163560"/>
<path d="M952.21 115.573C944.906 124.601 931.105 139.535 921.925 136.165C918.843 135.037 892.948 125.906 906.926 117.214C910.467 115.011 916.861 112.146 922.163 111.613C922.027 109.939 921.949 108.494 921.9 107.3C921.793 104.694 921.851 103.274 921.851 103.274L932.373 95.5837L932.861 95.7397L938.754 97.6069C938.812 98.2553 938.885 98.8913 938.98 99.5151C939.584 103.686 940.968 107.707 943.059 111.367C943.724 112.52 944.664 113.491 945.797 114.192C946.929 114.892 948.218 115.3 949.547 115.38C950.474 115.442 951.352 115.507 952.21 115.573Z" fill="#FFB27D"/>
<path d="M938.978 99.5151C936.438 104.144 931.629 106.167 921.899 107.312C921.792 104.706 921.849 103.286 921.849 103.286L932.371 95.5961L932.86 95.7479L938.753 97.6069C938.81 98.2553 938.884 98.8914 938.978 99.5151Z" fill="#ED985F"/>
<path d="M918.194 104.251C918.194 104.251 938.864 107.878 940.924 94.9682C942.984 82.0579 947.039 73.8381 933.927 70.9778C920.816 68.1175 917.459 72.6193 915.723 76.7723C913.987 80.9252 912.867 102.975 918.194 104.251Z" fill="#FFB27D"/>
<path d="M938.754 99.9131C938.754 99.9131 940.444 95.8341 938.717 92.5265C938.717 92.5265 941.085 88.6731 939.677 87.4009C938.269 86.1288 936.689 89.5184 936.123 88.7018C935.557 87.8852 933.115 84.0851 933.029 79.7229C932.943 75.3606 918.083 75.3688 916.298 75.5207C914.513 75.6725 910.459 71.38 910.225 68.9793C910.225 68.9793 913.75 67.7482 915.559 66.5171C917.369 65.286 929.972 57.2181 940.957 64.6499C951.943 72.0818 951.557 78.4384 949.124 83.1454C946.69 87.8523 944.298 99.9993 938.754 99.9131Z" fill="#2B478B"/>
<path d="M878.671 194.586C879.393 196.449 881.108 198.148 895.205 204.603C915.313 213.816 940.288 223.029 945.065 218.9C948.783 215.687 950.56 193.708 951.389 170.813C952.378 143.675 951.528 115.52 951.528 115.52C951.528 115.52 935.179 124.392 926.836 120.772C918.629 117.202 921.157 111.884 921.263 111.707L899.99 132.595C899.99 132.595 876.923 190.06 878.671 194.586Z" fill="#F99746"/>
<path d="M895.205 204.603C915.313 213.816 940.288 223.029 945.065 218.9C948.783 215.687 950.56 193.708 951.389 170.813C950.486 157.882 949.251 147.701 949.251 147.701C949.251 147.701 939.652 170.14 930.374 176.378C908.55 191.069 879.709 184.708 895.205 204.603Z" fill="#ED7D2B"/>
<path d="M971.337 139.621C971.337 139.621 966.856 181.565 959.436 198.209C959.436 198.209 937.35 203.216 900.531 198.209L901.414 191.213C901.414 191.213 947.195 182.098 947.195 180.687C947.195 179.275 950.314 129.801 950.162 126.637C950.01 123.473 971.337 139.621 971.337 139.621Z" fill="#FFB27D"/>
<path d="M945.759 147.057C950.548 148.288 955.279 148.005 959.424 147.114C964.255 146.048 968.866 144.154 973.052 141.517C973.052 141.517 971.994 131.319 969.872 123.969C969.154 121.47 966.86 119.66 964.127 118.364C958.866 115.844 951.508 115.52 951.508 115.52C951.508 115.52 931.868 143.503 945.759 147.057Z" fill="#F99746"/>
<path d="M921.264 111.707C921.264 111.707 907.217 111.83 899.925 117.141C895.456 120.412 891.436 124.256 887.967 128.574C887.967 128.574 889.715 137.934 896.585 139.555C903.454 141.176 921.264 111.707 921.264 111.707Z" fill="#F99746"/>
<path d="M818.298 300.499C822.861 322.511 847.881 336.46 873.534 336.46H925.241L921.194 204.18C921.194 204.18 871.851 189.772 859.458 203.479C848.6 215.486 819.159 263.02 817.6 291.15C817.423 294.284 817.658 297.427 818.298 300.499Z" fill="#D2E3FC"/>
<path d="M818.297 300.499C822.86 322.511 847.881 336.46 873.533 336.46H914.915C895.541 325.474 869.462 295.123 818.297 300.499Z" fill="#AFCDFB"/>
<path d="M1054.18 252.034C1053.84 265.129 1052.71 276.455 1050.72 286.181C1049.51 292.392 1047.69 298.467 1045.28 304.315C1043.63 308.297 1041.55 312.087 1039.08 315.617C1035.86 320.229 1031.82 324.205 1027.15 327.341C1025.36 328.538 1023.48 329.607 1021.54 330.542C1020.08 331.248 1018.58 331.889 1017.03 332.467C1012.42 334.13 1007.64 335.274 1002.77 335.877C998.531 336.42 994.26 336.694 989.985 336.698C986.767 336.698 982.257 336.698 977.161 336.677H976.233H973.681C968.518 336.64 962.958 336.583 957.631 336.533L954.643 336.501V336.521H902.928C902.654 336.521 902.379 336.521 902.108 336.521C901.287 336.521 900.466 336.492 899.645 336.455C899.26 336.455 898.87 336.418 898.484 336.394C870.989 334.666 845.575 317.106 847.011 291.089C848.558 262.876 869.779 218.067 877.182 206.647C884.872 194.787 909.675 196.437 910.044 196.486C910.118 196.486 965.059 196.642 965.116 196.486C976.27 165.273 981.683 146.207 987.687 129.513C990.637 121.306 998.799 115.803 1007.98 115.803C1007.98 115.803 1011.37 115.831 1016.04 116.234C1018.25 116.422 1020.75 116.697 1023.31 117.087C1029.43 118.031 1035.89 119.664 1039.55 122.479C1043.06 125.188 1045.47 137.08 1047.56 154.078C1049.86 172.701 1051.6 189.62 1052.73 204.964C1053.54 215.888 1054.04 226.023 1054.23 235.369C1054.34 241.196 1054.32 246.751 1054.18 252.034Z" fill="#77A4E5"/>
<path d="M1023.29 117.058C1023.29 117.058 1009.34 117.493 1006.54 129.288C1003.74 141.082 986.71 197.561 986.71 197.561C986.71 197.561 973.697 195.981 965.1 196.453C976.254 165.24 981.666 146.174 987.67 129.48C990.621 121.273 998.783 115.77 1007.97 115.77C1007.97 115.77 1011.36 115.799 1016.02 116.201C1018.24 116.394 1020.74 116.669 1023.29 117.058Z" fill="#D2E3FC"/>
<path d="M642.753 311.562C642.753 311.562 641.748 317.578 640.431 321.305C639.113 325.031 637.931 335.134 641.116 335.828C644.3 336.521 650.144 327.054 650.887 323.681C651.63 320.307 655.216 311.242 653.587 309.867C651.958 308.493 642.753 311.562 642.753 311.562Z" fill="#FFB27D"/>
<path d="M654.243 312.272C654.967 313.232 655.406 314.376 655.509 315.574C655.612 316.772 655.375 317.974 654.826 319.043C652.922 322.839 650.669 327.706 649.413 330.702C648.157 333.698 643.192 336.685 641.111 335.828C639.031 334.97 639.223 327.366 639.223 327.366C639.223 327.366 643.676 329.418 645.527 327.801C647.378 326.184 650.176 322.527 651.682 319.244C652.701 316.984 653.557 314.654 654.243 312.272Z" fill="#B5453C"/>
<path d="M778.997 143.519C778.997 143.519 754.584 138.34 737.069 146.901C737.069 146.901 729.724 170.095 730.068 174.195C730.413 178.294 730.434 196.355 726.896 202.81C723.359 209.265 759.381 220.718 765.881 216.725C772.382 212.733 780.047 147.964 778.997 143.519Z" fill="white"/>
<path d="M661.922 209.638C661.922 209.638 650.842 248.213 642.766 311.55C642.766 311.55 653.435 314.903 658.085 309.498C658.085 309.498 664.035 293.288 671.754 278.626C682.383 258.427 695.613 237.178 694.477 229.168C693.442 221.949 671.75 192.275 661.922 209.638Z" fill="#163560"/>
<path d="M723.115 313.762C723.115 313.762 724.757 319.643 725.114 323.574C725.471 327.505 728.668 337.174 731.852 336.46C735.037 335.745 736.366 324.698 735.599 321.329C734.831 317.96 734.286 308.222 732.226 307.66C730.165 307.097 723.115 313.762 723.115 313.762Z" fill="#FFB27D"/>
<path d="M667.375 204.714C667.375 204.714 674.844 200.434 691.817 204.119C708.79 207.804 722.677 216.619 722.677 216.619L679.395 218.416L667.375 204.714Z" fill="#163560"/>
<path d="M733.856 309.564C734.916 310.13 735.795 310.984 736.392 312.027C736.989 313.07 737.281 314.26 737.233 315.461C737.106 319.704 737.114 325.068 737.233 328.314C737.352 331.56 734.106 336.361 731.861 336.459C729.617 336.558 726.584 329.578 726.584 329.578C726.584 329.578 731.508 329.578 732.485 327.321C733.462 325.063 734.484 320.578 734.484 316.959C734.452 314.482 734.242 312.01 733.856 309.564Z" fill="#B5453C"/>
<path d="M772.225 143.458C772.225 143.458 783.055 141.476 784.557 150.29C786.059 159.105 784.733 212.343 776.44 215.027C768.146 217.71 735.518 207.812 735.518 207.812V204.595C735.518 204.595 767.116 203.093 768.282 202.6C769.447 202.108 772.225 143.458 772.225 143.458Z" fill="#FFB27D"/>
<path d="M681.988 211.124C681.988 211.124 693.769 254.426 718.675 313.208C718.675 313.208 727.51 315.863 733.859 309.564C733.859 309.564 728.631 222.565 719.968 211.608C715.412 205.867 681.737 191.172 681.988 211.124Z" fill="#1C468A"/>
<path d="M767.062 142.099C767.062 142.099 781.134 142.186 783.76 145.28C789.776 152.35 788.348 184.708 788.348 184.708C788.348 184.708 782.693 183.19 777.617 184.355C772.54 185.521 765.855 184.355 765.855 184.355L767.062 142.099Z" fill="white"/>
<path d="M737.138 151.201L736.161 152.1C731.081 156.754 707.727 177.896 702.971 177.74C697.636 177.564 676.945 171.995 676.945 171.995L676.186 175.746C676.186 175.746 701.391 189.423 708.777 188.028C716.164 186.633 733.219 174.437 733.219 174.437L737.138 151.201Z" fill="#FFB27D"/>
<path d="M748.526 143.187C748.526 143.187 735.464 145.916 732.033 149.913C728.602 153.91 717.949 166.365 717.949 166.365C717.949 166.365 720.736 168.572 724.363 174.892C727.893 181.048 737.84 179.759 737.84 179.759L748.526 143.187Z" fill="white"/>
<path d="M676.962 171.987C676.962 171.987 674.406 169.734 672.005 169.66C669.604 169.586 666.97 168.88 667.126 169.66C667.282 170.44 670.688 171.133 670.068 171.301C668.471 171.458 666.863 171.458 665.267 171.301C664.413 171.145 662.324 170.296 662.324 171.145C662.324 171.995 667.589 175.097 670.146 175.405C672.703 175.713 676.203 175.75 676.203 175.75L676.962 171.987Z" fill="#FFB27D"/>
<path d="M735.518 204.595C735.518 204.595 728.615 203.081 727.507 203.265C726.149 203.495 720.941 205.797 720.941 207.537C720.941 209.277 739.97 209.097 739.97 209.097L735.518 204.595Z" fill="#FFB27D"/>
<path d="M685.686 202.769C685.686 202.769 698.538 191.233 750.984 216.077L707.915 216.725L685.686 202.769Z" fill="#1C468A"/>
<path d="M755.786 119.418C755.786 119.418 764.888 124.4 757.87 134.347C757.87 134.347 765.778 135.488 767.838 133.264C767.671 133.78 767.438 134.272 767.145 134.729C767.145 134.729 774.856 133.941 777.691 131.106C780.527 128.27 773.034 89.2887 752.343 96.6343C752.343 96.6343 734.098 97.7834 738.686 118.437C743.274 139.091 736.453 140.043 736.453 140.043C736.453 140.043 738.48 140.716 739.396 140.589C739.396 140.589 740.664 139.892 740.824 139.116C740.824 139.116 740.721 140.314 740.413 140.733C740.413 140.733 747.87 140.405 751.157 137.118C754.444 133.83 757.435 123.583 755.786 119.418Z" fill="#233862"/>
<path d="M758.997 129.809C758.997 129.809 763.951 122.832 765.371 116.71C766.388 112.339 771.895 94.3855 755.349 95.8751C755.349 95.8751 743.662 97.5905 739.017 100.389C735.323 102.609 729.906 107.538 734.913 122.102L736.144 126.998L758.997 129.809Z" fill="#233862"/>
<path d="M748.341 150.775C749.573 151.673 754.969 152.785 759.294 150.643C763.361 148.632 765.22 144.274 764.629 142.497C764.038 140.72 762.138 140.113 760.078 129.365L759.29 129.69L745.994 135.123C745.994 135.123 747.16 139.415 747.968 143.511C748.629 146.95 747.623 150.253 748.341 150.775Z" fill="#FFB27D"/>
<path d="M745.975 135.119C745.975 135.119 747.14 139.411 747.949 143.507C755.643 141.779 758.355 133.925 759.271 129.686L745.975 135.119Z" fill="#ED975D"/>
<path d="M744.147 139.506C744.147 139.506 762.515 136.223 760.299 124.831C758.083 113.439 758.969 105.318 747.147 106.926C735.324 108.535 733.9 113.324 733.715 117.309C733.531 121.294 739.313 140.064 744.147 139.506Z" fill="#FFB27D"/>
<path d="M739.189 104.222C739.189 104.222 748.218 119.463 757.135 120.481C766.052 121.499 768.1 117.608 768.1 117.608C768.1 117.608 760.775 113.283 758.132 104.325C758.136 104.329 742.431 96.5153 739.189 104.222Z" fill="#233862"/>
<path d="M740.754 105.244C740.754 105.244 737.032 109.167 736.461 112.557C735.891 115.946 736.363 122.689 734.385 122.734C734.385 122.734 728.75 113.156 732.694 106.729C736.88 99.946 740.754 105.244 740.754 105.244Z" fill="#233862"/>
<path d="M740.043 105.859C740.043 105.859 746.199 120.965 757.763 124.474C757.763 124.474 745.575 116.361 743.215 106.147C740.855 95.9325 740.043 105.859 740.043 105.859Z" fill="#233862"/>
<path d="M777.691 131.105C774.859 133.941 767.144 134.733 767.144 134.733C767.437 134.275 767.67 133.781 767.838 133.264C763.796 136.354 754.164 133.756 754.164 133.756C761.961 132.267 759.758 121.035 757.14 120.481C755.843 112.015 753.097 101.448 751.805 96.6794C752.149 96.6343 752.342 96.622 752.342 96.622C773.033 89.2886 780.527 128.274 777.691 131.105Z" fill="#233862"/>
<path d="M901.403 191.147C901.403 191.147 889.161 190.051 888.107 190.326C887.052 190.601 878.036 197.943 877.724 198.587C877.413 199.231 876.259 203.396 877.429 203.544C880.95 203.996 884.299 199.35 889.74 198.833C892.9 198.529 900.713 196.568 900.713 196.568L901.403 191.147Z" fill="#FFB27D"/>
<path d="M712.29 55.4329C713.431 27.1173 689.691 14.5189 665.413 14.5189C641.136 14.5189 614.716 20.8099 612.426 58.4779C610.953 82.7104 623.876 97.6068 661.072 97.6068C673.617 97.6068 683.363 95.6289 690.832 92.0997L709.426 108.625L700.291 85.784C708.383 78.2701 711.794 67.6497 712.29 55.4329Z" fill="white"/>
<path d="M193.925 44.2996C192.694 13.6243 218.396 -0.0205078 244.68 -0.0205078C270.964 -0.0205078 299.576 6.78755 302.054 47.5826C303.651 73.8217 289.661 89.9658 249.383 89.9658C235.8 89.9658 225.245 87.8236 217.156 84.0031L197.024 101.895L206.938 77.1786C198.152 69.0286 194.459 57.5341 193.925 44.2996Z" fill="white"/>
<path d="M460.184 55.3796C461.173 30.8599 440.621 19.9686 419.606 19.9686C398.591 19.9686 375.725 25.4102 373.743 58.0183C372.471 78.9924 383.649 91.8986 415.847 91.8986C426.71 91.8986 435.134 90.1873 441.61 87.13L457.705 101.431L449.797 81.6639C456.802 75.1513 459.757 65.9631 460.184 55.3796Z" fill="white"/>
</g>
<defs>
<clipPath id="clip0_1415_731">
<rect width="1137" height="339.944" fill="white"/>
</clipPath>
</defs>
</svg>
